<ttFont>
    <TTGlyph name="A" xMin="-32" yMin="22" xMax="1312" yMax="1432">
      <contour>
        <pt x="1312" y="86" on="1"/>
        <pt x="816" y="22" on="1"/>
        <pt x="756" y="248" on="1"/>
        <pt x="528" y="248" on="1"/>
        <pt x="478" y="22" on="1"/>
        <pt x="-32" y="72" on="1"/>
        <pt x="366" y="1404" on="1"/>
        <pt x="922" y="1432" on="1"/>
      </contour>
      <contour>
        <pt x="720" y="554" on="1"/>
        <pt x="644" y="902" on="1"/>
        <pt x="570" y="554" on="1"/>
      </contour>
    </TTGlyph>
    <TTGlyph name="AE" xMin="-50" yMin="0" xMax="1736" yMax="1442">
      <contour>
        <pt x="820" y="554" on="1"/>
        <pt x="830" y="902" on="1"/>
        <pt x="670" y="554" on="1"/>
      </contour>
      <contour>
        <pt x="1736" y="1442" on="1"/>
        <pt x="1730" y="1348" on="0"/>
        <pt x="1720" y="1164" on="0"/>
        <pt x="1712" y="1070" on="1"/>
        <pt x="1288" y="1048" on="1"/>
        <pt x="1278" y="922" on="1"/>
        <pt x="1576" y="922" on="1"/>
        <pt x="1554" y="612" on="1"/>
        <pt x="1254" y="602" on="1"/>
        <pt x="1244" y="456" on="1"/>
        <pt x="1668" y="456" on="1"/>
        <pt x="1662" y="346" on="0"/>
        <pt x="1649" y="129" on="0"/>
        <pt x="1644" y="20" on="1"/>
        <pt x="782" y="0" on="1"/>
        <pt x="790" y="248" on="1"/>
        <pt x="546" y="248" on="1"/>
        <pt x="446" y="22" on="1"/>
        <pt x="-50" y="72" on="1"/>
        <pt x="678" y="1404" on="1"/>
      </contour>
    </TTGlyph>
    <TTGlyph name="AEacute" xMin="-50" yMin="0" xMax="1736" yMax="1976">
      <component glyphName="AE" x="0" y="0" flags="0x204"/>
      <component glyphName="acute" x="938" y="94" flags="0x4"/>
    </TTGlyph>
    <TTGlyph name="Aacute" xMin="-32" yMin="22" xMax="1312" yMax="1984">
      <component glyphName="A" x="0" y="0" flags="0x204"/>
      <component glyphName="acute" x="592" y="102" flags="0x4"/>
    </TTGlyph>
    <TTGlyph name="Abreve" xMin="-32" yMin="22" xMax="1312" yMax="1908">
      <component glyphName="A" x="0" y="0" flags="0x204"/>
      <component glyphName="breve" x="345" y="74" flags="0x4"/>
    </TTGlyph>
    <TTGlyph name="Acircumflex" xMin="-32" yMin="22" xMax="1312" yMax="1896">
      <component glyphName="A" x="0" y="0" flags="0x204"/>
      <component glyphName="circumflex" x="284" y="136" flags="0x4"/>
    </TTGlyph>
    <TTGlyph name="Adieresis" xMin="-32" yMin="22" xMax="1312" yMax="1782">
      <component glyphName="A" x="0" y="0" flags="0x204"/>
      <component glyphName="dieresis" x="286" y="62" flags="0x4"/>
    </TTGlyph>
    <TTGlyph name="Agrave" xMin="-32" yMin="22" xMax="1312" yMax="1978">
      <component glyphName="A" x="0" y="0" flags="0x204"/>
      <component glyphName="grave" x="132" y="84" flags="0x4"/>
    </TTGlyph>
    <TTGlyph name="Amacron" xMin="-32" yMin="22" xMax="1312" yMax="1754">
      <component glyphName="A" x="0" y="0" flags="0x204"/>
      <component glyphName="macron" x="314" y="4" flags="0x4"/>
    </TTGlyph>
    <TTGlyph name="Aogonek" xMin="-32" yMin="-339" xMax="1312" yMax="1432">
      <contour>
        <pt x="1289" y="-235" on="1"/>
        <pt x="1245" y="-277" on="0"/>
        <pt x="1135" y="-339" on="0"/>
        <pt x="1073" y="-339" on="1"/>
        <pt x="1027" y="-339" on="0"/>
        <pt x="946" y="-308" on="0"/>
        <pt x="885" y="-253" on="0"/>
        <pt x="849" y="-176" on="0"/>
        <pt x="849" y="-129" on="1"/>
        <pt x="849" y="-83" on="0"/>
        <pt x="883" y="-2" on="0"/>
        <pt x="910" y="34" on="1"/>
        <pt x="816" y="22" on="1"/>
        <pt x="756" y="248" on="1"/>
        <pt x="528" y="248" on="1"/>
        <pt x="478" y="22" on="1"/>
        <pt x="-32" y="72" on="1"/>
        <pt x="366" y="1404" on="1"/>
        <pt x="922" y="1432" on="1"/>
        <pt x="1312" y="86" on="1"/>
        <pt x="1161" y="66" on="1"/>
        <pt x="1145" y="46" on="0"/>
        <pt x="1111" y="0" on="0"/>
        <pt x="1084" y="-44" on="0"/>
        <pt x="1067" y="-84" on="0"/>
        <pt x="1067" y="-99" on="1"/>
        <pt x="1067" y="-117" on="0"/>
        <pt x="1093" y="-141" on="0"/>
        <pt x="1111" y="-141" on="1"/>
        <pt x="1131" y="-141" on="0"/>
        <pt x="1179" y="-110" on="0"/>
        <pt x="1191" y="-93" on="1"/>
      </contour>
      <contour>
        <pt x="720" y="554" on="1"/>
        <pt x="644" y="902" on="1"/>
        <pt x="570" y="554" on="1"/>
      </contour>
    </TTGlyph>
    <TTGlyph name="Aring" xMin="-39" yMin="22" xMax="1305" yMax="1884">
      <contour>
        <pt x="935" y="1592" on="1"/>
        <pt x="935" y="1547" on="0"/>
        <pt x="910" y="1465" on="0"/>
        <pt x="887" y="1430" on="1"/>
        <pt x="915" y="1432" on="1"/>
        <pt x="1305" y="86" on="1"/>
        <pt x="809" y="22" on="1"/>
        <pt x="749" y="248" on="1"/>
        <pt x="521" y="248" on="1"/>
        <pt x="471" y="22" on="1"/>
        <pt x="-39" y="72" on="1"/>
        <pt x="359" y="1404" on="1"/>
        <pt x="395" y="1406" on="1"/>
        <pt x="363" y="1444" on="0"/>
        <pt x="329" y="1538" on="0"/>
        <pt x="329" y="1592" on="1"/>
        <pt x="329" y="1653" on="0"/>
        <pt x="377" y="1759" on="0"/>
        <pt x="458" y="1838" on="0"/>
        <pt x="567" y="1884" on="0"/>
        <pt x="629" y="1884" on="1"/>
        <pt x="693" y="1884" on="0"/>
        <pt x="804" y="1838" on="0"/>
        <pt x="887" y="1759" on="0"/>
        <pt x="935" y="1653" on="0"/>
      </contour>
      <contour>
        <pt x="729" y="1586" on="1"/>
        <pt x="729" y="1608" on="0"/>
        <pt x="716" y="1649" on="0"/>
        <pt x="694" y="1680" on="0"/>
        <pt x="663" y="1698" on="0"/>
        <pt x="645" y="1698" on="1"/>
        <pt x="627" y="1698" on="0"/>
        <pt x="595" y="1680" on="0"/>
        <pt x="571" y="1649" on="0"/>
        <pt x="557" y="1608" on="0"/>
        <pt x="557" y="1586" on="1"/>
        <pt x="557" y="1562" on="0"/>
        <pt x="571" y="1520" on="0"/>
        <pt x="595" y="1490" on="0"/>
        <pt x="627" y="1472" on="0"/>
        <pt x="645" y="1472" on="1"/>
        <pt x="681" y="1472" on="0"/>
        <pt x="729" y="1538" on="0"/>
      </contour>
      <contour>
        <pt x="713" y="554" on="1"/>
        <pt x="637" y="902" on="1"/>
        <pt x="563" y="554" on="1"/>
      </contour>
    </TTGlyph>
    <TTGlyph name="Atilde" xMin="-32" yMin="22" xMax="1312" yMax="1956">
      <component glyphName="A" x="0" y="0" flags="0x204"/>
      <component glyphName="tilde" x="240" y="164" flags="0x4"/>
    </TTGlyph>
    <TTGlyph name="B" xMin="53" yMin="-24" xMax="1215" yMax="1458">
      <contour>
        <pt x="1215" y="356" on="1"/>
        <pt x="1215" y="273" on="0"/>
        <pt x="1154" y="153" on="0"/>
        <pt x="1052" y="69" on="0"/>
        <pt x="919" y="16" on="0"/>
        <pt x="775" y="-14" on="0"/>
        <pt x="630" y="-24" on="0"/>
        <pt x="567" y="-24" on="1"/>
        <pt x="505" y="-24" on="0"/>
        <pt x="372" y="-15" on="0"/>
        <pt x="240" y="7" on="0"/>
        <pt x="112" y="44" on="0"/>
        <pt x="55" y="72" on="1"/>
        <pt x="53" y="1360" on="1"/>
        <pt x="109" y="1383" on="0"/>
        <pt x="235" y="1420" on="0"/>
        <pt x="366" y="1445" on="0"/>
        <pt x="496" y="1458" on="0"/>
        <pt x="557" y="1458" on="1"/>
        <pt x="628" y="1458" on="0"/>
        <pt x="773" y="1440" on="0"/>
        <pt x="907" y="1398" on="0"/>
        <pt x="1023" y="1331" on="0"/>
        <pt x="1110" y="1233" on="0"/>
        <pt x="1159" y="1103" on="0"/>
        <pt x="1159" y="1018" on="1"/>
        <pt x="1159" y="962" on="0"/>
        <pt x="1127" y="864" on="0"/>
        <pt x="1067" y="786" on="0"/>
        <pt x="981" y="731" on="0"/>
        <pt x="927" y="718" on="1"/>
        <pt x="992" y="701" on="0"/>
        <pt x="1099" y="635" on="0"/>
        <pt x="1174" y="541" on="0"/>
        <pt x="1215" y="423" on="0"/>
      </contour>
      <contour>
        <pt x="707" y="926" on="1"/>
        <pt x="707" y="955" on="0"/>
        <pt x="683" y="996" on="0"/>
        <pt x="648" y="1022" on="0"/>
        <pt x="607" y="1034" on="0"/>
        <pt x="591" y="1034" on="1"/>
        <pt x="571" y="1034" on="0"/>
        <pt x="533" y="1022" on="0"/>
        <pt x="515" y="1014" on="1"/>
        <pt x="509" y="792" on="1"/>
        <pt x="532" y="792" on="0"/>
        <pt x="600" y="800" on="0"/>
        <pt x="663" y="827" on="0"/>
        <pt x="707" y="880" on="0"/>
      </contour>
      <contour>
        <pt x="565" y="600" on="1"/>
        <pt x="536" y="600" on="0"/>
        <pt x="509" y="594" on="1"/>
        <pt x="505" y="366" on="1"/>
        <pt x="520" y="363" on="0"/>
        <pt x="549" y="358" on="0"/>
        <pt x="563" y="358" on="1"/>
        <pt x="584" y="358" on="0"/>
        <pt x="634" y="367" on="0"/>
        <pt x="678" y="394" on="0"/>
        <pt x="707" y="440" on="0"/>
        <pt x="707" y="478" on="1"/>
        <pt x="707" y="516" on="0"/>
        <pt x="678" y="564" on="0"/>
        <pt x="636" y="591" on="0"/>
        <pt x="586" y="600" on="0"/>
      </contour>
    </TTGlyph>
    <TTGlyph name="C" xMin="14" yMin="14" xMax="1042" yMax="1458">
      <contour>
        <pt x="1042" y="1406" on="1"/>
        <pt x="986" y="984" on="1"/>
        <pt x="957" y="992" on="0"/>
        <pt x="899" y="998" on="0"/>
        <pt x="870" y="998" on="1"/>
        <pt x="796" y="998" on="0"/>
        <pt x="662" y="959" on="0"/>
        <pt x="559" y="879" on="0"/>
        <pt x="498" y="759" on="0"/>
        <pt x="498" y="678" on="1"/>
        <pt x="498" y="626" on="0"/>
        <pt x="531" y="550" on="0"/>
        <pt x="591" y="500" on="0"/>
        <pt x="673" y="476" on="0"/>
        <pt x="722" y="476" on="1"/>
        <pt x="759" y="476" on="0"/>
        <pt x="839" y="492" on="0"/>
        <pt x="917" y="518" on="0"/>
        <pt x="991" y="552" on="0"/>
        <pt x="1022" y="570" on="1"/>
        <pt x="982" y="100" on="1"/>
        <pt x="943" y="80" on="0"/>
        <pt x="852" y="49" on="0"/>
        <pt x="756" y="26" on="0"/>
        <pt x="660" y="14" on="0"/>
        <pt x="616" y="14" on="1"/>
        <pt x="489" y="14" on="0"/>
        <pt x="269" y="108" on="0"/>
        <pt x="107" y="272" on="0"/>
        <pt x="14" y="495" on="0"/>
        <pt x="14" y="624" on="1"/>
        <pt x="14" y="795" on="0"/>
        <pt x="112" y="1098" on="0"/>
        <pt x="302" y="1326" on="0"/>
        <pt x="583" y="1458" on="0"/>
        <pt x="766" y="1458" on="1"/>
        <pt x="835" y="1458" on="0"/>
        <pt x="980" y="1436" on="0"/>
      </contour>
    </TTGlyph>
    <TTGlyph name="Cacute" xMin="14" yMin="14" xMax="1042" yMax="1994">
      <component glyphName="C" x="0" y="0" flags="0x204"/>
      <component glyphName="acute" x="402" y="112" flags="0x4"/>
    </TTGlyph>
    <TTGlyph name="Ccaron" xMin="14" yMin="14" xMax="1042" yMax="1930">
      <component glyphName="C" x="0" y="0" flags="0x204"/>
      <component glyphName="caron" x="172" y="52" flags="0x4"/>
    </TTGlyph>
    <TTGlyph name="Ccedilla" xMin="14" yMin="-446" xMax="1042" yMax="1458">
      <contour>
        <pt x="830" y="-234" on="1"/>
        <pt x="830" y="-292" on="0"/>
        <pt x="793" y="-372" on="0"/>
        <pt x="727" y="-423" on="0"/>
        <pt x="637" y="-446" on="0"/>
        <pt x="584" y="-446" on="1"/>
        <pt x="565" y="-446" on="0"/>
        <pt x="517" y="-441" on="0"/>
        <pt x="468" y="-430" on="0"/>
        <pt x="422" y="-413" on="0"/>
        <pt x="406" y="-400" on="1"/>
        <pt x="494" y="-242" on="1"/>
        <pt x="506" y="-248" on="0"/>
        <pt x="538" y="-256" on="0"/>
        <pt x="552" y="-256" on="1"/>
        <pt x="570" y="-256" on="0"/>
        <pt x="606" y="-235" on="0"/>
        <pt x="606" y="-214" on="1"/>
        <pt x="606" y="-199" on="0"/>
        <pt x="588" y="-180" on="0"/>
        <pt x="561" y="-168" on="0"/>
        <pt x="531" y="-164" on="0"/>
        <pt x="520" y="-164" on="1"/>
        <pt x="500" y="-164" on="0"/>
        <pt x="460" y="-169" on="0"/>
        <pt x="440" y="-174" on="1"/>
        <pt x="450" y="36" on="1"/>
        <pt x="354" y="62" on="0"/>
        <pt x="194" y="172" on="0"/>
        <pt x="78" y="326" on="0"/>
        <pt x="14" y="517" on="0"/>
        <pt x="14" y="624" on="1"/>
        <pt x="14" y="795" on="0"/>
        <pt x="112" y="1098" on="0"/>
        <pt x="302" y="1326" on="0"/>
        <pt x="583" y="1458" on="0"/>
        <pt x="766" y="1458" on="1"/>
        <pt x="835" y="1458" on="0"/>
        <pt x="980" y="1436" on="0"/>
        <pt x="1042" y="1406" on="1"/>
        <pt x="986" y="984" on="1"/>
        <pt x="957" y="992" on="0"/>
        <pt x="899" y="998" on="0"/>
        <pt x="870" y="998" on="1"/>
        <pt x="796" y="998" on="0"/>
        <pt x="662" y="959" on="0"/>
        <pt x="559" y="879" on="0"/>
        <pt x="498" y="759" on="0"/>
        <pt x="498" y="678" on="1"/>
        <pt x="498" y="626" on="0"/>
        <pt x="531" y="550" on="0"/>
        <pt x="591" y="500" on="0"/>
        <pt x="673" y="476" on="0"/>
        <pt x="722" y="476" on="1"/>
        <pt x="759" y="476" on="0"/>
        <pt x="839" y="492" on="0"/>
        <pt x="917" y="518" on="0"/>
        <pt x="991" y="552" on="0"/>
        <pt x="1022" y="570" on="1"/>
        <pt x="982" y="100" on="1"/>
        <pt x="944" y="80" on="0"/>
        <pt x="855" y="49" on="0"/>
        <pt x="762" y="27" on="0"/>
        <pt x="667" y="15" on="0"/>
        <pt x="624" y="14" on="1"/>
        <pt x="624" y="-36" on="1"/>
        <pt x="668" y="-38" on="0"/>
        <pt x="744" y="-66" on="0"/>
        <pt x="799" y="-117" on="0"/>
        <pt x="830" y="-189" on="0"/>
      </contour>
    </TTGlyph>
    <TTGlyph name="Ccircumflex" xMin="14" yMin="14" xMax="1042" yMax="1919">
      <component glyphName="C" x="0" y="0" flags="0x204"/>
      <component glyphName="circumflex" x="176" y="159" flags="0x4"/>
    </TTGlyph>
    <TTGlyph name="Cdotaccent" xMin="14" yMin="14" xMax="1042" yMax="1873">
      <component glyphName="C" x="0" y="0" flags="0x204"/>
      <component glyphName="dotaccent" x="327" y="165" flags="0x4"/>
    </TTGlyph>
    <TTGlyph name="D" xMin="44" yMin="8" xMax="1184" yMax="1424">
      <contour>
        <pt x="1184" y="794" on="1"/>
        <pt x="1184" y="654" on="0"/>
        <pt x="1112" y="429" on="0"/>
        <pt x="983" y="254" on="0"/>
        <pt x="805" y="128" on="0"/>
        <pt x="593" y="47" on="0"/>
        <pt x="354" y="8" on="0"/>
        <pt x="228" y="8" on="1"/>
        <pt x="181" y="8" on="0"/>
        <pt x="91" y="13" on="0"/>
        <pt x="44" y="18" on="1"/>
        <pt x="72" y="1360" on="1"/>
        <pt x="182" y="1395" on="0"/>
        <pt x="415" y="1424" on="0"/>
        <pt x="530" y="1424" on="1"/>
        <pt x="673" y="1424" on="0"/>
        <pt x="913" y="1338" on="0"/>
        <pt x="1087" y="1176" on="0"/>
        <pt x="1184" y="942" on="0"/>
      </contour>
      <contour>
        <pt x="774" y="730" on="1"/>
        <pt x="775" y="784" on="0"/>
        <pt x="750" y="884" on="0"/>
        <pt x="693" y="961" on="0"/>
        <pt x="605" y="1008" on="0"/>
        <pt x="544" y="1010" on="1"/>
        <pt x="504" y="390" on="1"/>
        <pt x="564" y="399" on="0"/>
        <pt x="662" y="460" on="0"/>
        <pt x="733" y="549" on="0"/>
        <pt x="772" y="658" on="0"/>
        <pt x="774" y="716" on="1"/>
      </contour>
    </TTGlyph>
    <TTGlyph name="Dcaron" xMin="44" yMin="8" xMax="1184" yMax="1930">
      <component glyphName="D" x="0" y="0" flags="0x204"/>
      <component glyphName="caron" x="218" y="52" flags="0x4"/>
    </TTGlyph>
    <TTGlyph name="Dcroat" xMin="-29" yMin="8" xMax="1253" yMax="1424">
      <contour>
        <pt x="127" y="776" on="1"/>
        <pt x="141" y="1360" on="1"/>
        <pt x="251" y="1395" on="0"/>
        <pt x="484" y="1424" on="0"/>
        <pt x="599" y="1424" on="1"/>
        <pt x="742" y="1424" on="0"/>
        <pt x="982" y="1338" on="0"/>
        <pt x="1156" y="1176" on="0"/>
        <pt x="1253" y="942" on="0"/>
        <pt x="1253" y="794" on="1"/>
        <pt x="1253" y="654" on="0"/>
        <pt x="1181" y="429" on="0"/>
        <pt x="1052" y="254" on="0"/>
        <pt x="874" y="128" on="0"/>
        <pt x="662" y="47" on="0"/>
        <pt x="422" y="8" on="0"/>
        <pt x="297" y="8" on="1"/>
        <pt x="250" y="8" on="0"/>
        <pt x="160" y="13" on="0"/>
        <pt x="113" y="18" on="1"/>
        <pt x="125" y="604" on="1"/>
        <pt x="-25" y="598" on="1"/>
        <pt x="-29" y="780" on="1"/>
      </contour>
      <contour>
        <pt x="843" y="730" on="1"/>
        <pt x="844" y="784" on="0"/>
        <pt x="819" y="884" on="0"/>
        <pt x="762" y="961" on="0"/>
        <pt x="674" y="1008" on="0"/>
        <pt x="613" y="1010" on="1"/>
        <pt x="597" y="770" on="1"/>
        <pt x="697" y="768" on="1"/>
        <pt x="701" y="628" on="1"/>
        <pt x="591" y="622" on="1"/>
        <pt x="573" y="390" on="1"/>
        <pt x="633" y="399" on="0"/>
        <pt x="731" y="460" on="0"/>
        <pt x="802" y="549" on="0"/>
        <pt x="841" y="658" on="0"/>
        <pt x="843" y="716" on="1"/>
      </contour>
    </TTGlyph>
    <TTGlyph name="E" xMin="44" yMin="0" xMax="998" yMax="1442">
      <contour>
        <pt x="998" y="1442" on="1"/>
        <pt x="992" y="1348" on="0"/>
        <pt x="982" y="1164" on="0"/>
        <pt x="974" y="1070" on="1"/>
        <pt x="550" y="1048" on="1"/>
        <pt x="540" y="922" on="1"/>
        <pt x="838" y="922" on="1"/>
        <pt x="816" y="612" on="1"/>
        <pt x="516" y="602" on="1"/>
        <pt x="506" y="456" on="1"/>
        <pt x="754" y="456" on="1"/>
        <pt x="930" y="456" on="1"/>
        <pt x="924" y="346" on="0"/>
        <pt x="911" y="129" on="0"/>
        <pt x="906" y="20" on="1"/>
        <pt x="44" y="0" on="1"/>
        <pt x="76" y="1442" on="1"/>
      </contour>
    </TTGlyph>
    <TTGlyph name="Eacute" xMin="44" yMin="0" xMax="1014" yMax="1986">
      <component glyphName="E" x="0" y="0" flags="0x204"/>
      <component glyphName="acute" x="428" y="104" flags="0x4"/>
    </TTGlyph>
    <TTGlyph name="Ebreve" xMin="44" yMin="0" xMax="998" yMax="1918">
      <component glyphName="E" x="0" y="0" flags="0x204"/>
      <component glyphName="breve" x="194" y="84" flags="0x4"/>
    </TTGlyph>
    <TTGlyph name="Ecaron" xMin="44" yMin="0" xMax="998" yMax="1930">
      <component glyphName="E" x="0" y="0" flags="0x204"/>
      <component glyphName="caron" x="121" y="52" flags="0x4"/>
    </TTGlyph>
    <TTGlyph name="Ecircumflex" xMin="44" yMin="0" xMax="998" yMax="1914">
      <component glyphName="E" x="0" y="0" flags="0x204"/>
      <component glyphName="circumflex" x="166" y="154" flags="0x4"/>
    </TTGlyph>
    <TTGlyph name="Edieresis" xMin="44" yMin="0" xMax="998" yMax="1812">
      <component glyphName="E" x="0" y="0" flags="0x204"/>
      <component glyphName="dieresis" x="168" y="92" flags="0x4"/>
    </TTGlyph>
    <TTGlyph name="Edotaccent" xMin="44" yMin="0" xMax="998" yMax="1876">
      <component glyphName="E" x="0" y="0" flags="0x204"/>
      <component glyphName="dotaccent" x="309" y="168" flags="0x4"/>
    </TTGlyph>
    <TTGlyph name="Egrave" xMin="44" yMin="0" xMax="998" yMax="2006">
      <component glyphName="E" x="0" y="0" flags="0x204"/>
      <component glyphName="grave" x="108" y="112" flags="0x4"/>
    </TTGlyph>
    <TTGlyph name="Emacron" xMin="44" yMin="0" xMax="998" yMax="1774">
      <component glyphName="E" x="0" y="0" flags="0x204"/>
      <component glyphName="macron" x="163" y="24" flags="0x4"/>
    </TTGlyph>
    <TTGlyph name="Eng" xMin="41" yMin="-716" xMax="1411" yMax="1458">
      <contour>
        <pt x="1411" y="1434" on="1"/>
        <pt x="1397" y="1168" on="0"/>
        <pt x="1375" y="759" on="0"/>
        <pt x="1359" y="450" on="0"/>
        <pt x="1348" y="232" on="0"/>
        <pt x="1340" y="82" on="0"/>
        <pt x="1335" y="-9" on="0"/>
        <pt x="1332" y="-63" on="0"/>
        <pt x="1330" y="-91" on="0"/>
        <pt x="1329" y="-102" on="1"/>
        <pt x="1318" y="-227" on="0"/>
        <pt x="1232" y="-450" on="0"/>
        <pt x="1085" y="-618" on="0"/>
        <pt x="875" y="-716" on="0"/>
        <pt x="739" y="-716" on="1"/>
        <pt x="686" y="-716" on="0"/>
        <pt x="571" y="-698" on="0"/>
        <pt x="458" y="-662" on="0"/>
        <pt x="355" y="-609" on="0"/>
        <pt x="315" y="-574" on="1"/>
        <pt x="377" y="-160" on="1"/>
        <pt x="436" y="-217" on="0"/>
        <pt x="580" y="-288" on="0"/>
        <pt x="665" y="-288" on="1"/>
        <pt x="738" y="-288" on="0"/>
        <pt x="826" y="-231" on="0"/>
        <pt x="873" y="-139" on="0"/>
        <pt x="889" y="-23" on="0"/>
        <pt x="890" y="37" on="1"/>
        <pt x="535" y="756" on="1"/>
        <pt x="491" y="16" on="1"/>
        <pt x="41" y="16" on="1"/>
        <pt x="77" y="1434" on="1"/>
        <pt x="577" y="1458" on="1"/>
        <pt x="923" y="738" on="1"/>
        <pt x="939" y="1418" on="1"/>
      </contour>
    </TTGlyph>
    <TTGlyph name="Eogonek" xMin="44" yMin="-387" xMax="998" yMax="1442">
      <contour>
        <pt x="896" y="-283" on="1"/>
        <pt x="852" y="-325" on="0"/>
        <pt x="742" y="-387" on="0"/>
        <pt x="680" y="-387" on="1"/>
        <pt x="634" y="-387" on="0"/>
        <pt x="553" y="-356" on="0"/>
        <pt x="492" y="-301" on="0"/>
        <pt x="456" y="-224" on="0"/>
        <pt x="456" y="-177" on="1"/>
        <pt x="456" y="-123" on="0"/>
        <pt x="502" y="-29" on="0"/>
        <pt x="537" y="11" on="1"/>
        <pt x="44" y="0" on="1"/>
        <pt x="76" y="1442" on="1"/>
        <pt x="998" y="1442" on="1"/>
        <pt x="992" y="1348" on="0"/>
        <pt x="982" y="1164" on="0"/>
        <pt x="974" y="1070" on="1"/>
        <pt x="550" y="1048" on="1"/>
        <pt x="540" y="922" on="1"/>
        <pt x="838" y="922" on="1"/>
        <pt x="816" y="612" on="1"/>
        <pt x="516" y="602" on="1"/>
        <pt x="506" y="456" on="1"/>
        <pt x="930" y="456" on="1"/>
        <pt x="924" y="346" on="0"/>
        <pt x="911" y="129" on="0"/>
        <pt x="906" y="20" on="1"/>
        <pt x="767" y="17" on="1"/>
        <pt x="751" y="-3" on="0"/>
        <pt x="718" y="-49" on="0"/>
        <pt x="691" y="-93" on="0"/>
        <pt x="674" y="-133" on="0"/>
        <pt x="674" y="-147" on="1"/>
        <pt x="674" y="-165" on="0"/>
        <pt x="700" y="-189" on="0"/>
        <pt x="718" y="-189" on="1"/>
        <pt x="738" y="-189" on="0"/>
        <pt x="786" y="-158" on="0"/>
        <pt x="798" y="-141" on="1"/>
      </contour>
    </TTGlyph>
    <TTGlyph name="Eth" xMin="-29" yMin="8" xMax="1253" yMax="1424">
      <contour>
        <pt x="127" y="776" on="1"/>
        <pt x="141" y="1360" on="1"/>
        <pt x="251" y="1395" on="0"/>
        <pt x="484" y="1424" on="0"/>
        <pt x="599" y="1424" on="1"/>
        <pt x="742" y="1424" on="0"/>
        <pt x="982" y="1338" on="0"/>
        <pt x="1156" y="1176" on="0"/>
        <pt x="1253" y="942" on="0"/>
        <pt x="1253" y="794" on="1"/>
        <pt x="1253" y="654" on="0"/>
        <pt x="1181" y="429" on="0"/>
        <pt x="1052" y="254" on="0"/>
        <pt x="874" y="128" on="0"/>
        <pt x="662" y="47" on="0"/>
        <pt x="422" y="8" on="0"/>
        <pt x="297" y="8" on="1"/>
        <pt x="250" y="8" on="0"/>
        <pt x="160" y="13" on="0"/>
        <pt x="113" y="18" on="1"/>
        <pt x="125" y="604" on="1"/>
        <pt x="-25" y="598" on="1"/>
        <pt x="-29" y="780" on="1"/>
      </contour>
      <contour>
        <pt x="843" y="730" on="1"/>
        <pt x="844" y="784" on="0"/>
        <pt x="819" y="884" on="0"/>
        <pt x="762" y="961" on="0"/>
        <pt x="674" y="1008" on="0"/>
        <pt x="613" y="1010" on="1"/>
        <pt x="597" y="770" on="1"/>
        <pt x="697" y="768" on="1"/>
        <pt x="701" y="628" on="1"/>
        <pt x="591" y="622" on="1"/>
        <pt x="573" y="390" on="1"/>
        <pt x="633" y="399" on="0"/>
        <pt x="731" y="460" on="0"/>
        <pt x="802" y="549" on="0"/>
        <pt x="841" y="658" on="0"/>
        <pt x="843" y="716" on="1"/>
      </contour>
    </TTGlyph>
    <TTGlyph name="Euro" xMin="41" yMin="238" xMax="969" yMax="1148">
      <contour>
        <pt x="691" y="578" on="1"/>
        <pt x="605" y="572" on="1"/>
        <pt x="650" y="530" on="0"/>
        <pt x="745" y="530" on="1"/>
        <pt x="801" y="530" on="0"/>
        <pt x="922" y="565" on="0"/>
        <pt x="969" y="588" on="1"/>
        <pt x="957" y="292" on="1"/>
        <pt x="928" y="280" on="0"/>
        <pt x="859" y="260" on="0"/>
        <pt x="787" y="246" on="0"/>
        <pt x="714" y="238" on="0"/>
        <pt x="681" y="238" on="1"/>
        <pt x="592" y="238" on="0"/>
        <pt x="441" y="285" on="0"/>
        <pt x="321" y="368" on="0"/>
        <pt x="238" y="481" on="0"/>
        <pt x="219" y="548" on="1"/>
        <pt x="41" y="536" on="1"/>
        <pt x="79" y="670" on="1"/>
        <pt x="203" y="668" on="1"/>
        <pt x="203" y="679" on="0"/>
        <pt x="203" y="697" on="0"/>
        <pt x="205" y="708" on="1"/>
        <pt x="89" y="708" on="1"/>
        <pt x="121" y="836" on="1"/>
        <pt x="229" y="828" on="1"/>
        <pt x="253" y="899" on="0"/>
        <pt x="343" y="1017" on="0"/>
        <pt x="472" y="1101" on="0"/>
        <pt x="640" y="1148" on="0"/>
        <pt x="743" y="1148" on="1"/>
        <pt x="794" y="1148" on="0"/>
        <pt x="901" y="1136" on="0"/>
        <pt x="951" y="1116" on="1"/>
        <pt x="923" y="850" on="1"/>
        <pt x="902" y="855" on="0"/>
        <pt x="860" y="858" on="0"/>
        <pt x="837" y="858" on="1"/>
        <pt x="778" y="858" on="0"/>
        <pt x="671" y="829" on="0"/>
        <pt x="633" y="800" on="1"/>
        <pt x="691" y="796" on="1"/>
        <pt x="691" y="712" on="1"/>
        <pt x="573" y="710" on="1"/>
        <pt x="571" y="701" on="0"/>
        <pt x="569" y="679" on="0"/>
        <pt x="569" y="668" on="1"/>
        <pt x="569" y="662" on="1"/>
        <pt x="691" y="662" on="1"/>
      </contour>
    </TTGlyph>
    <TTGlyph name="F" xMin="44" yMin="0" xMax="998" yMax="1442">
      <contour>
        <pt x="998" y="1442" on="1"/>
        <pt x="992" y="1348" on="0"/>
        <pt x="982" y="1164" on="0"/>
        <pt x="974" y="1070" on="1"/>
        <pt x="550" y="1048" on="1"/>
        <pt x="550" y="922" on="1"/>
        <pt x="918" y="922" on="1"/>
        <pt x="898" y="612" on="1"/>
        <pt x="548" y="602" on="1"/>
        <pt x="550" y="10" on="1"/>
        <pt x="44" y="0" on="1"/>
        <pt x="76" y="1442" on="1"/>
      </contour>
    </TTGlyph>
    <TTGlyph name="G" xMin="8" yMin="-30" xMax="1258" yMax="1480">
      <contour>
        <pt x="1258" y="204" on="1"/>
        <pt x="1211" y="145" on="0"/>
        <pt x="1073" y="57" on="0"/>
        <pt x="915" y="-1" on="0"/>
        <pt x="749" y="-30" on="0"/>
        <pt x="674" y="-30" on="1"/>
        <pt x="529" y="-30" on="0"/>
        <pt x="285" y="74" on="0"/>
        <pt x="108" y="257" on="0"/>
        <pt x="8" y="505" on="0"/>
        <pt x="8" y="648" on="1"/>
        <pt x="8" y="757" on="0"/>
        <pt x="58" y="966" on="0"/>
        <pt x="151" y="1151" on="0"/>
        <pt x="285" y="1306" on="0"/>
        <pt x="455" y="1418" on="0"/>
        <pt x="657" y="1480" on="0"/>
        <pt x="772" y="1480" on="1"/>
        <pt x="815" y="1480" on="0"/>
        <pt x="913" y="1473" on="0"/>
        <pt x="1010" y="1456" on="0"/>
        <pt x="1102" y="1426" on="0"/>
        <pt x="1140" y="1404" on="1"/>
        <pt x="1112" y="1022" on="1"/>
        <pt x="1056" y="1043" on="0"/>
        <pt x="937" y="1058" on="0"/>
        <pt x="880" y="1058" on="1"/>
        <pt x="800" y="1058" on="0"/>
        <pt x="661" y="1009" on="0"/>
        <pt x="558" y="917" on="0"/>
        <pt x="498" y="785" on="0"/>
        <pt x="498" y="702" on="1"/>
        <pt x="498" y="650" on="0"/>
        <pt x="526" y="553" on="0"/>
        <pt x="583" y="478" on="0"/>
        <pt x="668" y="432" on="0"/>
        <pt x="724" y="432" on="1"/>
        <pt x="762" y="432" on="0"/>
        <pt x="843" y="452" on="0"/>
        <pt x="872" y="476" on="1"/>
        <pt x="876" y="554" on="1"/>
        <pt x="636" y="558" on="1"/>
        <pt x="648" y="858" on="1"/>
        <pt x="797" y="863" on="0"/>
        <pt x="1095" y="870" on="0"/>
        <pt x="1246" y="876" on="1"/>
      </contour>
    </TTGlyph>
    <TTGlyph name="Gbreve" xMin="8" yMin="-30" xMax="1258" yMax="1956">
      <component glyphName="G" x="0" y="0" flags="0x204"/>
      <component glyphName="breve" x="340" y="122" flags="0x4"/>
    </TTGlyph>
    <TTGlyph name="Gcircumflex" xMin="8" yMin="-30" xMax="1258" yMax="1946">
      <component glyphName="G" x="0" y="0" flags="0x204"/>
      <component glyphName="circumflex" x="281" y="186" flags="0x4"/>
    </TTGlyph>
    <TTGlyph name="Gcommaaccent" xMin="8" yMin="-523" xMax="1258" yMax="1480">
      <component glyphName="G" x="0" y="0" flags="0x204"/>
      <component glyphName="uni0326" x="525" y="0" flags="0x4"/>
    </TTGlyph>
    <TTGlyph name="Gdotaccent" xMin="8" yMin="-30" xMax="1258" yMax="1909">
      <component glyphName="G" x="0" y="0" flags="0x204"/>
      <component glyphName="dotaccent" x="418" y="201" flags="0x4"/>
    </TTGlyph>
    <TTGlyph name="H" xMin="42" yMin="-24" xMax="1238" yMax="1438">
      <contour>
        <pt x="1238" y="0" on="1"/>
        <pt x="738" y="-24" on="1"/>
        <pt x="734" y="438" on="1"/>
        <pt x="504" y="438" on="1"/>
        <pt x="490" y="0" on="1"/>
        <pt x="42" y="0" on="1"/>
        <pt x="80" y="1406" on="1"/>
        <pt x="556" y="1384" on="1"/>
        <pt x="526" y="666" on="1"/>
        <pt x="748" y="666" on="1"/>
        <pt x="750" y="1438" on="1"/>
        <pt x="1206" y="1426" on="1"/>
      </contour>
    </TTGlyph>
    <TTGlyph name="Hbar" xMin="42" yMin="-24" xMax="1238" yMax="1438">
      <contour>
        <pt x="1238" y="0" on="1"/>
        <pt x="738" y="-24" on="1"/>
        <pt x="734" y="438" on="1"/>
        <pt x="504" y="438" on="1"/>
        <pt x="490" y="0" on="1"/>
        <pt x="42" y="0" on="1"/>
        <pt x="80" y="1406" on="1"/>
        <pt x="556" y="1384" on="1"/>
        <pt x="541" y="1027" on="1"/>
        <pt x="749" y="1031" on="1"/>
        <pt x="750" y="1438" on="1"/>
        <pt x="1206" y="1426" on="1"/>
      </contour>
      <contour>
        <pt x="748" y="666" on="1"/>
        <pt x="748" y="779" on="1"/>
        <pt x="531" y="782" on="1"/>
        <pt x="526" y="666" on="1"/>
      </contour>
    </TTGlyph>
    <TTGlyph name="Hcircumflex" xMin="42" yMin="-24" xMax="1238" yMax="1895">
      <component glyphName="H" x="0" y="0" flags="0x204"/>
      <component glyphName="circumflex" x="286" y="135" flags="0x4"/>
    </TTGlyph>
    <TTGlyph name="I" xMin="59" yMin="24" xMax="591" yMax="1408">
      <contour>
        <pt x="591" y="1408" on="1"/>
        <pt x="481" y="46" on="1"/>
        <pt x="59" y="24" on="1"/>
        <pt x="59" y="1380" on="1"/>
      </contour>
    </TTGlyph>
    <TTGlyph name="IJ" xMin="59" yMin="-24" xMax="1593" yMax="1448">
      <component glyphName="I" x="0" y="0" flags="0x4"/>
      <component glyphName="J" x="587" y="0" flags="0x4"/>
    </TTGlyph>
    <TTGlyph name="Iacute" xMin="59" yMin="24" xMax="843" yMax="1976">
      <component glyphName="I" x="0" y="0" flags="0x204"/>
      <component glyphName="acute" x="257" y="94" flags="0x4"/>
    </TTGlyph>
    <TTGlyph name="Ibreve" xMin="7" yMin="24" xMax="601" yMax="1895">
      <component glyphName="I" x="0" y="0" flags="0x204"/>
      <component glyphName="breve" x="8" y="61" flags="0x4"/>
    </TTGlyph>
    <TTGlyph name="Icircumflex" xMin="-28" yMin="24" xMax="682" yMax="1886">
      <component glyphName="I" x="0" y="0" flags="0x204"/>
      <component glyphName="circumflex" x="-28" y="126" flags="0x4"/>
    </TTGlyph>
    <TTGlyph name="Idieresis" xMin="-26" yMin="24" xMax="680" yMax="1762">
      <component glyphName="I" x="0" y="0" flags="0x204"/>
      <component glyphName="dieresis" x="-26" y="42" flags="0x4"/>
    </TTGlyph>
    <TTGlyph name="Idotaccent" xMin="59" yMin="24" xMax="591" yMax="1843">
      <component glyphName="I" x="0" y="0" flags="0x204"/>
      <component glyphName="dotaccent" x="127" y="135" flags="0x4"/>
    </TTGlyph>
    <TTGlyph name="Igrave" xMin="-178" yMin="24" xMax="591" yMax="1978">
      <component glyphName="I" x="0" y="0" flags="0x204"/>
      <component glyphName="grave" x="-178" y="84" flags="0x4"/>
    </TTGlyph>
    <TTGlyph name="Imacron" xMin="-12" yMin="24" xMax="642" yMax="1724">
      <component glyphName="I" x="0" y="0" flags="0x204"/>
      <component glyphName="macron" x="-12" y="-26" flags="0x4"/>
    </TTGlyph>
    <TTGlyph name="Iogonek" xMin="49" yMin="-377" xMax="591" yMax="1408">
      <contour>
        <pt x="489" y="-273" on="1"/>
        <pt x="445" y="-315" on="0"/>
        <pt x="335" y="-377" on="0"/>
        <pt x="273" y="-377" on="1"/>
        <pt x="227" y="-377" on="0"/>
        <pt x="146" y="-346" on="0"/>
        <pt x="85" y="-291" on="0"/>
        <pt x="49" y="-214" on="0"/>
        <pt x="49" y="-167" on="1"/>
        <pt x="49" y="-110" on="0"/>
        <pt x="99" y="-13" on="0"/>
        <pt x="136" y="28" on="1"/>
        <pt x="59" y="24" on="1"/>
        <pt x="59" y="1380" on="1"/>
        <pt x="591" y="1408" on="1"/>
        <pt x="481" y="46" on="1"/>
        <pt x="371" y="40" on="1"/>
        <pt x="354" y="19" on="0"/>
        <pt x="317" y="-29" on="0"/>
        <pt x="287" y="-77" on="0"/>
        <pt x="267" y="-121" on="0"/>
        <pt x="267" y="-137" on="1"/>
        <pt x="267" y="-155" on="0"/>
        <pt x="293" y="-179" on="0"/>
        <pt x="311" y="-179" on="1"/>
        <pt x="331" y="-179" on="0"/>
        <pt x="379" y="-148" on="0"/>
        <pt x="391" y="-131" on="1"/>
      </contour>
    </TTGlyph>
    <TTGlyph name="Itilde" xMin="-94" yMin="24" xMax="706" yMax="1918">
      <component glyphName="I" x="0" y="0" flags="0x204"/>
      <component glyphName="tilde" x="-94" y="126" flags="0x4"/>
    </TTGlyph>
    <TTGlyph name="J" xMin="-14" yMin="-24" xMax="1006" yMax="1448">
      <contour>
        <pt x="1006" y="824" on="1"/>
        <pt x="1006" y="765" on="0"/>
        <pt x="1006" y="649" on="0"/>
        <pt x="1000" y="590" on="1"/>
        <pt x="989" y="465" on="0"/>
        <pt x="903" y="242" on="0"/>
        <pt x="756" y="74" on="0"/>
        <pt x="546" y="-24" on="0"/>
        <pt x="410" y="-24" on="1"/>
        <pt x="357" y="-24" on="0"/>
        <pt x="242" y="-6" on="0"/>
        <pt x="129" y="30" on="0"/>
        <pt x="26" y="83" on="0"/>
        <pt x="-14" y="118" on="1"/>
        <pt x="48" y="532" on="1"/>
        <pt x="107" y="475" on="0"/>
        <pt x="251" y="404" on="0"/>
        <pt x="336" y="404" on="1"/>
        <pt x="391" y="404" on="0"/>
        <pt x="467" y="436" on="0"/>
        <pt x="517" y="492" on="0"/>
        <pt x="546" y="567" on="0"/>
        <pt x="559" y="652" on="0"/>
        <pt x="562" y="742" on="0"/>
        <pt x="562" y="786" on="1"/>
        <pt x="562" y="945" on="0"/>
        <pt x="530" y="1260" on="0"/>
        <pt x="518" y="1418" on="1"/>
        <pt x="976" y="1448" on="1"/>
        <pt x="1006" y="1136" on="0"/>
      </contour>
    </TTGlyph>
    <TTGlyph name="Jcircumflex" xMin="-14" yMin="-24" xMax="1067" yMax="1909">
      <component glyphName="J" x="0" y="0" flags="0x204"/>
      <component glyphName="circumflex" x="357" y="149" flags="0x4"/>
    </TTGlyph>
    <TTGlyph name="K" xMin="43" yMin="-60" xMax="1319" yMax="1472">
      <contour>
        <pt x="1319" y="1432" on="1"/>
        <pt x="837" y="766" on="1"/>
        <pt x="1243" y="58" on="1"/>
        <pt x="779" y="-24" on="1"/>
        <pt x="475" y="408" on="1"/>
        <pt x="459" y="-44" on="1"/>
        <pt x="43" y="-60" on="1"/>
        <pt x="75" y="1472" on="1"/>
        <pt x="541" y="1446" on="1"/>
        <pt x="505" y="994" on="1"/>
        <pt x="815" y="1472" on="1"/>
      </contour>
    </TTGlyph>
    <TTGlyph name="Kcommaaccent" xMin="43" yMin="-523" xMax="1319" yMax="1472">
      <component glyphName="K" x="0" y="0" flags="0x204"/>
      <component glyphName="uni0326" x="455" y="0" flags="0x4"/>
    </TTGlyph>
    <TTGlyph name="L" xMin="46" yMin="60" xMax="930" yMax="1448">
      <contour>
        <pt x="930" y="570" on="1"/>
        <pt x="888" y="126" on="1"/>
        <pt x="46" y="60" on="1"/>
        <pt x="52" y="409" on="0"/>
        <pt x="67" y="1099" on="0"/>
        <pt x="78" y="1448" on="1"/>
        <pt x="598" y="1448" on="1"/>
        <pt x="575" y="1229" on="0"/>
        <pt x="533" y="792" on="0"/>
        <pt x="524" y="570" on="1"/>
        <pt x="571" y="568" on="0"/>
        <pt x="663" y="568" on="0"/>
        <pt x="710" y="568" on="1"/>
        <pt x="766" y="568" on="0"/>
        <pt x="874" y="570" on="0"/>
      </contour>
    </TTGlyph>
    <TTGlyph name="Lacute" xMin="46" yMin="60" xMax="930" yMax="2017">
      <component glyphName="L" x="0" y="0" flags="0x204"/>
      <component glyphName="acute" x="333" y="135" flags="0x4"/>
    </TTGlyph>
    <TTGlyph name="Lcaron" xMin="46" yMin="60" xMax="1012" yMax="1537">
      <component glyphName="L" x="0" y="0" flags="0x4"/>
      <component glyphName="quoteright" x="667" y="352" scalex="0.800964355469" scaley="0.801635742188" flags="0x4"/>
    </TTGlyph>
    <TTGlyph name="Lcommaaccent" xMin="46" yMin="-413" xMax="930" yMax="1448">
      <component glyphName="L" x="0" y="0" flags="0x204"/>
      <component glyphName="uni0326" x="315" y="110" flags="0x4"/>
    </TTGlyph>
    <TTGlyph name="Ldot" xMin="46" yMin="60" xMax="1064" yMax="1448">
      <component glyphName="L" x="0" y="0" flags="0x4"/>
      <component glyphName="periodcentered" x="622" y="196" flags="0x4"/>
    </TTGlyph>
    <TTGlyph name="Lslash" xMin="-26" yMin="60" xMax="936" yMax="1448">
      <contour>
        <pt x="540" y="762" on="1"/>
        <pt x="537" y="714" on="0"/>
        <pt x="532" y="618" on="0"/>
        <pt x="530" y="570" on="1"/>
        <pt x="577" y="568" on="0"/>
        <pt x="669" y="568" on="0"/>
        <pt x="716" y="568" on="1"/>
        <pt x="772" y="568" on="0"/>
        <pt x="880" y="570" on="0"/>
        <pt x="936" y="570" on="1"/>
        <pt x="894" y="126" on="1"/>
        <pt x="52" y="60" on="1"/>
        <pt x="54" y="200" on="0"/>
        <pt x="59" y="478" on="0"/>
        <pt x="62" y="618" on="1"/>
        <pt x="-22" y="592" on="1"/>
        <pt x="-26" y="730" on="1"/>
        <pt x="66" y="762" on="1"/>
        <pt x="69" y="934" on="0"/>
        <pt x="78" y="1276" on="0"/>
        <pt x="84" y="1448" on="1"/>
        <pt x="604" y="1448" on="1"/>
        <pt x="590" y="1321" on="0"/>
        <pt x="565" y="1068" on="0"/>
        <pt x="554" y="940" on="1"/>
        <pt x="680" y="986" on="1"/>
        <pt x="684" y="806" on="1"/>
      </contour>
    </TTGlyph>
    <TTGlyph name="M" xMin="49" yMin="-30" xMax="1597" yMax="1458">
      <contour>
        <pt x="1597" y="1458" on="1"/>
        <pt x="1505" y="-10" on="1"/>
        <pt x="1049" y="-30" on="1"/>
        <pt x="1053" y="744" on="1"/>
        <pt x="847" y="120" on="1"/>
        <pt x="671" y="120" on="1"/>
        <pt x="513" y="678" on="1"/>
        <pt x="511" y="30" on="1"/>
        <pt x="49" y="16" on="1"/>
        <pt x="69" y="1398" on="1"/>
        <pt x="583" y="1418" on="1"/>
        <pt x="787" y="756" on="1"/>
        <pt x="1059" y="1458" on="1"/>
      </contour>
    </TTGlyph>
    <TTGlyph name="N" xMin="41" yMin="16" xMax="1411" yMax="1458">
      <contour>
        <pt x="1411" y="1434" on="1"/>
        <pt x="1339" y="78" on="1"/>
        <pt x="815" y="30" on="1"/>
        <pt x="535" y="756" on="1"/>
        <pt x="491" y="16" on="1"/>
        <pt x="41" y="16" on="1"/>
        <pt x="77" y="1434" on="1"/>
        <pt x="577" y="1458" on="1"/>
        <pt x="923" y="738" on="1"/>
        <pt x="939" y="1418" on="1"/>
      </contour>
    </TTGlyph>
    <TTGlyph name="Nacute" xMin="41" yMin="16" xMax="1411" yMax="1925">
      <component glyphName="N" x="0" y="0" flags="0x204"/>
      <component glyphName="acute" x="651" y="43" flags="0x4"/>
    </TTGlyph>
    <TTGlyph name="Ncaron" xMin="41" yMin="16" xMax="1411" yMax="1916">
      <component glyphName="N" x="0" y="0" flags="0x204"/>
      <component glyphName="caron" x="407" y="38" flags="0x4"/>
    </TTGlyph>
    <TTGlyph name="Ncommaaccent" xMin="41" yMin="-473" xMax="1411" yMax="1458">
      <component glyphName="N" x="0" y="0" flags="0x204"/>
      <component glyphName="uni0326" x="545" y="50" flags="0x4"/>
    </TTGlyph>
    <TTGlyph name="Ntilde" xMin="41" yMin="16" xMax="1411" yMax="1956">
      <component glyphName="N" x="0" y="0" flags="0x204"/>
      <component glyphName="tilde" x="325" y="164" flags="0x4"/>
    </TTGlyph>
    <TTGlyph name="O" xMin="17" yMin="38" xMax="1287" yMax="1346">
      <contour>
        <pt x="1287" y="706" on="1"/>
        <pt x="1287" y="615" on="0"/>
        <pt x="1245" y="446" on="0"/>
        <pt x="1166" y="298" on="0"/>
        <pt x="1053" y="175" on="0"/>
        <pt x="912" y="87" on="0"/>
        <pt x="746" y="38" on="0"/>
        <pt x="653" y="38" on="1"/>
        <pt x="563" y="38" on="0"/>
        <pt x="400" y="84" on="0"/>
        <pt x="258" y="167" on="0"/>
        <pt x="143" y="284" on="0"/>
        <pt x="62" y="427" on="0"/>
        <pt x="17" y="591" on="0"/>
        <pt x="17" y="680" on="1"/>
        <pt x="17" y="767" on="0"/>
        <pt x="59" y="934" on="0"/>
        <pt x="138" y="1082" on="0"/>
        <pt x="250" y="1206" on="0"/>
        <pt x="389" y="1296" on="0"/>
        <pt x="551" y="1346" on="0"/>
        <pt x="641" y="1346" on="1"/>
        <pt x="786" y="1346" on="0"/>
        <pt x="1025" y="1256" on="0"/>
        <pt x="1194" y="1089" on="0"/>
        <pt x="1287" y="852" on="0"/>
      </contour>
      <contour>
        <pt x="843" y="680" on="1"/>
        <pt x="843" y="723" on="0"/>
        <pt x="818" y="804" on="0"/>
        <pt x="770" y="867" on="0"/>
        <pt x="699" y="906" on="0"/>
        <pt x="653" y="906" on="1"/>
        <pt x="606" y="906" on="0"/>
        <pt x="532" y="872" on="0"/>
        <pt x="479" y="813" on="0"/>
        <pt x="451" y="734" on="0"/>
        <pt x="451" y="690" on="1"/>
        <pt x="451" y="648" on="0"/>
        <pt x="475" y="564" on="0"/>
        <pt x="523" y="496" on="0"/>
        <pt x="594" y="454" on="0"/>
        <pt x="641" y="454" on="1"/>
        <pt x="688" y="454" on="0"/>
        <pt x="763" y="491" on="0"/>
        <pt x="815" y="554" on="0"/>
        <pt x="843" y="636" on="0"/>
      </contour>
    </TTGlyph>
    <TTGlyph name="OE" xMin="14" yMin="0" xMax="1786" yMax="1442">
      <contour>
        <pt x="1786" y="1442" on="1"/>
        <pt x="1780" y="1348" on="0"/>
        <pt x="1770" y="1164" on="0"/>
        <pt x="1762" y="1070" on="1"/>
        <pt x="1338" y="1048" on="1"/>
        <pt x="1328" y="922" on="1"/>
        <pt x="1626" y="922" on="1"/>
        <pt x="1604" y="612" on="1"/>
        <pt x="1304" y="602" on="1"/>
        <pt x="1294" y="456" on="1"/>
        <pt x="1718" y="456" on="1"/>
        <pt x="1712" y="346" on="0"/>
        <pt x="1699" y="129" on="0"/>
        <pt x="1694" y="20" on="1"/>
        <pt x="832" y="0" on="1"/>
        <pt x="832" y="64" on="1"/>
        <pt x="790" y="52" on="0"/>
        <pt x="698" y="38" on="0"/>
        <pt x="650" y="38" on="1"/>
        <pt x="560" y="38" on="0"/>
        <pt x="397" y="84" on="0"/>
        <pt x="255" y="167" on="0"/>
        <pt x="140" y="284" on="0"/>
        <pt x="58" y="427" on="0"/>
        <pt x="14" y="591" on="0"/>
        <pt x="14" y="680" on="1"/>
        <pt x="14" y="767" on="0"/>
        <pt x="56" y="934" on="0"/>
        <pt x="135" y="1082" on="0"/>
        <pt x="247" y="1206" on="0"/>
        <pt x="386" y="1296" on="0"/>
        <pt x="548" y="1346" on="0"/>
        <pt x="638" y="1346" on="1"/>
        <pt x="698" y="1346" on="0"/>
        <pt x="809" y="1329" on="0"/>
        <pt x="860" y="1314" on="1"/>
        <pt x="864" y="1442" on="1"/>
      </contour>
      <contour>
        <pt x="840" y="680" on="1"/>
        <pt x="840" y="723" on="0"/>
        <pt x="815" y="804" on="0"/>
        <pt x="767" y="867" on="0"/>
        <pt x="696" y="906" on="0"/>
        <pt x="650" y="906" on="1"/>
        <pt x="603" y="906" on="0"/>
        <pt x="529" y="872" on="0"/>
        <pt x="476" y="813" on="0"/>
        <pt x="448" y="734" on="0"/>
        <pt x="448" y="690" on="1"/>
        <pt x="448" y="648" on="0"/>
        <pt x="472" y="564" on="0"/>
        <pt x="520" y="496" on="0"/>
        <pt x="591" y="454" on="0"/>
        <pt x="638" y="454" on="1"/>
        <pt x="685" y="454" on="0"/>
        <pt x="760" y="491" on="0"/>
        <pt x="812" y="554" on="0"/>
        <pt x="840" y="636" on="0"/>
      </contour>
    </TTGlyph>
    <TTGlyph name="Oacute" xMin="17" yMin="38" xMax="1287" yMax="1900">
      <component glyphName="O" x="0" y="0" flags="0x204"/>
      <component glyphName="acute" x="587" y="18" flags="0x4"/>
    </TTGlyph>
    <TTGlyph name="Obreve" xMin="17" yMin="38" xMax="1287" yMax="1835">
      <component glyphName="O" x="0" y="0" flags="0x204"/>
      <component glyphName="breve" x="338" y="1" flags="0x4"/>
    </TTGlyph>
    <TTGlyph name="Ocircumflex" xMin="17" yMin="38" xMax="1287" yMax="1820">
      <component glyphName="O" x="0" y="0" flags="0x204"/>
      <component glyphName="circumflex" x="297" y="60" flags="0x4"/>
    </TTGlyph>
    <TTGlyph name="Odieresis" xMin="17" yMin="38" xMax="1287" yMax="1709">
      <component glyphName="O" x="0" y="0" flags="0x204"/>
      <component glyphName="dieresis" x="299" y="-11" flags="0x4"/>
    </TTGlyph>
    <TTGlyph name="Ograve" xMin="17" yMin="38" xMax="1287" yMax="1932">
      <component glyphName="O" x="0" y="0" flags="0x204"/>
      <component glyphName="grave" x="105" y="38" flags="0x4"/>
    </TTGlyph>
    <TTGlyph name="Ohungarumlaut" xMin="17" yMin="38" xMax="1311" yMax="1944">
      <component glyphName="O" x="0" y="0" flags="0x204"/>
      <component glyphName="hungarumlaut" x="367" y="-8" flags="0x4"/>
    </TTGlyph>
    <TTGlyph name="Omacron" xMin="17" yMin="38" xMax="1287" yMax="1654">
      <component glyphName="O" x="0" y="0" flags="0x204"/>
      <component glyphName="macron" x="317" y="-96" flags="0x4"/>
    </TTGlyph>
    <TTGlyph name="Oslash" xMin="16" yMin="-118" xMax="1286" yMax="1460">
      <contour>
        <pt x="1148" y="1320" on="1"/>
        <pt x="1088" y="1190" on="1"/>
        <pt x="1183" y="1105" on="0"/>
        <pt x="1286" y="861" on="0"/>
        <pt x="1286" y="706" on="1"/>
        <pt x="1286" y="615" on="0"/>
        <pt x="1244" y="446" on="0"/>
        <pt x="1165" y="298" on="0"/>
        <pt x="1052" y="175" on="0"/>
        <pt x="911" y="87" on="0"/>
        <pt x="745" y="38" on="0"/>
        <pt x="652" y="38" on="1"/>
        <pt x="596" y="-118" on="1"/>
        <pt x="196" y="38" on="1"/>
        <pt x="252" y="178" on="1"/>
        <pt x="197" y="221" on="0"/>
        <pt x="110" y="332" on="0"/>
        <pt x="49" y="460" on="0"/>
        <pt x="16" y="603" on="0"/>
        <pt x="16" y="680" on="1"/>
        <pt x="16" y="767" on="0"/>
        <pt x="58" y="934" on="0"/>
        <pt x="137" y="1082" on="0"/>
        <pt x="249" y="1206" on="0"/>
        <pt x="388" y="1296" on="0"/>
        <pt x="550" y="1346" on="0"/>
        <pt x="640" y="1346" on="1"/>
        <pt x="673" y="1346" on="0"/>
        <pt x="736" y="1341" on="0"/>
        <pt x="766" y="1336" on="1"/>
        <pt x="828" y="1460" on="1"/>
      </contour>
      <contour>
        <pt x="450" y="690" on="1"/>
        <pt x="450" y="658" on="0"/>
        <pt x="462" y="595" on="0"/>
        <pt x="476" y="566" on="1"/>
        <pt x="624" y="904" on="1"/>
        <pt x="583" y="899" on="0"/>
        <pt x="519" y="861" on="0"/>
        <pt x="474" y="804" on="0"/>
        <pt x="450" y="730" on="0"/>
      </contour>
      <contour>
        <pt x="842" y="680" on="1"/>
        <pt x="842" y="704" on="0"/>
        <pt x="833" y="753" on="0"/>
        <pt x="824" y="776" on="1"/>
        <pt x="678" y="458" on="1"/>
        <pt x="716" y="465" on="0"/>
        <pt x="777" y="507" on="0"/>
        <pt x="819" y="567" on="0"/>
        <pt x="842" y="640" on="0"/>
      </contour>
    </TTGlyph>
    <TTGlyph name="Oslashacute" xMin="16" yMin="-118" xMax="1286" yMax="1906">
      <contour>
        <pt x="1148" y="1320" on="1"/>
        <pt x="1088" y="1190" on="1"/>
        <pt x="1183" y="1105" on="0"/>
        <pt x="1286" y="861" on="0"/>
        <pt x="1286" y="706" on="1"/>
        <pt x="1286" y="615" on="0"/>
        <pt x="1244" y="446" on="0"/>
        <pt x="1165" y="298" on="0"/>
        <pt x="1052" y="175" on="0"/>
        <pt x="911" y="87" on="0"/>
        <pt x="745" y="38" on="0"/>
        <pt x="652" y="38" on="1"/>
        <pt x="596" y="-118" on="1"/>
        <pt x="196" y="38" on="1"/>
        <pt x="252" y="178" on="1"/>
        <pt x="197" y="221" on="0"/>
        <pt x="110" y="332" on="0"/>
        <pt x="49" y="460" on="0"/>
        <pt x="16" y="603" on="0"/>
        <pt x="16" y="680" on="1"/>
        <pt x="16" y="767" on="0"/>
        <pt x="58" y="934" on="0"/>
        <pt x="137" y="1082" on="0"/>
        <pt x="249" y="1206" on="0"/>
        <pt x="388" y="1296" on="0"/>
        <pt x="550" y="1346" on="0"/>
        <pt x="640" y="1346" on="1"/>
        <pt x="673" y="1346" on="0"/>
        <pt x="736" y="1341" on="0"/>
        <pt x="766" y="1336" on="1"/>
        <pt x="828" y="1460" on="1"/>
      </contour>
      <contour>
        <pt x="450" y="690" on="1"/>
        <pt x="450" y="658" on="0"/>
        <pt x="462" y="595" on="0"/>
        <pt x="476" y="566" on="1"/>
        <pt x="624" y="904" on="1"/>
        <pt x="583" y="899" on="0"/>
        <pt x="519" y="861" on="0"/>
        <pt x="474" y="804" on="0"/>
        <pt x="450" y="730" on="0"/>
      </contour>
      <contour>
        <pt x="842" y="680" on="1"/>
        <pt x="842" y="704" on="0"/>
        <pt x="833" y="753" on="0"/>
        <pt x="824" y="776" on="1"/>
        <pt x="678" y="458" on="1"/>
        <pt x="716" y="465" on="0"/>
        <pt x="777" y="507" on="0"/>
        <pt x="819" y="567" on="0"/>
        <pt x="842" y="640" on="0"/>
      </contour>
      <contour>
        <pt x="1127" y="1666" on="1"/>
        <pt x="1008" y="1601" on="0"/>
        <pt x="782" y="1468" on="0"/>
        <pt x="669" y="1390" on="1"/>
        <pt x="541" y="1530" on="1"/>
        <pt x="561" y="1554" on="0"/>
        <pt x="617" y="1613" on="0"/>
        <pt x="680" y="1675" on="0"/>
        <pt x="748" y="1738" on="0"/>
        <pt x="780" y="1767" on="1"/>
        <pt x="856" y="1836" on="0"/>
        <pt x="939" y="1906" on="1"/>
      </contour>
    </TTGlyph>
    <TTGlyph name="Otilde" xMin="17" yMin="38" xMax="1287" yMax="1872">
      <component glyphName="O" x="0" y="0" flags="0x204"/>
      <component glyphName="tilde" x="251" y="80" flags="0x4"/>
    </TTGlyph>
    <TTGlyph name="P" xMin="54" yMin="-14" xMax="1216" yMax="1466">
      <contour>
        <pt x="1216" y="962" on="1"/>
        <pt x="1216" y="865" on="0"/>
        <pt x="1158" y="715" on="0"/>
        <pt x="1057" y="603" on="0"/>
        <pt x="921" y="525" on="0"/>
        <pt x="766" y="476" on="0"/>
        <pt x="600" y="453" on="0"/>
        <pt x="520" y="452" on="1"/>
        <pt x="520" y="-14" on="1"/>
        <pt x="54" y="-14" on="1"/>
        <pt x="54" y="215" on="0"/>
        <pt x="56" y="669" on="0"/>
        <pt x="58" y="900" on="1"/>
        <pt x="60" y="1022" on="0"/>
        <pt x="58" y="1266" on="0"/>
        <pt x="64" y="1390" on="1"/>
        <pt x="192" y="1428" on="0"/>
        <pt x="448" y="1466" on="0"/>
        <pt x="584" y="1466" on="1"/>
        <pt x="661" y="1466" on="0"/>
        <pt x="815" y="1441" on="0"/>
        <pt x="956" y="1387" on="0"/>
        <pt x="1077" y="1306" on="0"/>
        <pt x="1165" y="1194" on="0"/>
        <pt x="1216" y="1051" on="0"/>
      </contour>
      <contour>
        <pt x="772" y="928" on="1"/>
        <pt x="772" y="993" on="0"/>
        <pt x="693" y="1066" on="0"/>
        <pt x="630" y="1066" on="1"/>
        <pt x="609" y="1066" on="0"/>
        <pt x="564" y="1059" on="0"/>
        <pt x="544" y="1054" on="1"/>
        <pt x="532" y="762" on="1"/>
        <pt x="546" y="760" on="0"/>
        <pt x="572" y="760" on="0"/>
        <pt x="586" y="760" on="1"/>
        <pt x="622" y="760" on="0"/>
        <pt x="689" y="784" on="0"/>
        <pt x="741" y="829" on="0"/>
        <pt x="772" y="890" on="0"/>
      </contour>
    </TTGlyph>
    <TTGlyph name="Q" xMin="9" yMin="-188" xMax="1395" yMax="1426">
      <contour>
        <pt x="1395" y="744" on="1"/>
        <pt x="1395" y="592" on="0"/>
        <pt x="1282" y="316" on="0"/>
        <pt x="1169" y="212" on="1"/>
        <pt x="1307" y="48" on="1"/>
        <pt x="941" y="-188" on="1"/>
        <pt x="855" y="48" on="1"/>
        <pt x="817" y="40" on="0"/>
        <pt x="740" y="32" on="0"/>
        <pt x="701" y="32" on="1"/>
        <pt x="605" y="32" on="0"/>
        <pt x="429" y="80" on="0"/>
        <pt x="275" y="167" on="0"/>
        <pt x="149" y="291" on="0"/>
        <pt x="58" y="443" on="0"/>
        <pt x="9" y="620" on="0"/>
        <pt x="9" y="716" on="1"/>
        <pt x="9" y="811" on="0"/>
        <pt x="56" y="990" on="0"/>
        <pt x="143" y="1148" on="0"/>
        <pt x="266" y="1279" on="0"/>
        <pt x="418" y="1374" on="0"/>
        <pt x="594" y="1426" on="0"/>
        <pt x="691" y="1426" on="1"/>
        <pt x="846" y="1426" on="0"/>
        <pt x="1105" y="1332" on="0"/>
        <pt x="1291" y="1156" on="0"/>
        <pt x="1395" y="903" on="0"/>
      </contour>
      <contour>
        <pt x="909" y="716" on="1"/>
        <pt x="909" y="762" on="0"/>
        <pt x="882" y="849" on="0"/>
        <pt x="830" y="916" on="0"/>
        <pt x="752" y="956" on="0"/>
        <pt x="701" y="956" on="1"/>
        <pt x="651" y="956" on="0"/>
        <pt x="571" y="921" on="0"/>
        <pt x="514" y="859" on="0"/>
        <pt x="483" y="775" on="0"/>
        <pt x="483" y="726" on="1"/>
        <pt x="483" y="680" on="0"/>
        <pt x="510" y="591" on="0"/>
        <pt x="562" y="520" on="0"/>
        <pt x="640" y="476" on="0"/>
        <pt x="691" y="476" on="1"/>
        <pt x="740" y="476" on="0"/>
        <pt x="821" y="515" on="0"/>
        <pt x="878" y="581" on="0"/>
        <pt x="909" y="668" on="0"/>
      </contour>
    </TTGlyph>
    <TTGlyph name="R" xMin="43" yMin="10" xMax="1223" yMax="1466">
      <contour>
        <pt x="1223" y="964" on="1"/>
        <pt x="1223" y="886" on="0"/>
        <pt x="1196" y="759" on="0"/>
        <pt x="1138" y="653" on="0"/>
        <pt x="1046" y="563" on="0"/>
        <pt x="981" y="522" on="1"/>
        <pt x="1219" y="98" on="1"/>
        <pt x="769" y="10" on="1"/>
        <pt x="615" y="436" on="1"/>
        <pt x="491" y="432" on="1"/>
        <pt x="473" y="16" on="1"/>
        <pt x="43" y="16" on="1"/>
        <pt x="48" y="244" on="0"/>
        <pt x="57" y="696" on="0"/>
        <pt x="63" y="924" on="1"/>
        <pt x="65" y="1039" on="0"/>
        <pt x="69" y="1265" on="0"/>
        <pt x="75" y="1380" on="1"/>
        <pt x="145" y="1406" on="0"/>
        <pt x="281" y="1440" on="0"/>
        <pt x="418" y="1459" on="0"/>
        <pt x="559" y="1466" on="0"/>
        <pt x="633" y="1466" on="1"/>
        <pt x="747" y="1466" on="0"/>
        <pt x="960" y="1403" on="0"/>
        <pt x="1124" y="1277" on="0"/>
        <pt x="1223" y="1089" on="0"/>
      </contour>
      <contour>
        <pt x="775" y="932" on="1"/>
        <pt x="775" y="974" on="0"/>
        <pt x="752" y="1044" on="0"/>
        <pt x="707" y="1095" on="0"/>
        <pt x="640" y="1124" on="0"/>
        <pt x="595" y="1124" on="1"/>
        <pt x="575" y="1124" on="0"/>
        <pt x="537" y="1119" on="0"/>
        <pt x="519" y="1114" on="1"/>
        <pt x="503" y="742" on="1"/>
        <pt x="527" y="742" on="1"/>
        <pt x="570" y="742" on="0"/>
        <pt x="659" y="764" on="0"/>
        <pt x="730" y="810" on="0"/>
        <pt x="775" y="882" on="0"/>
      </contour>
    </TTGlyph>
    <TTGlyph name="Racute" xMin="43" yMin="10" xMax="1223" yMax="2004">
      <component glyphName="R" x="0" y="0" flags="0x204"/>
      <component glyphName="acute" x="564" y="122" flags="0x4"/>
    </TTGlyph>
    <TTGlyph name="Rcaron" xMin="43" yMin="10" xMax="1223" yMax="1954">
      <component glyphName="R" x="0" y="0" flags="0x204"/>
      <component glyphName="caron" x="265" y="76" flags="0x4"/>
    </TTGlyph>
    <TTGlyph name="Rcommaaccent" xMin="43" yMin="-493" xMax="1223" yMax="1466">
      <component glyphName="R" x="0" y="0" flags="0x204"/>
      <component glyphName="uni0326" x="455" y="30" flags="0x4"/>
    </TTGlyph>
    <TTGlyph name="S" xMin="27" yMin="-14" xMax="1075" yMax="1482">
      <contour>
        <pt x="1075" y="532" on="1"/>
        <pt x="1075" y="395" on="0"/>
        <pt x="980" y="190" on="0"/>
        <pt x="815" y="54" on="0"/>
        <pt x="594" y="-14" on="0"/>
        <pt x="467" y="-14" on="1"/>
        <pt x="418" y="-14" on="0"/>
        <pt x="301" y="12" on="0"/>
        <pt x="181" y="51" on="0"/>
        <pt x="70" y="96" on="0"/>
        <pt x="27" y="116" on="1"/>
        <pt x="71" y="528" on="1"/>
        <pt x="156" y="477" on="0"/>
        <pt x="363" y="424" on="0"/>
        <pt x="463" y="424" on="1"/>
        <pt x="482" y="424" on="0"/>
        <pt x="536" y="427" on="0"/>
        <pt x="585" y="442" on="0"/>
        <pt x="619" y="472" on="0"/>
        <pt x="619" y="500" on="1"/>
        <pt x="619" y="519" on="0"/>
        <pt x="595" y="546" on="0"/>
        <pt x="557" y="563" on="0"/>
        <pt x="509" y="572" on="0"/>
        <pt x="463" y="576" on="0"/>
        <pt x="423" y="576" on="0"/>
        <pt x="411" y="576" on="1"/>
        <pt x="325" y="576" on="0"/>
        <pt x="184" y="636" on="0"/>
        <pt x="83" y="743" on="0"/>
        <pt x="27" y="890" on="0"/>
        <pt x="27" y="976" on="1"/>
        <pt x="27" y="1094" on="0"/>
        <pt x="122" y="1281" on="0"/>
        <pt x="281" y="1412" on="0"/>
        <pt x="487" y="1482" on="0"/>
        <pt x="597" y="1482" on="1"/>
        <pt x="646" y="1482" on="0"/>
        <pt x="750" y="1475" on="0"/>
        <pt x="853" y="1457" on="0"/>
        <pt x="951" y="1429" on="0"/>
        <pt x="995" y="1408" on="1"/>
        <pt x="957" y="1002" on="1"/>
        <pt x="889" y="1025" on="0"/>
        <pt x="740" y="1056" on="0"/>
        <pt x="669" y="1056" on="1"/>
        <pt x="656" y="1056" on="0"/>
        <pt x="615" y="1055" on="0"/>
        <pt x="570" y="1050" on="0"/>
        <pt x="524" y="1040" on="0"/>
        <pt x="488" y="1023" on="0"/>
        <pt x="466" y="995" on="0"/>
        <pt x="467" y="976" on="1"/>
        <pt x="468" y="954" on="0"/>
        <pt x="499" y="927" on="0"/>
        <pt x="548" y="912" on="0"/>
        <pt x="607" y="906" on="0"/>
        <pt x="665" y="905" on="0"/>
        <pt x="715" y="906" on="0"/>
        <pt x="731" y="904" on="1"/>
        <pt x="811" y="899" on="0"/>
        <pt x="939" y="841" on="0"/>
        <pt x="1028" y="745" on="0"/>
        <pt x="1075" y="612" on="0"/>
      </contour>
    </TTGlyph>
    <TTGlyph name="Sacute" xMin="27" yMin="-14" xMax="1075" yMax="2031">
      <component glyphName="S" x="0" y="0" flags="0x204"/>
      <component glyphName="acute" x="366" y="149" flags="0x4"/>
    </TTGlyph>
    <TTGlyph name="Scaron" xMin="27" yMin="-14" xMax="1075" yMax="1982">
      <component glyphName="S" x="0" y="0" flags="0x204"/>
      <component glyphName="caron" x="195" y="104" flags="0x4"/>
    </TTGlyph>
    <TTGlyph name="Scedilla" xMin="27" yMin="-457" xMax="1075" yMax="1482">
      <contour>
        <pt x="773" y="-245" on="1"/>
        <pt x="773" y="-303" on="0"/>
        <pt x="736" y="-383" on="0"/>
        <pt x="670" y="-434" on="0"/>
        <pt x="580" y="-457" on="0"/>
        <pt x="527" y="-457" on="1"/>
        <pt x="508" y="-457" on="0"/>
        <pt x="460" y="-452" on="0"/>
        <pt x="411" y="-441" on="0"/>
        <pt x="365" y="-424" on="0"/>
        <pt x="349" y="-411" on="1"/>
        <pt x="437" y="-253" on="1"/>
        <pt x="449" y="-259" on="0"/>
        <pt x="481" y="-267" on="0"/>
        <pt x="495" y="-267" on="1"/>
        <pt x="513" y="-267" on="0"/>
        <pt x="549" y="-246" on="0"/>
        <pt x="549" y="-225" on="1"/>
        <pt x="549" y="-210" on="0"/>
        <pt x="531" y="-191" on="0"/>
        <pt x="504" y="-179" on="0"/>
        <pt x="474" y="-175" on="0"/>
        <pt x="463" y="-175" on="1"/>
        <pt x="443" y="-175" on="0"/>
        <pt x="403" y="-180" on="0"/>
        <pt x="383" y="-185" on="1"/>
        <pt x="391" y="-7" on="1"/>
        <pt x="345" y="0" on="0"/>
        <pt x="246" y="29" on="0"/>
        <pt x="150" y="63" on="0"/>
        <pt x="62" y="100" on="0"/>
        <pt x="27" y="116" on="1"/>
        <pt x="71" y="528" on="1"/>
        <pt x="156" y="477" on="0"/>
        <pt x="363" y="424" on="0"/>
        <pt x="463" y="424" on="1"/>
        <pt x="482" y="424" on="0"/>
        <pt x="536" y="427" on="0"/>
        <pt x="585" y="442" on="0"/>
        <pt x="619" y="472" on="0"/>
        <pt x="619" y="500" on="1"/>
        <pt x="619" y="519" on="0"/>
        <pt x="595" y="546" on="0"/>
        <pt x="557" y="563" on="0"/>
        <pt x="509" y="572" on="0"/>
        <pt x="463" y="576" on="0"/>
        <pt x="423" y="576" on="0"/>
        <pt x="411" y="576" on="1"/>
        <pt x="325" y="576" on="0"/>
        <pt x="184" y="636" on="0"/>
        <pt x="83" y="743" on="0"/>
        <pt x="27" y="890" on="0"/>
        <pt x="27" y="976" on="1"/>
        <pt x="27" y="1094" on="0"/>
        <pt x="122" y="1281" on="0"/>
        <pt x="281" y="1412" on="0"/>
        <pt x="487" y="1482" on="0"/>
        <pt x="597" y="1482" on="1"/>
        <pt x="646" y="1482" on="0"/>
        <pt x="750" y="1475" on="0"/>
        <pt x="853" y="1457" on="0"/>
        <pt x="951" y="1429" on="0"/>
        <pt x="995" y="1408" on="1"/>
        <pt x="957" y="1002" on="1"/>
        <pt x="889" y="1025" on="0"/>
        <pt x="740" y="1056" on="0"/>
        <pt x="669" y="1056" on="1"/>
        <pt x="656" y="1056" on="0"/>
        <pt x="615" y="1055" on="0"/>
        <pt x="570" y="1050" on="0"/>
        <pt x="524" y="1040" on="0"/>
        <pt x="488" y="1023" on="0"/>
        <pt x="466" y="995" on="0"/>
        <pt x="467" y="976" on="1"/>
        <pt x="468" y="954" on="0"/>
        <pt x="499" y="927" on="0"/>
        <pt x="548" y="912" on="0"/>
        <pt x="607" y="906" on="0"/>
        <pt x="665" y="905" on="0"/>
        <pt x="715" y="906" on="0"/>
        <pt x="731" y="904" on="1"/>
        <pt x="811" y="899" on="0"/>
        <pt x="939" y="841" on="0"/>
        <pt x="1028" y="745" on="0"/>
        <pt x="1075" y="612" on="0"/>
        <pt x="1075" y="532" on="1"/>
        <pt x="1075" y="409" on="0"/>
        <pt x="998" y="218" on="0"/>
        <pt x="862" y="83" on="0"/>
        <pt x="676" y="4" on="0"/>
        <pt x="567" y="-8" on="1"/>
        <pt x="567" y="-47" on="1"/>
        <pt x="611" y="-49" on="0"/>
        <pt x="687" y="-77" on="0"/>
        <pt x="742" y="-128" on="0"/>
        <pt x="773" y="-200" on="0"/>
      </contour>
    </TTGlyph>
    <TTGlyph name="Scircumflex" xMin="27" yMin="-14" xMax="1075" yMax="1938">
      <component glyphName="S" x="0" y="0" flags="0x204"/>
      <component glyphName="circumflex" x="198" y="178" flags="0x4"/>
    </TTGlyph>
    <TTGlyph name="T" xMin="6" yMin="24" xMax="1108" yMax="1430">
      <contour>
        <pt x="1108" y="1430" on="1"/>
        <pt x="1098" y="1006" on="1"/>
        <pt x="800" y="994" on="1"/>
        <pt x="724" y="46" on="1"/>
        <pt x="302" y="24" on="1"/>
        <pt x="304" y="972" on="1"/>
        <pt x="6" y="956" on="1"/>
        <pt x="18" y="1428" on="1"/>
      </contour>
    </TTGlyph>
    <TTGlyph name="Tbar" xMin="6" yMin="24" xMax="1108" yMax="1430">
      <contour>
        <pt x="860" y="466" on="1"/>
        <pt x="758" y="467" on="1"/>
        <pt x="724" y="46" on="1"/>
        <pt x="302" y="24" on="1"/>
        <pt x="303" y="473" on="1"/>
        <pt x="228" y="474" on="1"/>
        <pt x="210" y="712" on="1"/>
        <pt x="303" y="713" on="1"/>
        <pt x="304" y="972" on="1"/>
        <pt x="6" y="956" on="1"/>
        <pt x="18" y="1428" on="1"/>
        <pt x="1108" y="1430" on="1"/>
        <pt x="1098" y="1006" on="1"/>
        <pt x="800" y="994" on="1"/>
        <pt x="778" y="722" on="1"/>
        <pt x="864" y="724" on="1"/>
      </contour>
    </TTGlyph>
    <TTGlyph name="Tcaron" xMin="6" yMin="24" xMax="1108" yMax="1925">
      <component glyphName="T" x="0" y="0" flags="0x204"/>
      <component glyphName="caron" x="168" y="47" flags="0x4"/>
    </TTGlyph>
    <TTGlyph name="Tcommaaccent" xMin="6" yMin="-493" xMax="1108" yMax="1430">
      <component glyphName="T" x="0" y="0" flags="0x204"/>
      <component glyphName="uni0326" x="345" y="30" flags="0x4"/>
    </TTGlyph>
    <TTGlyph name="Thorn" xMin="58" yMin="-14" xMax="1220" yMax="1464">
      <contour>
        <pt x="58" y="1430" on="1"/>
        <pt x="582" y="1464" on="1"/>
        <pt x="570" y="1206" on="1"/>
        <pt x="588" y="1206" on="1"/>
        <pt x="665" y="1206" on="0"/>
        <pt x="819" y="1181" on="0"/>
        <pt x="960" y="1127" on="0"/>
        <pt x="1081" y="1046" on="0"/>
        <pt x="1169" y="934" on="0"/>
        <pt x="1220" y="790" on="0"/>
        <pt x="1220" y="702" on="1"/>
        <pt x="1220" y="605" on="0"/>
        <pt x="1162" y="455" on="0"/>
        <pt x="1061" y="342" on="0"/>
        <pt x="925" y="265" on="0"/>
        <pt x="770" y="216" on="0"/>
        <pt x="604" y="194" on="0"/>
        <pt x="524" y="192" on="1"/>
        <pt x="524" y="-14" on="1"/>
        <pt x="58" y="-14" on="1"/>
      </contour>
      <contour>
        <pt x="776" y="668" on="1"/>
        <pt x="776" y="733" on="0"/>
        <pt x="697" y="806" on="0"/>
        <pt x="634" y="806" on="1"/>
        <pt x="613" y="806" on="0"/>
        <pt x="568" y="799" on="0"/>
        <pt x="548" y="794" on="1"/>
        <pt x="536" y="502" on="1"/>
        <pt x="550" y="500" on="0"/>
        <pt x="576" y="500" on="0"/>
        <pt x="590" y="500" on="1"/>
        <pt x="626" y="500" on="0"/>
        <pt x="693" y="524" on="0"/>
        <pt x="745" y="569" on="0"/>
        <pt x="776" y="630" on="0"/>
      </contour>
    </TTGlyph>
    <TTGlyph name="U" xMin="33" yMin="-46" xMax="1247" yMax="1392">
      <contour>
        <pt x="1247" y="1112" on="1"/>
        <pt x="1247" y="1038" on="0"/>
        <pt x="1233" y="860" on="0"/>
        <pt x="1201" y="670" on="0"/>
        <pt x="1150" y="475" on="0"/>
        <pt x="1074" y="295" on="0"/>
        <pt x="973" y="138" on="0"/>
        <pt x="842" y="21" on="0"/>
        <pt x="680" y="-46" on="0"/>
        <pt x="581" y="-46" on="1"/>
        <pt x="465" y="-46" on="0"/>
        <pt x="294" y="29" on="0"/>
        <pt x="172" y="156" on="0"/>
        <pt x="94" y="325" on="0"/>
        <pt x="50" y="514" on="0"/>
        <pt x="33" y="711" on="0"/>
        <pt x="33" y="802" on="1"/>
        <pt x="33" y="942" on="0"/>
        <pt x="61" y="1221" on="0"/>
        <pt x="87" y="1360" on="1"/>
        <pt x="555" y="1342" on="1"/>
        <pt x="528" y="1185" on="0"/>
        <pt x="489" y="868" on="0"/>
        <pt x="489" y="708" on="1"/>
        <pt x="489" y="691" on="0"/>
        <pt x="492" y="624" on="0"/>
        <pt x="500" y="541" on="0"/>
        <pt x="515" y="454" on="0"/>
        <pt x="541" y="382" on="0"/>
        <pt x="578" y="336" on="0"/>
        <pt x="603" y="336" on="1"/>
        <pt x="632" y="336" on="0"/>
        <pt x="678" y="391" on="0"/>
        <pt x="713" y="483" on="0"/>
        <pt x="739" y="603" on="0"/>
        <pt x="757" y="733" on="0"/>
        <pt x="768" y="863" on="0"/>
        <pt x="775" y="975" on="0"/>
        <pt x="777" y="1061" on="0"/>
        <pt x="777" y="1082" on="1"/>
        <pt x="777" y="1160" on="0"/>
        <pt x="772" y="1315" on="0"/>
        <pt x="767" y="1392" on="1"/>
        <pt x="1235" y="1392" on="1"/>
        <pt x="1247" y="1254" on="0"/>
      </contour>
    </TTGlyph>
    <TTGlyph name="Uacute" xMin="33" yMin="-46" xMax="1247" yMax="1906">
      <component glyphName="U" x="0" y="0" flags="0x204"/>
      <component glyphName="acute" x="585" y="24" flags="0x4"/>
    </TTGlyph>
    <TTGlyph name="Ubreve" xMin="33" yMin="-46" xMax="1247" yMax="1858">
      <component glyphName="U" x="0" y="0" flags="0x204"/>
      <component glyphName="breve" x="342" y="24" flags="0x4"/>
    </TTGlyph>
    <TTGlyph name="Ucircumflex" xMin="33" yMin="-46" xMax="1247" yMax="1854">
      <component glyphName="U" x="0" y="0" flags="0x204"/>
      <component glyphName="circumflex" x="285" y="94" flags="0x4"/>
    </TTGlyph>
    <TTGlyph name="Udieresis" xMin="33" yMin="-46" xMax="1247" yMax="1744">
      <component glyphName="U" x="0" y="0" flags="0x204"/>
      <component glyphName="dieresis" x="287" y="24" flags="0x4"/>
    </TTGlyph>
    <TTGlyph name="Ugrave" xMin="33" yMin="-46" xMax="1247" yMax="1924">
      <component glyphName="U" x="0" y="0" flags="0x204"/>
      <component glyphName="grave" x="157" y="30" flags="0x4"/>
    </TTGlyph>
    <TTGlyph name="Uhungarumlaut" xMin="33" yMin="-46" xMax="1301" yMax="2041">
      <component glyphName="U" x="0" y="0" flags="0x204"/>
      <component glyphName="hungarumlaut" x="357" y="89" flags="0x4"/>
    </TTGlyph>
    <TTGlyph name="Umacron" xMin="33" yMin="-46" xMax="1247" yMax="1705">
      <component glyphName="U" x="0" y="0" flags="0x204"/>
      <component glyphName="macron" x="311" y="-45" flags="0x4"/>
    </TTGlyph>
    <TTGlyph name="Uogonek" xMin="33" yMin="-413" xMax="1247" yMax="1392">
      <contour>
        <pt x="838" y="-309" on="1"/>
        <pt x="794" y="-351" on="0"/>
        <pt x="684" y="-413" on="0"/>
        <pt x="622" y="-413" on="1"/>
        <pt x="576" y="-413" on="0"/>
        <pt x="495" y="-382" on="0"/>
        <pt x="434" y="-327" on="0"/>
        <pt x="398" y="-250" on="0"/>
        <pt x="398" y="-203" on="1"/>
        <pt x="398" y="-155" on="0"/>
        <pt x="434" y="-71" on="0"/>
        <pt x="463" y="-34" on="1"/>
        <pt x="373" y="-15" on="0"/>
        <pt x="239" y="77" on="0"/>
        <pt x="143" y="207" on="0"/>
        <pt x="82" y="367" on="0"/>
        <pt x="47" y="541" on="0"/>
        <pt x="33" y="719" on="0"/>
        <pt x="33" y="802" on="1"/>
        <pt x="33" y="942" on="0"/>
        <pt x="61" y="1221" on="0"/>
        <pt x="87" y="1360" on="1"/>
        <pt x="555" y="1342" on="1"/>
        <pt x="528" y="1185" on="0"/>
        <pt x="489" y="868" on="0"/>
        <pt x="489" y="708" on="1"/>
        <pt x="489" y="691" on="0"/>
        <pt x="492" y="624" on="0"/>
        <pt x="500" y="541" on="0"/>
        <pt x="515" y="454" on="0"/>
        <pt x="541" y="382" on="0"/>
        <pt x="578" y="336" on="0"/>
        <pt x="603" y="336" on="1"/>
        <pt x="632" y="336" on="0"/>
        <pt x="678" y="391" on="0"/>
        <pt x="713" y="483" on="0"/>
        <pt x="739" y="603" on="0"/>
        <pt x="757" y="733" on="0"/>
        <pt x="768" y="863" on="0"/>
        <pt x="775" y="975" on="0"/>
        <pt x="777" y="1061" on="0"/>
        <pt x="777" y="1082" on="1"/>
        <pt x="777" y="1160" on="0"/>
        <pt x="772" y="1315" on="0"/>
        <pt x="767" y="1392" on="1"/>
        <pt x="1235" y="1392" on="1"/>
        <pt x="1247" y="1254" on="0"/>
        <pt x="1247" y="1112" on="1"/>
        <pt x="1247" y="1043" on="0"/>
        <pt x="1235" y="880" on="0"/>
        <pt x="1208" y="704" on="0"/>
        <pt x="1164" y="524" on="0"/>
        <pt x="1101" y="352" on="0"/>
        <pt x="1016" y="197" on="0"/>
        <pt x="907" y="72" on="0"/>
        <pt x="772" y="-16" on="0"/>
        <pt x="690" y="-34" on="1"/>
        <pt x="676" y="-52" on="0"/>
        <pt x="649" y="-91" on="0"/>
        <pt x="628" y="-128" on="0"/>
        <pt x="616" y="-161" on="0"/>
        <pt x="616" y="-173" on="1"/>
        <pt x="616" y="-191" on="0"/>
        <pt x="642" y="-215" on="0"/>
        <pt x="660" y="-215" on="1"/>
        <pt x="680" y="-215" on="0"/>
        <pt x="728" y="-184" on="0"/>
        <pt x="740" y="-167" on="1"/>
      </contour>
    </TTGlyph>
    <TTGlyph name="Uring" xMin="33" yMin="-46" xMax="1247" yMax="2014">
      <component glyphName="U" x="0" y="0" flags="0x204"/>
      <component glyphName="ring" x="331" y="154" flags="0x4"/>
    </TTGlyph>
    <TTGlyph name="Utilde" xMin="33" yMin="-46" xMax="1247" yMax="1904">
      <component glyphName="U" x="0" y="0" flags="0x204"/>
      <component glyphName="tilde" x="238" y="112" flags="0x4"/>
    </TTGlyph>
    <TTGlyph name="V" xMin="-38" yMin="-18" xMax="1274" yMax="1432">
      <contour>
        <pt x="1274" y="1402" on="1"/>
        <pt x="908" y="10" on="1"/>
        <pt x="412" y="-18" on="1"/>
        <pt x="-38" y="1388" on="1"/>
        <pt x="436" y="1432" on="1"/>
        <pt x="628" y="612" on="1"/>
        <pt x="814" y="1432" on="1"/>
      </contour>
    </TTGlyph>
    <TTGlyph name="W" xMin="5" yMin="-10" xMax="1855" yMax="1432">
      <contour>
        <pt x="1855" y="1388" on="1"/>
        <pt x="1621" y="2" on="1"/>
        <pt x="1053" y="-10" on="1"/>
        <pt x="931" y="708" on="1"/>
        <pt x="809" y="42" on="1"/>
        <pt x="241" y="22" on="1"/>
        <pt x="5" y="1388" on="1"/>
        <pt x="501" y="1432" on="1"/>
        <pt x="601" y="602" on="1"/>
        <pt x="735" y="1432" on="1"/>
        <pt x="1125" y="1432" on="1"/>
        <pt x="1281" y="592" on="1"/>
        <pt x="1361" y="1432" on="1"/>
      </contour>
    </TTGlyph>
    <TTGlyph name="Wacute" xMin="5" yMin="-10" xMax="1855" yMax="1980">
      <component glyphName="W" x="0" y="0" flags="0x204"/>
      <component glyphName="acute" x="892" y="98" flags="0x4"/>
    </TTGlyph>
    <TTGlyph name="Wcircumflex" xMin="5" yMin="-10" xMax="1855" yMax="1905">
      <component glyphName="W" x="0" y="0" flags="0x204"/>
      <component glyphName="circumflex" x="570" y="145" flags="0x4"/>
    </TTGlyph>
    <TTGlyph name="Wdieresis" xMin="5" yMin="-10" xMax="1855" yMax="1800">
      <component glyphName="W" x="0" y="0" flags="0x204"/>
      <component glyphName="dieresis" x="576" y="80" flags="0x4"/>
    </TTGlyph>
    <TTGlyph name="Wgrave" xMin="5" yMin="-10" xMax="1855" yMax="1997">
      <component glyphName="W" x="0" y="0" flags="0x204"/>
      <component glyphName="grave" x="393" y="103" flags="0x4"/>
    </TTGlyph>
    <TTGlyph name="X" xMin="-45" yMin="2" xMax="1255" yMax="1458">
      <contour>
        <pt x="1255" y="1402" on="1"/>
        <pt x="865" y="724" on="1"/>
        <pt x="1197" y="134" on="1"/>
        <pt x="779" y="4" on="1"/>
        <pt x="599" y="412" on="1"/>
        <pt x="387" y="2" on="1"/>
        <pt x="-45" y="158" on="1"/>
        <pt x="323" y="738" on="1"/>
        <pt x="-13" y="1348" on="1"/>
        <pt x="445" y="1458" on="1"/>
        <pt x="609" y="1056" on="1"/>
        <pt x="783" y="1458" on="1"/>
      </contour>
    </TTGlyph>
    <TTGlyph name="Y" xMin="12" yMin="-40" xMax="1336" yMax="1388">
      <contour>
        <pt x="1336" y="1354" on="1"/>
        <pt x="786" y="586" on="1"/>
        <pt x="760" y="-40" on="1"/>
        <pt x="286" y="-40" on="1"/>
        <pt x="298" y="582" on="1"/>
        <pt x="12" y="1324" on="1"/>
        <pt x="522" y="1388" on="1"/>
        <pt x="602" y="956" on="1"/>
        <pt x="856" y="1388" on="1"/>
      </contour>
    </TTGlyph>
    <TTGlyph name="Yacute" xMin="12" yMin="-40" xMax="1336" yMax="1906">
      <component glyphName="Y" x="0" y="0" flags="0x204"/>
      <component glyphName="acute" x="626" y="24" flags="0x4"/>
    </TTGlyph>
    <TTGlyph name="Ycircumflex" xMin="12" yMin="-40" xMax="1336" yMax="1854">
      <component glyphName="Y" x="0" y="0" flags="0x204"/>
      <component glyphName="circumflex" x="308" y="94" flags="0x4"/>
    </TTGlyph>
    <TTGlyph name="Ydieresis" xMin="12" yMin="-40" xMax="1336" yMax="1772">
      <component glyphName="Y" x="0" y="0" flags="0x204"/>
      <component glyphName="dieresis" x="320" y="52" flags="0x4"/>
    </TTGlyph>
    <TTGlyph name="Ygrave" xMin="12" yMin="-40" xMax="1336" yMax="1908">
      <component glyphName="Y" x="0" y="0" flags="0x204"/>
      <component glyphName="grave" x="164" y="14" flags="0x4"/>
    </TTGlyph>
    <TTGlyph name="Z" xMin="12" yMin="20" xMax="966" yMax="1458">
      <contour>
        <pt x="966" y="1098" on="1"/>
        <pt x="508" y="480" on="1"/>
        <pt x="950" y="480" on="1"/>
        <pt x="944" y="56" on="1"/>
        <pt x="52" y="20" on="1"/>
        <pt x="12" y="412" on="1"/>
        <pt x="534" y="1092" on="1"/>
        <pt x="56" y="1056" on="1"/>
        <pt x="52" y="1458" on="1"/>
        <pt x="948" y="1458" on="1"/>
      </contour>
    </TTGlyph>
    <TTGlyph name="Zacute" xMin="12" yMin="20" xMax="986" yMax="2017">
      <component glyphName="Z" x="0" y="0" flags="0x204"/>
      <component glyphName="acute" x="400" y="135" flags="0x4"/>
    </TTGlyph>
    <TTGlyph name="Zcaron" xMin="12" yMin="20" xMax="966" yMax="1954">
      <component glyphName="Z" x="0" y="0" flags="0x204"/>
      <component glyphName="caron" x="134" y="76" flags="0x4"/>
    </TTGlyph>
    <TTGlyph name="Zdotaccent" xMin="12" yMin="20" xMax="966" yMax="1890">
      <component glyphName="Z" x="0" y="0" flags="0x204"/>
      <component glyphName="dotaccent" x="312" y="182" flags="0x4"/>
    </TTGlyph>
    <TTGlyph name="a" xMin="-32" yMin="22" xMax="1312" yMax="1432">
      <contour>
        <pt x="1312" y="86" on="1"/>
        <pt x="816" y="22" on="1"/>
        <pt x="756" y="248" on="1"/>
        <pt x="528" y="248" on="1"/>
        <pt x="478" y="22" on="1"/>
        <pt x="-32" y="72" on="1"/>
        <pt x="366" y="1404" on="1"/>
        <pt x="922" y="1432" on="1"/>
      </contour>
      <contour>
        <pt x="720" y="554" on="1"/>
        <pt x="644" y="902" on="1"/>
        <pt x="570" y="554" on="1"/>
      </contour>
    </TTGlyph>
    <TTGlyph name="aacute" xMin="-32" yMin="22" xMax="1312" yMax="1980">
      <component glyphName="a" x="0" y="0" flags="0x204"/>
      <component glyphName="acute" x="602" y="98" flags="0x4"/>
    </TTGlyph>
    <TTGlyph name="abreve" xMin="-32" yMin="22" xMax="1312" yMax="1904">
      <component glyphName="a" x="0" y="0" flags="0x204"/>
      <component glyphName="breve" x="345" y="70" flags="0x4"/>
    </TTGlyph>
    <TTGlyph name="acircumflex" xMin="-32" yMin="22" xMax="1312" yMax="1890">
      <component glyphName="a" x="0" y="0" flags="0x204"/>
      <component glyphName="circumflex" x="284" y="130" flags="0x4"/>
    </TTGlyph>
    <TTGlyph name="acute" xMin="0" yMin="1366" xMax="586" yMax="1882">
      <contour>
        <pt x="586" y="1642" on="1"/>
        <pt x="467" y="1577" on="0"/>
        <pt x="241" y="1444" on="0"/>
        <pt x="128" y="1366" on="1"/>
        <pt x="0" y="1506" on="1"/>
        <pt x="20" y="1530" on="0"/>
        <pt x="76" y="1589" on="0"/>
        <pt x="139" y="1651" on="0"/>
        <pt x="207" y="1714" on="0"/>
        <pt x="239" y="1743" on="1"/>
        <pt x="315" y="1812" on="0"/>
        <pt x="398" y="1882" on="1"/>
      </contour>
    </TTGlyph>
    <TTGlyph name="adieresis" xMin="-32" yMin="22" xMax="1312" yMax="1782">
      <component glyphName="a" x="0" y="0" flags="0x204"/>
      <component glyphName="dieresis" x="286" y="62" flags="0x4"/>
    </TTGlyph>
    <TTGlyph name="ae" xMin="-32" yMin="-24" xMax="1866" yMax="1448">
      <contour>
        <pt x="1866" y="808" on="1"/>
        <pt x="1866" y="721" on="0"/>
        <pt x="1854" y="634" on="1"/>
        <pt x="1683" y="623" on="0"/>
        <pt x="1346" y="574" on="0"/>
        <pt x="1178" y="550" on="1"/>
        <pt x="1184" y="528" on="1"/>
        <pt x="1211" y="465" on="0"/>
        <pt x="1319" y="392" on="0"/>
        <pt x="1390" y="392" on="1"/>
        <pt x="1430" y="392" on="0"/>
        <pt x="1525" y="422" on="0"/>
        <pt x="1619" y="467" on="0"/>
        <pt x="1705" y="519" on="0"/>
        <pt x="1736" y="540" on="1"/>
        <pt x="1688" y="86" on="1"/>
        <pt x="1649" y="56" on="0"/>
        <pt x="1558" y="14" on="0"/>
        <pt x="1460" y="-12" on="0"/>
        <pt x="1360" y="-24" on="0"/>
        <pt x="1312" y="-24" on="1"/>
        <pt x="1208" y="-24" on="0"/>
        <pt x="1024" y="24" on="0"/>
        <pt x="880" y="101" on="0"/>
        <pt x="784" y="198" on="0"/>
        <pt x="770" y="248" on="1"/>
        <pt x="532" y="248" on="1"/>
        <pt x="478" y="22" on="1"/>
        <pt x="-32" y="72" on="1"/>
        <pt x="366" y="1404" on="1"/>
        <pt x="922" y="1432" on="1"/>
        <pt x="960" y="1302" on="1"/>
        <pt x="1034" y="1370" on="0"/>
        <pt x="1226" y="1448" on="0"/>
        <pt x="1348" y="1448" on="1"/>
        <pt x="1437" y="1448" on="0"/>
        <pt x="1584" y="1399" on="0"/>
        <pt x="1699" y="1312" on="0"/>
        <pt x="1784" y="1192" on="0"/>
        <pt x="1839" y="1049" on="0"/>
        <pt x="1866" y="890" on="0"/>
      </contour>
      <contour>
        <pt x="1466" y="860" on="1"/>
        <pt x="1466" y="888" on="0"/>
        <pt x="1454" y="947" on="0"/>
        <pt x="1427" y="995" on="0"/>
        <pt x="1383" y="1026" on="0"/>
        <pt x="1350" y="1026" on="1"/>
        <pt x="1310" y="1026" on="0"/>
        <pt x="1249" y="983" on="0"/>
        <pt x="1205" y="918" on="0"/>
        <pt x="1177" y="842" on="0"/>
        <pt x="1170" y="810" on="1"/>
        <pt x="1466" y="838" on="1"/>
      </contour>
      <contour>
        <pt x="720" y="554" on="1"/>
        <pt x="644" y="902" on="1"/>
        <pt x="570" y="554" on="1"/>
      </contour>
    </TTGlyph>
    <TTGlyph name="aeacute" xMin="-32" yMin="-24" xMax="1866" yMax="1956">
      <component glyphName="ae" x="0" y="0" flags="0x204"/>
      <component glyphName="acute" x="884" y="74" flags="0x4"/>
    </TTGlyph>
    <TTGlyph name="agrave" xMin="-32" yMin="22" xMax="1312" yMax="1970">
      <component glyphName="a" x="0" y="0" flags="0x204"/>
      <component glyphName="grave" x="112" y="76" flags="0x4"/>
    </TTGlyph>
    <TTGlyph name="amacron" xMin="-32" yMin="22" xMax="1312" yMax="1750">
      <component glyphName="a" x="0" y="0" flags="0x204"/>
      <component glyphName="macron" x="314" y="0" flags="0x4"/>
    </TTGlyph>
    <TTGlyph name="ampersand" xMin="7" yMin="13" xMax="1316" yMax="1381">
      <contour>
        <pt x="1086" y="98" on="1"/>
        <pt x="1051" y="125" on="0"/>
        <pt x="981" y="175" on="0"/>
        <pt x="946" y="202" on="1"/>
        <pt x="897" y="163" on="0"/>
        <pt x="774" y="91" on="0"/>
        <pt x="634" y="39" on="0"/>
        <pt x="484" y="13" on="0"/>
        <pt x="408" y="20" on="1"/>
        <pt x="321" y="26" on="0"/>
        <pt x="170" y="83" on="0"/>
        <pt x="62" y="173" on="0"/>
        <pt x="7" y="289" on="0"/>
        <pt x="16" y="354" on="1"/>
        <pt x="24" y="409" on="0"/>
        <pt x="81" y="512" on="0"/>
        <pt x="163" y="606" on="0"/>
        <pt x="265" y="691" on="0"/>
        <pt x="318" y="728" on="1"/>
        <pt x="280" y="765" on="0"/>
        <pt x="213" y="848" on="0"/>
        <pt x="165" y="937" on="0"/>
        <pt x="142" y="1030" on="0"/>
        <pt x="150" y="1078" on="1"/>
        <pt x="160" y="1142" on="0"/>
        <pt x="246" y="1256" on="0"/>
        <pt x="378" y="1338" on="0"/>
        <pt x="543" y="1381" on="0"/>
        <pt x="632" y="1374" on="1"/>
        <pt x="714" y="1368" on="0"/>
        <pt x="855" y="1302" on="0"/>
        <pt x="955" y="1204" on="0"/>
        <pt x="1005" y="1085" on="0"/>
        <pt x="996" y="1026" on="1"/>
        <pt x="989" y="978" on="0"/>
        <pt x="941" y="894" on="0"/>
        <pt x="872" y="819" on="0"/>
        <pt x="787" y="750" on="0"/>
        <pt x="744" y="716" on="1"/>
        <pt x="786" y="684" on="0"/>
        <pt x="863" y="625" on="0"/>
        <pt x="904" y="596" on="1"/>
        <pt x="922" y="622" on="0"/>
        <pt x="956" y="678" on="0"/>
        <pt x="970" y="708" on="1"/>
        <pt x="1268" y="636" on="1"/>
        <pt x="1248" y="580" on="0"/>
        <pt x="1183" y="467" on="0"/>
        <pt x="1144" y="414" on="1"/>
        <pt x="1188" y="382" on="0"/>
        <pt x="1272" y="324" on="0"/>
        <pt x="1316" y="292" on="1"/>
      </contour>
      <contour>
        <pt x="622" y="1046" on="1"/>
        <pt x="625" y="1081" on="0"/>
        <pt x="594" y="1125" on="0"/>
        <pt x="562" y="1128" on="1"/>
        <pt x="529" y="1133" on="0"/>
        <pt x="481" y="1096" on="0"/>
        <pt x="478" y="1060" on="1"/>
        <pt x="476" y="1037" on="0"/>
        <pt x="486" y="990" on="0"/>
        <pt x="505" y="945" on="0"/>
        <pt x="529" y="904" on="0"/>
        <pt x="540" y="888" on="1"/>
        <pt x="553" y="903" on="0"/>
        <pt x="580" y="941" on="0"/>
        <pt x="603" y="983" on="0"/>
        <pt x="620" y="1026" on="0"/>
      </contour>
      <contour>
        <pt x="654" y="390" on="1"/>
        <pt x="624" y="426" on="0"/>
        <pt x="560" y="502" on="0"/>
        <pt x="530" y="538" on="1"/>
        <pt x="517" y="524" on="0"/>
        <pt x="485" y="484" on="0"/>
        <pt x="456" y="439" on="0"/>
        <pt x="434" y="392" on="0"/>
        <pt x="432" y="370" on="1"/>
        <pt x="430" y="341" on="0"/>
        <pt x="467" y="293" on="0"/>
        <pt x="496" y="290" on="1"/>
        <pt x="517" y="287" on="0"/>
        <pt x="562" y="306" on="0"/>
        <pt x="604" y="338" on="0"/>
        <pt x="641" y="375" on="0"/>
      </contour>
    </TTGlyph>
    <TTGlyph name="aogonek" xMin="-32" yMin="-345" xMax="1312" yMax="1432">
      <contour>
        <pt x="1284" y="-241" on="1"/>
        <pt x="1240" y="-283" on="0"/>
        <pt x="1130" y="-345" on="0"/>
        <pt x="1068" y="-345" on="1"/>
        <pt x="1022" y="-345" on="0"/>
        <pt x="941" y="-314" on="0"/>
        <pt x="880" y="-259" on="0"/>
        <pt x="844" y="-182" on="0"/>
        <pt x="844" y="-135" on="1"/>
        <pt x="844" y="-87" on="0"/>
        <pt x="880" y="-3" on="0"/>
        <pt x="909" y="34" on="1"/>
        <pt x="816" y="22" on="1"/>
        <pt x="756" y="248" on="1"/>
        <pt x="528" y="248" on="1"/>
        <pt x="478" y="22" on="1"/>
        <pt x="-32" y="72" on="1"/>
        <pt x="366" y="1404" on="1"/>
        <pt x="922" y="1432" on="1"/>
        <pt x="1312" y="86" on="1"/>
        <pt x="1161" y="66" on="1"/>
        <pt x="1145" y="45" on="0"/>
        <pt x="1110" y="-2" on="0"/>
        <pt x="1081" y="-48" on="0"/>
        <pt x="1062" y="-90" on="0"/>
        <pt x="1062" y="-105" on="1"/>
        <pt x="1062" y="-123" on="0"/>
        <pt x="1088" y="-147" on="0"/>
        <pt x="1106" y="-147" on="1"/>
        <pt x="1126" y="-147" on="0"/>
        <pt x="1174" y="-116" on="0"/>
        <pt x="1186" y="-99" on="1"/>
      </contour>
      <contour>
        <pt x="720" y="554" on="1"/>
        <pt x="644" y="902" on="1"/>
        <pt x="570" y="554" on="1"/>
      </contour>
    </TTGlyph>
    <TTGlyph name="approxequal" xMin="59" yMin="154" xMax="1171" yMax="1198">
      <contour>
        <pt x="1171" y="464" on="1"/>
        <pt x="1149" y="402" on="0"/>
        <pt x="1079" y="289" on="0"/>
        <pt x="982" y="204" on="0"/>
        <pt x="859" y="154" on="0"/>
        <pt x="785" y="154" on="1"/>
        <pt x="739" y="154" on="0"/>
        <pt x="666" y="177" on="0"/>
        <pt x="606" y="210" on="0"/>
        <pt x="555" y="250" on="0"/>
        <pt x="509" y="283" on="0"/>
        <pt x="465" y="306" on="0"/>
        <pt x="441" y="306" on="1"/>
        <pt x="425" y="306" on="0"/>
        <pt x="387" y="300" on="0"/>
        <pt x="347" y="275" on="0"/>
        <pt x="306" y="225" on="0"/>
        <pt x="287" y="182" on="1"/>
        <pt x="59" y="464" on="1"/>
        <pt x="85" y="502" on="0"/>
        <pt x="148" y="579" on="0"/>
        <pt x="232" y="641" on="0"/>
        <pt x="341" y="680" on="0"/>
        <pt x="413" y="680" on="1"/>
        <pt x="484" y="680" on="0"/>
        <pt x="586" y="642" on="0"/>
        <pt x="663" y="596" on="0"/>
        <pt x="724" y="558" on="0"/>
        <pt x="755" y="558" on="1"/>
        <pt x="770" y="558" on="0"/>
        <pt x="815" y="565" on="0"/>
        <pt x="862" y="587" on="0"/>
        <pt x="902" y="627" on="0"/>
        <pt x="913" y="660" on="1"/>
      </contour>
      <contour>
        <pt x="1171" y="982" on="1"/>
        <pt x="1149" y="920" on="0"/>
        <pt x="1079" y="807" on="0"/>
        <pt x="982" y="722" on="0"/>
        <pt x="859" y="672" on="0"/>
        <pt x="785" y="672" on="1"/>
        <pt x="739" y="672" on="0"/>
        <pt x="666" y="695" on="0"/>
        <pt x="606" y="728" on="0"/>
        <pt x="555" y="768" on="0"/>
        <pt x="509" y="801" on="0"/>
        <pt x="465" y="824" on="0"/>
        <pt x="441" y="824" on="1"/>
        <pt x="425" y="824" on="0"/>
        <pt x="387" y="818" on="0"/>
        <pt x="347" y="793" on="0"/>
        <pt x="306" y="743" on="0"/>
        <pt x="287" y="700" on="1"/>
        <pt x="59" y="982" on="1"/>
        <pt x="85" y="1020" on="0"/>
        <pt x="148" y="1097" on="0"/>
        <pt x="232" y="1159" on="0"/>
        <pt x="341" y="1198" on="0"/>
        <pt x="413" y="1198" on="1"/>
        <pt x="484" y="1198" on="0"/>
        <pt x="586" y="1160" on="0"/>
        <pt x="663" y="1114" on="0"/>
        <pt x="724" y="1076" on="0"/>
        <pt x="755" y="1076" on="1"/>
        <pt x="770" y="1076" on="0"/>
        <pt x="815" y="1083" on="0"/>
        <pt x="862" y="1105" on="0"/>
        <pt x="902" y="1145" on="0"/>
        <pt x="913" y="1178" on="1"/>
      </contour>
    </TTGlyph>
    <TTGlyph name="aring" xMin="-39" yMin="22" xMax="1305" yMax="1860">
      <contour>
        <pt x="935" y="1568" on="1"/>
        <pt x="935" y="1495" on="0"/>
        <pt x="901" y="1430" on="1"/>
        <pt x="915" y="1432" on="1"/>
        <pt x="1305" y="86" on="1"/>
        <pt x="809" y="22" on="1"/>
        <pt x="749" y="248" on="1"/>
        <pt x="521" y="248" on="1"/>
        <pt x="471" y="22" on="1"/>
        <pt x="-39" y="72" on="1"/>
        <pt x="359" y="1404" on="1"/>
        <pt x="379" y="1404" on="1"/>
        <pt x="355" y="1439" on="0"/>
        <pt x="329" y="1521" on="0"/>
        <pt x="329" y="1568" on="1"/>
        <pt x="329" y="1629" on="0"/>
        <pt x="377" y="1735" on="0"/>
        <pt x="458" y="1814" on="0"/>
        <pt x="567" y="1860" on="0"/>
        <pt x="629" y="1860" on="1"/>
        <pt x="693" y="1860" on="0"/>
        <pt x="804" y="1814" on="0"/>
        <pt x="887" y="1735" on="0"/>
        <pt x="935" y="1629" on="0"/>
      </contour>
      <contour>
        <pt x="729" y="1562" on="1"/>
        <pt x="729" y="1584" on="0"/>
        <pt x="716" y="1625" on="0"/>
        <pt x="694" y="1656" on="0"/>
        <pt x="663" y="1674" on="0"/>
        <pt x="645" y="1674" on="1"/>
        <pt x="627" y="1674" on="0"/>
        <pt x="595" y="1656" on="0"/>
        <pt x="571" y="1625" on="0"/>
        <pt x="557" y="1584" on="0"/>
        <pt x="557" y="1562" on="1"/>
        <pt x="557" y="1538" on="0"/>
        <pt x="571" y="1496" on="0"/>
        <pt x="595" y="1466" on="0"/>
        <pt x="627" y="1448" on="0"/>
        <pt x="645" y="1448" on="1"/>
        <pt x="681" y="1448" on="0"/>
        <pt x="729" y="1514" on="0"/>
      </contour>
      <contour>
        <pt x="713" y="554" on="1"/>
        <pt x="637" y="902" on="1"/>
        <pt x="563" y="554" on="1"/>
      </contour>
    </TTGlyph>
    <TTGlyph name="asciicircum" xMin="0" yMin="643" xMax="994" yMax="1444">
      <contour>
        <pt x="624" y="644" on="1"/>
        <pt x="623" y="643" on="0"/>
        <pt x="606" y="703" on="0"/>
        <pt x="580" y="792" on="0"/>
        <pt x="550" y="897" on="0"/>
        <pt x="525" y="988" on="0"/>
        <pt x="508" y="1049" on="0"/>
        <pt x="508" y="1050" on="1"/>
        <pt x="472" y="958" on="0"/>
        <pt x="406" y="771" on="0"/>
        <pt x="376" y="676" on="1"/>
        <pt x="0" y="764" on="1"/>
        <pt x="23" y="819" on="0"/>
        <pt x="88" y="962" on="0"/>
        <pt x="160" y="1112" on="0"/>
        <pt x="230" y="1255" on="0"/>
        <pt x="286" y="1367" on="0"/>
        <pt x="321" y="1436" on="0"/>
        <pt x="322" y="1436" on="1"/>
        <pt x="698" y="1444" on="1"/>
        <pt x="697" y="1443" on="0"/>
        <pt x="729" y="1369" on="0"/>
        <pt x="780" y="1248" on="0"/>
        <pt x="845" y="1094" on="0"/>
        <pt x="911" y="933" on="0"/>
        <pt x="972" y="779" on="0"/>
        <pt x="994" y="718" on="1"/>
      </contour>
    </TTGlyph>
    <TTGlyph name="asciitilde" xMin="30" yMin="414" xMax="1156" yMax="1114">
      <contour>
        <pt x="1084" y="1114" on="1"/>
        <pt x="1116" y="1045" on="0"/>
        <pt x="1156" y="898" on="0"/>
        <pt x="1156" y="824" on="1"/>
        <pt x="1156" y="744" on="0"/>
        <pt x="1098" y="596" on="0"/>
        <pt x="995" y="482" on="0"/>
        <pt x="853" y="414" on="0"/>
        <pt x="770" y="414" on="1"/>
        <pt x="713" y="414" on="0"/>
        <pt x="631" y="457" on="0"/>
        <pt x="571" y="522" on="0"/>
        <pt x="526" y="598" on="0"/>
        <pt x="488" y="663" on="0"/>
        <pt x="450" y="706" on="0"/>
        <pt x="426" y="706" on="1"/>
        <pt x="410" y="706" on="0"/>
        <pt x="389" y="690" on="0"/>
        <pt x="377" y="666" on="0"/>
        <pt x="372" y="638" on="0"/>
        <pt x="372" y="626" on="1"/>
        <pt x="372" y="584" on="0"/>
        <pt x="401" y="499" on="0"/>
        <pt x="416" y="460" on="1"/>
        <pt x="72" y="416" on="1"/>
        <pt x="54" y="482" on="0"/>
        <pt x="30" y="614" on="0"/>
        <pt x="30" y="680" on="1"/>
        <pt x="30" y="768" on="0"/>
        <pt x="79" y="916" on="0"/>
        <pt x="173" y="1021" on="0"/>
        <pt x="310" y="1080" on="0"/>
        <pt x="398" y="1080" on="1"/>
        <pt x="465" y="1080" on="0"/>
        <pt x="557" y="1041" on="0"/>
        <pt x="620" y="983" on="0"/>
        <pt x="659" y="915" on="0"/>
        <pt x="690" y="857" on="0"/>
        <pt x="719" y="818" on="0"/>
        <pt x="740" y="818" on="1"/>
        <pt x="755" y="818" on="0"/>
        <pt x="778" y="831" on="0"/>
        <pt x="794" y="852" on="0"/>
        <pt x="802" y="878" on="0"/>
        <pt x="802" y="890" on="1"/>
        <pt x="802" y="931" on="0"/>
        <pt x="759" y="1010" on="0"/>
        <pt x="738" y="1042" on="1"/>
      </contour>
    </TTGlyph>
    <TTGlyph name="asterisk" xMin="41" yMin="458" xMax="1051" yMax="1472">
      <contour>
        <pt x="811" y="920" on="1"/>
        <pt x="1001" y="684" on="1"/>
        <pt x="741" y="474" on="1"/>
        <pt x="553" y="760" on="1"/>
        <pt x="371" y="458" on="1"/>
        <pt x="111" y="658" on="1"/>
        <pt x="293" y="880" on="1"/>
        <pt x="41" y="978" on="1"/>
        <pt x="163" y="1268" on="1"/>
        <pt x="375" y="1162" on="1"/>
        <pt x="369" y="1460" on="1"/>
        <pt x="701" y="1472" on="1"/>
        <pt x="689" y="1150" on="1"/>
        <pt x="903" y="1310" on="1"/>
        <pt x="1051" y="1014" on="1"/>
      </contour>
    </TTGlyph>
    <TTGlyph name="at" xMin="66" yMin="110" xMax="1316" yMax="1302">
      <contour>
        <pt x="1316" y="768" on="1"/>
        <pt x="1316" y="576" on="0"/>
        <pt x="1157" y="378" on="0"/>
        <pt x="1002" y="376" on="1"/>
        <pt x="943" y="374" on="0"/>
        <pt x="855" y="393" on="0"/>
        <pt x="795" y="422" on="0"/>
        <pt x="762" y="456" on="0"/>
        <pt x="758" y="470" on="1"/>
        <pt x="737" y="437" on="0"/>
        <pt x="670" y="414" on="0"/>
        <pt x="638" y="414" on="1"/>
        <pt x="588" y="414" on="0"/>
        <pt x="499" y="442" on="0"/>
        <pt x="433" y="501" on="0"/>
        <pt x="394" y="592" on="0"/>
        <pt x="394" y="654" on="1"/>
        <pt x="394" y="711" on="0"/>
        <pt x="431" y="796" on="0"/>
        <pt x="497" y="853" on="0"/>
        <pt x="586" y="882" on="0"/>
        <pt x="638" y="882" on="1"/>
        <pt x="677" y="882" on="0"/>
        <pt x="751" y="843" on="0"/>
        <pt x="774" y="796" on="1"/>
        <pt x="774" y="898" on="1"/>
        <pt x="986" y="900" on="1"/>
        <pt x="980" y="538" on="1"/>
        <pt x="1006" y="542" on="1"/>
        <pt x="1021" y="546" on="0"/>
        <pt x="1033" y="564" on="1"/>
        <pt x="1043" y="579" on="0"/>
        <pt x="1060" y="643" on="0"/>
        <pt x="1060" y="700" on="1"/>
        <pt x="1060" y="789" on="0"/>
        <pt x="1008" y="915" on="0"/>
        <pt x="910" y="995" on="0"/>
        <pt x="768" y="1032" on="0"/>
        <pt x="678" y="1032" on="1"/>
        <pt x="580" y="1031" on="0"/>
        <pt x="503" y="994" on="1"/>
        <pt x="470" y="978" on="0"/>
        <pt x="407" y="928" on="0"/>
        <pt x="358" y="853" on="0"/>
        <pt x="328" y="749" on="0"/>
        <pt x="328" y="680" on="1"/>
        <pt x="328" y="595" on="0"/>
        <pt x="365" y="475" on="0"/>
        <pt x="425" y="394" on="0"/>
        <pt x="502" y="347" on="0"/>
        <pt x="543" y="335" on="1"/>
        <pt x="637" y="308" on="0"/>
        <pt x="758" y="330" on="1"/>
        <pt x="758" y="140" on="1"/>
        <pt x="614" y="110" on="0"/>
        <pt x="362" y="156" on="0"/>
        <pt x="174" y="296" on="0"/>
        <pt x="66" y="522" on="0"/>
        <pt x="66" y="672" on="1"/>
        <pt x="66" y="819" on="0"/>
        <pt x="144" y="1027" on="0"/>
        <pt x="267" y="1167" on="0"/>
        <pt x="418" y="1248" on="0"/>
        <pt x="566" y="1290" on="0"/>
        <pt x="693" y="1302" on="0"/>
        <pt x="730" y="1302" on="1"/>
        <pt x="865" y="1302" on="0"/>
        <pt x="1082" y="1218" on="0"/>
        <pt x="1234" y="1074" on="0"/>
        <pt x="1316" y="879" on="0"/>
      </contour>
      <contour>
        <pt x="614" y="662" on="1"/>
        <pt x="614" y="624" on="0"/>
        <pt x="645" y="574" on="0"/>
        <pt x="678" y="574" on="1"/>
        <pt x="711" y="574" on="0"/>
        <pt x="754" y="624" on="0"/>
        <pt x="754" y="662" on="1"/>
        <pt x="754" y="697" on="0"/>
        <pt x="711" y="730" on="0"/>
        <pt x="678" y="730" on="1"/>
        <pt x="614" y="730" on="0"/>
      </contour>
    </TTGlyph>
    <TTGlyph name="atilde" xMin="-32" yMin="22" xMax="1312" yMax="1936">
      <component glyphName="a" x="0" y="0" flags="0x204"/>
      <component glyphName="tilde" x="240" y="144" flags="0x4"/>
    </TTGlyph>
    <TTGlyph name="b" xMin="53" yMin="-24" xMax="1215" yMax="1458">
      <contour>
        <pt x="1215" y="356" on="1"/>
        <pt x="1215" y="273" on="0"/>
        <pt x="1154" y="153" on="0"/>
        <pt x="1052" y="69" on="0"/>
        <pt x="919" y="16" on="0"/>
        <pt x="775" y="-14" on="0"/>
        <pt x="630" y="-24" on="0"/>
        <pt x="567" y="-24" on="1"/>
        <pt x="505" y="-24" on="0"/>
        <pt x="372" y="-15" on="0"/>
        <pt x="240" y="7" on="0"/>
        <pt x="112" y="44" on="0"/>
        <pt x="55" y="72" on="1"/>
        <pt x="53" y="1360" on="1"/>
        <pt x="109" y="1383" on="0"/>
        <pt x="235" y="1420" on="0"/>
        <pt x="366" y="1445" on="0"/>
        <pt x="496" y="1458" on="0"/>
        <pt x="557" y="1458" on="1"/>
        <pt x="628" y="1458" on="0"/>
        <pt x="773" y="1440" on="0"/>
        <pt x="907" y="1398" on="0"/>
        <pt x="1023" y="1331" on="0"/>
        <pt x="1110" y="1233" on="0"/>
        <pt x="1159" y="1103" on="0"/>
        <pt x="1159" y="1018" on="1"/>
        <pt x="1159" y="962" on="0"/>
        <pt x="1127" y="864" on="0"/>
        <pt x="1067" y="786" on="0"/>
        <pt x="981" y="731" on="0"/>
        <pt x="927" y="718" on="1"/>
        <pt x="992" y="701" on="0"/>
        <pt x="1099" y="635" on="0"/>
        <pt x="1174" y="541" on="0"/>
        <pt x="1215" y="423" on="0"/>
      </contour>
      <contour>
        <pt x="707" y="926" on="1"/>
        <pt x="707" y="955" on="0"/>
        <pt x="683" y="996" on="0"/>
        <pt x="648" y="1022" on="0"/>
        <pt x="607" y="1034" on="0"/>
        <pt x="591" y="1034" on="1"/>
        <pt x="571" y="1034" on="0"/>
        <pt x="533" y="1022" on="0"/>
        <pt x="515" y="1014" on="1"/>
        <pt x="509" y="792" on="1"/>
        <pt x="532" y="792" on="0"/>
        <pt x="600" y="800" on="0"/>
        <pt x="663" y="827" on="0"/>
        <pt x="707" y="880" on="0"/>
      </contour>
      <contour>
        <pt x="565" y="600" on="1"/>
        <pt x="536" y="600" on="0"/>
        <pt x="509" y="594" on="1"/>
        <pt x="505" y="366" on="1"/>
        <pt x="520" y="363" on="0"/>
        <pt x="549" y="358" on="0"/>
        <pt x="563" y="358" on="1"/>
        <pt x="584" y="358" on="0"/>
        <pt x="634" y="367" on="0"/>
        <pt x="678" y="394" on="0"/>
        <pt x="707" y="440" on="0"/>
        <pt x="707" y="478" on="1"/>
        <pt x="707" y="516" on="0"/>
        <pt x="678" y="564" on="0"/>
        <pt x="636" y="591" on="0"/>
        <pt x="586" y="600" on="0"/>
      </contour>
    </TTGlyph>
    <TTGlyph name="backslash" xMin="43" yMin="-78" xMax="995" yMax="1500">
      <contour>
        <pt x="675" y="-78" on="1"/>
        <pt x="581" y="92" on="0"/>
        <pt x="415" y="444" on="0"/>
        <pt x="262" y="801" on="0"/>
        <pt x="116" y="1163" on="0"/>
        <pt x="43" y="1344" on="1"/>
        <pt x="443" y="1500" on="1"/>
        <pt x="561" y="1132" on="0"/>
        <pt x="834" y="411" on="0"/>
        <pt x="995" y="62" on="1"/>
      </contour>
    </TTGlyph>
    <TTGlyph name="bar" xMin="69" yMin="-144" xMax="517" yMax="1552">
      <contour>
        <pt x="73" y="-144" on="1"/>
        <pt x="69" y="1552" on="1"/>
        <pt x="517" y="1542" on="1"/>
        <pt x="517" y="-144" on="1"/>
      </contour>
    </TTGlyph>
    <TTGlyph name="braceleft" xMin="-6" yMin="-180" xMax="892" yMax="1580">
      <contour>
        <pt x="784" y="1244" on="1"/>
        <pt x="731" y="1266" on="0"/>
        <pt x="672" y="1266" on="1"/>
        <pt x="610" y="1266" on="0"/>
        <pt x="550" y="1220" on="0"/>
        <pt x="550" y="1176" on="1"/>
        <pt x="550" y="1142" on="0"/>
        <pt x="569" y="1078" on="0"/>
        <pt x="591" y="1015" on="0"/>
        <pt x="610" y="951" on="0"/>
        <pt x="610" y="918" on="1"/>
        <pt x="610" y="835" on="0"/>
        <pt x="493" y="754" on="0"/>
        <pt x="386" y="754" on="1"/>
        <pt x="439" y="743" on="0"/>
        <pt x="528" y="693" on="0"/>
        <pt x="591" y="626" on="0"/>
        <pt x="626" y="546" on="0"/>
        <pt x="626" y="506" on="1"/>
        <pt x="626" y="472" on="0"/>
        <pt x="603" y="407" on="0"/>
        <pt x="575" y="343" on="0"/>
        <pt x="552" y="278" on="0"/>
        <pt x="552" y="244" on="1"/>
        <pt x="552" y="212" on="0"/>
        <pt x="594" y="161" on="0"/>
        <pt x="659" y="125" on="0"/>
        <pt x="738" y="104" on="0"/>
        <pt x="776" y="100" on="1"/>
        <pt x="628" y="-178" on="1"/>
        <pt x="544" y="-180" on="0"/>
        <pt x="385" y="-125" on="0"/>
        <pt x="262" y="-33" on="0"/>
        <pt x="188" y="86" on="0"/>
        <pt x="188" y="148" on="1"/>
        <pt x="188" y="183" on="0"/>
        <pt x="212" y="251" on="0"/>
        <pt x="242" y="318" on="0"/>
        <pt x="266" y="386" on="0"/>
        <pt x="266" y="422" on="1"/>
        <pt x="266" y="459" on="0"/>
        <pt x="216" y="520" on="0"/>
        <pt x="137" y="560" on="0"/>
        <pt x="40" y="578" on="0"/>
        <pt x="-6" y="574" on="1"/>
        <pt x="4" y="850" on="1"/>
        <pt x="15" y="848" on="0"/>
        <pt x="31" y="848" on="0"/>
        <pt x="42" y="848" on="1"/>
        <pt x="82" y="848" on="0"/>
        <pt x="154" y="867" on="0"/>
        <pt x="208" y="902" on="0"/>
        <pt x="240" y="952" on="0"/>
        <pt x="240" y="984" on="1"/>
        <pt x="240" y="1021" on="0"/>
        <pt x="216" y="1094" on="0"/>
        <pt x="188" y="1166" on="0"/>
        <pt x="164" y="1238" on="0"/>
        <pt x="164" y="1276" on="1"/>
        <pt x="164" y="1340" on="0"/>
        <pt x="238" y="1452" on="0"/>
        <pt x="360" y="1533" on="0"/>
        <pt x="518" y="1580" on="0"/>
        <pt x="602" y="1580" on="1"/>
        <pt x="680" y="1580" on="0"/>
        <pt x="827" y="1540" on="0"/>
        <pt x="892" y="1510" on="1"/>
      </contour>
    </TTGlyph>
    <TTGlyph name="braceright" xMin="-68" yMin="-178" xMax="832" yMax="1581">
      <contour>
        <pt x="820" y="550" on="1"/>
        <pt x="812" y="550" on="0"/>
        <pt x="791" y="552" on="0"/>
        <pt x="782" y="552" on="1"/>
        <pt x="741" y="552" on="0"/>
        <pt x="671" y="533" on="0"/>
        <pt x="618" y="498" on="0"/>
        <pt x="588" y="449" on="0"/>
        <pt x="588" y="418" on="1"/>
        <pt x="588" y="380" on="0"/>
        <pt x="610" y="307" on="0"/>
        <pt x="636" y="235" on="0"/>
        <pt x="658" y="161" on="0"/>
        <pt x="658" y="122" on="1"/>
        <pt x="658" y="57" on="0"/>
        <pt x="584" y="-52" on="0"/>
        <pt x="463" y="-133" on="0"/>
        <pt x="306" y="-178" on="0"/>
        <pt x="224" y="-178" on="1"/>
        <pt x="146" y="-178" on="0"/>
        <pt x="-3" y="-140" on="0"/>
        <pt x="-68" y="-110" on="1"/>
        <pt x="40" y="158" on="1"/>
        <pt x="67" y="147" on="0"/>
        <pt x="125" y="134" on="0"/>
        <pt x="154" y="134" on="1"/>
        <pt x="214" y="134" on="0"/>
        <pt x="278" y="181" on="0"/>
        <pt x="278" y="226" on="1"/>
        <pt x="278" y="259" on="0"/>
        <pt x="257" y="323" on="0"/>
        <pt x="233" y="386" on="0"/>
        <pt x="212" y="450" on="0"/>
        <pt x="212" y="484" on="1"/>
        <pt x="212" y="564" on="0"/>
        <pt x="330" y="648" on="0"/>
        <pt x="440" y="646" on="1"/>
        <pt x="385" y="656" on="0"/>
        <pt x="295" y="706" on="0"/>
        <pt x="231" y="772" on="0"/>
        <pt x="196" y="851" on="0"/>
        <pt x="196" y="892" on="1"/>
        <pt x="196" y="927" on="0"/>
        <pt x="220" y="993" on="0"/>
        <pt x="248" y="1057" on="0"/>
        <pt x="272" y="1123" on="0"/>
        <pt x="272" y="1158" on="1"/>
        <pt x="272" y="1190" on="0"/>
        <pt x="230" y="1239" on="0"/>
        <pt x="165" y="1274" on="0"/>
        <pt x="85" y="1295" on="0"/>
        <pt x="48" y="1300" on="1"/>
        <pt x="194" y="1580" on="1"/>
        <pt x="279" y="1581" on="0"/>
        <pt x="437" y="1526" on="0"/>
        <pt x="560" y="1434" on="0"/>
        <pt x="634" y="1315" on="0"/>
        <pt x="634" y="1254" on="1"/>
        <pt x="634" y="1219" on="0"/>
        <pt x="610" y="1151" on="0"/>
        <pt x="582" y="1083" on="0"/>
        <pt x="558" y="1014" on="0"/>
        <pt x="558" y="978" on="1"/>
        <pt x="558" y="940" on="0"/>
        <pt x="609" y="881" on="0"/>
        <pt x="689" y="841" on="0"/>
        <pt x="786" y="822" on="0"/>
        <pt x="832" y="826" on="1"/>
      </contour>
    </TTGlyph>
    <TTGlyph name="bracketleft" xMin="63" yMin="-148" xMax="757" yMax="1566">
      <contour>
        <pt x="737" y="1288" on="1"/>
        <pt x="471" y="1294" on="1"/>
        <pt x="441" y="140" on="1"/>
        <pt x="721" y="138" on="1"/>
        <pt x="719" y="-146" on="1"/>
        <pt x="636" y="-141" on="0"/>
        <pt x="468" y="-138" on="0"/>
        <pt x="383" y="-138" on="1"/>
        <pt x="305" y="-138" on="0"/>
        <pt x="147" y="-142" on="0"/>
        <pt x="69" y="-148" on="1"/>
        <pt x="63" y="98" on="0"/>
        <pt x="63" y="344" on="1"/>
        <pt x="63" y="650" on="0"/>
        <pt x="82" y="1255" on="0"/>
        <pt x="97" y="1558" on="1"/>
        <pt x="175" y="1563" on="0"/>
        <pt x="328" y="1566" on="0"/>
        <pt x="405" y="1566" on="1"/>
        <pt x="496" y="1566" on="0"/>
        <pt x="669" y="1561" on="0"/>
        <pt x="757" y="1552" on="1"/>
      </contour>
    </TTGlyph>
    <TTGlyph name="bracketright" xMin="-8" yMin="-148" xMax="686" yMax="1566">
      <contour>
        <pt x="686" y="1078" on="1"/>
        <pt x="686" y="772" on="0"/>
        <pt x="667" y="166" on="0"/>
        <pt x="650" y="-140" on="1"/>
        <pt x="573" y="-145" on="0"/>
        <pt x="420" y="-148" on="0"/>
        <pt x="342" y="-148" on="1"/>
        <pt x="253" y="-148" on="0"/>
        <pt x="80" y="-142" on="0"/>
        <pt x="-8" y="-134" on="1"/>
        <pt x="10" y="134" on="1"/>
        <pt x="276" y="126" on="1"/>
        <pt x="308" y="1282" on="1"/>
        <pt x="24" y="1284" on="1"/>
        <pt x="28" y="1564" on="1"/>
        <pt x="111" y="1561" on="0"/>
        <pt x="279" y="1556" on="0"/>
        <pt x="364" y="1556" on="1"/>
        <pt x="444" y="1556" on="0"/>
        <pt x="602" y="1561" on="0"/>
        <pt x="680" y="1566" on="1"/>
        <pt x="683" y="1442" on="0"/>
        <pt x="686" y="1202" on="0"/>
      </contour>
    </TTGlyph>
    <TTGlyph name="breve" xMin="-1" yMin="1394" xMax="593" yMax="1834">
      <contour>
        <pt x="593" y="1692" on="1"/>
        <pt x="593" y="1628" on="0"/>
        <pt x="546" y="1519" on="0"/>
        <pt x="465" y="1439" on="0"/>
        <pt x="355" y="1394" on="0"/>
        <pt x="293" y="1394" on="1"/>
        <pt x="221" y="1394" on="0"/>
        <pt x="111" y="1438" on="0"/>
        <pt x="37" y="1519" on="0"/>
        <pt x="-1" y="1635" on="0"/>
        <pt x="-1" y="1708" on="1"/>
        <pt x="-1" y="1719" on="0"/>
        <pt x="-1" y="1743" on="0"/>
        <pt x="1" y="1754" on="1"/>
        <pt x="233" y="1724" on="1"/>
        <pt x="232" y="1708" on="0"/>
        <pt x="236" y="1667" on="0"/>
        <pt x="251" y="1630" on="0"/>
        <pt x="278" y="1604" on="0"/>
        <pt x="301" y="1604" on="1"/>
        <pt x="315" y="1604" on="0"/>
        <pt x="334" y="1619" on="0"/>
        <pt x="346" y="1643" on="0"/>
        <pt x="351" y="1670" on="0"/>
        <pt x="351" y="1682" on="1"/>
        <pt x="351" y="1711" on="0"/>
        <pt x="338" y="1763" on="0"/>
        <pt x="329" y="1790" on="1"/>
        <pt x="571" y="1834" on="1"/>
        <pt x="580" y="1801" on="0"/>
        <pt x="593" y="1728" on="0"/>
      </contour>
    </TTGlyph>
    <TTGlyph name="brokenbar" xMin="68" yMin="-146" xMax="518" yMax="1552">
      <contour>
        <pt x="72" y="830" on="1"/>
        <pt x="68" y="1552" on="1"/>
        <pt x="516" y="1542" on="1"/>
        <pt x="516" y="830" on="1"/>
      </contour>
      <contour>
        <pt x="80" y="-146" on="1"/>
        <pt x="74" y="532" on="1"/>
        <pt x="516" y="532" on="1"/>
        <pt x="518" y="-144" on="1"/>
      </contour>
    </TTGlyph>
    <TTGlyph name="bullet" xMin="20" yMin="546" xMax="490" yMax="1018">
      <contour>
        <pt x="490" y="782" on="1"/>
        <pt x="490" y="733" on="0"/>
        <pt x="453" y="647" on="0"/>
        <pt x="389" y="583" on="0"/>
        <pt x="303" y="546" on="0"/>
        <pt x="254" y="546" on="1"/>
        <pt x="206" y="546" on="0"/>
        <pt x="121" y="583" on="0"/>
        <pt x="57" y="647" on="0"/>
        <pt x="20" y="733" on="0"/>
        <pt x="20" y="782" on="1"/>
        <pt x="20" y="831" on="0"/>
        <pt x="57" y="917" on="0"/>
        <pt x="121" y="981" on="0"/>
        <pt x="206" y="1018" on="0"/>
        <pt x="254" y="1018" on="1"/>
        <pt x="303" y="1018" on="0"/>
        <pt x="389" y="981" on="0"/>
        <pt x="453" y="917" on="0"/>
        <pt x="490" y="831" on="0"/>
      </contour>
    </TTGlyph>
    <TTGlyph name="c" xMin="15" yMin="-26" xMax="1027" yMax="1418">
      <contour>
        <pt x="1005" y="1366" on="1"/>
        <pt x="969" y="944" on="1"/>
        <pt x="940" y="952" on="0"/>
        <pt x="884" y="958" on="0"/>
        <pt x="855" y="958" on="1"/>
        <pt x="784" y="958" on="0"/>
        <pt x="655" y="922" on="0"/>
        <pt x="556" y="848" on="0"/>
        <pt x="497" y="735" on="0"/>
        <pt x="497" y="658" on="1"/>
        <pt x="497" y="602" on="0"/>
        <pt x="530" y="519" on="0"/>
        <pt x="591" y="464" on="0"/>
        <pt x="678" y="436" on="0"/>
        <pt x="731" y="436" on="1"/>
        <pt x="768" y="436" on="0"/>
        <pt x="846" y="451" on="0"/>
        <pt x="924" y="477" on="0"/>
        <pt x="996" y="511" on="0"/>
        <pt x="1027" y="530" on="1"/>
        <pt x="1011" y="60" on="1"/>
        <pt x="972" y="40" on="0"/>
        <pt x="882" y="9" on="0"/>
        <pt x="787" y="-14" on="0"/>
        <pt x="692" y="-26" on="0"/>
        <pt x="649" y="-26" on="1"/>
        <pt x="507" y="-26" on="0"/>
        <pt x="274" y="80" on="0"/>
        <pt x="107" y="263" on="0"/>
        <pt x="15" y="505" on="0"/>
        <pt x="15" y="642" on="1"/>
        <pt x="15" y="806" on="0"/>
        <pt x="108" y="1090" on="0"/>
        <pt x="289" y="1299" on="0"/>
        <pt x="556" y="1418" on="0"/>
        <pt x="729" y="1418" on="1"/>
        <pt x="798" y="1418" on="0"/>
        <pt x="940" y="1396" on="0"/>
      </contour>
    </TTGlyph>
    <TTGlyph name="cacute" xMin="15" yMin="-26" xMax="1027" yMax="1964">
      <component glyphName="c" x="0" y="0" flags="0x204"/>
      <component glyphName="acute" x="402" y="82" flags="0x4"/>
    </TTGlyph>
    <TTGlyph name="caron" xMin="0" yMin="1426" xMax="710" yMax="1878">
      <contour>
        <pt x="710" y="1774" on="1"/>
        <pt x="691" y="1743" on="0"/>
        <pt x="637" y="1664" on="0"/>
        <pt x="577" y="1578" on="0"/>
        <pt x="514" y="1491" on="0"/>
        <pt x="486" y="1454" on="1"/>
        <pt x="290" y="1426" on="1"/>
        <pt x="0" y="1744" on="1"/>
        <pt x="212" y="1878" on="1"/>
        <pt x="368" y="1674" on="1"/>
        <pt x="490" y="1870" on="1"/>
      </contour>
    </TTGlyph>
    <TTGlyph name="ccaron" xMin="15" yMin="-26" xMax="1027" yMax="1897">
      <component glyphName="c" x="0" y="0" flags="0x204"/>
      <component glyphName="caron" x="170" y="19" flags="0x4"/>
    </TTGlyph>
    <TTGlyph name="ccedilla" xMin="16" yMin="-504" xMax="1028" yMax="1418">
      <contour>
        <pt x="846" y="-292" on="1"/>
        <pt x="846" y="-350" on="0"/>
        <pt x="809" y="-430" on="0"/>
        <pt x="743" y="-481" on="0"/>
        <pt x="653" y="-504" on="0"/>
        <pt x="600" y="-504" on="1"/>
        <pt x="581" y="-504" on="0"/>
        <pt x="533" y="-499" on="0"/>
        <pt x="484" y="-488" on="0"/>
        <pt x="438" y="-471" on="0"/>
        <pt x="422" y="-458" on="1"/>
        <pt x="510" y="-300" on="1"/>
        <pt x="522" y="-306" on="0"/>
        <pt x="554" y="-314" on="0"/>
        <pt x="568" y="-314" on="1"/>
        <pt x="586" y="-314" on="0"/>
        <pt x="622" y="-293" on="0"/>
        <pt x="622" y="-272" on="1"/>
        <pt x="622" y="-257" on="0"/>
        <pt x="604" y="-238" on="0"/>
        <pt x="577" y="-226" on="0"/>
        <pt x="547" y="-222" on="0"/>
        <pt x="536" y="-222" on="1"/>
        <pt x="516" y="-222" on="0"/>
        <pt x="476" y="-227" on="0"/>
        <pt x="456" y="-232" on="1"/>
        <pt x="466" y="0" on="1"/>
        <pt x="363" y="30" on="0"/>
        <pt x="197" y="153" on="0"/>
        <pt x="80" y="322" on="0"/>
        <pt x="16" y="529" on="0"/>
        <pt x="16" y="642" on="1"/>
        <pt x="16" y="806" on="0"/>
        <pt x="109" y="1090" on="0"/>
        <pt x="290" y="1299" on="0"/>
        <pt x="557" y="1418" on="0"/>
        <pt x="730" y="1418" on="1"/>
        <pt x="799" y="1418" on="0"/>
        <pt x="941" y="1396" on="0"/>
        <pt x="1006" y="1366" on="1"/>
        <pt x="970" y="944" on="1"/>
        <pt x="941" y="952" on="0"/>
        <pt x="885" y="958" on="0"/>
        <pt x="856" y="958" on="1"/>
        <pt x="785" y="958" on="0"/>
        <pt x="656" y="922" on="0"/>
        <pt x="557" y="848" on="0"/>
        <pt x="498" y="735" on="0"/>
        <pt x="498" y="658" on="1"/>
        <pt x="498" y="602" on="0"/>
        <pt x="531" y="519" on="0"/>
        <pt x="592" y="464" on="0"/>
        <pt x="679" y="436" on="0"/>
        <pt x="732" y="436" on="1"/>
        <pt x="769" y="436" on="0"/>
        <pt x="847" y="451" on="0"/>
        <pt x="925" y="477" on="0"/>
        <pt x="997" y="511" on="0"/>
        <pt x="1028" y="530" on="1"/>
        <pt x="1012" y="60" on="1"/>
        <pt x="973" y="40" on="0"/>
        <pt x="883" y="9" on="0"/>
        <pt x="788" y="-14" on="0"/>
        <pt x="693" y="-26" on="0"/>
        <pt x="650" y="-26" on="1"/>
        <pt x="640" y="-26" on="1"/>
        <pt x="640" y="-94" on="1"/>
        <pt x="684" y="-96" on="0"/>
        <pt x="760" y="-124" on="0"/>
        <pt x="815" y="-175" on="0"/>
        <pt x="846" y="-247" on="0"/>
      </contour>
    </TTGlyph>
    <TTGlyph name="ccircumflex" xMin="15" yMin="-26" xMax="1027" yMax="1889">
      <component glyphName="c" x="0" y="0" flags="0x204"/>
      <component glyphName="circumflex" x="176" y="129" flags="0x4"/>
    </TTGlyph>
    <TTGlyph name="cdotaccent" xMin="15" yMin="-26" xMax="1027" yMax="1833">
      <component glyphName="c" x="0" y="0" flags="0x204"/>
      <component glyphName="dotaccent" x="327" y="125" flags="0x4"/>
    </TTGlyph>
    <TTGlyph name="cedilla" xMin="0" yMin="-504" xMax="424" yMax="56">
      <contour>
        <pt x="424" y="-292" on="1"/>
        <pt x="424" y="-350" on="0"/>
        <pt x="387" y="-430" on="0"/>
        <pt x="321" y="-481" on="0"/>
        <pt x="231" y="-504" on="0"/>
        <pt x="178" y="-504" on="1"/>
        <pt x="159" y="-504" on="0"/>
        <pt x="111" y="-499" on="0"/>
        <pt x="62" y="-488" on="0"/>
        <pt x="16" y="-471" on="0"/>
        <pt x="0" y="-458" on="1"/>
        <pt x="88" y="-300" on="1"/>
        <pt x="100" y="-306" on="0"/>
        <pt x="132" y="-314" on="0"/>
        <pt x="146" y="-314" on="1"/>
        <pt x="164" y="-314" on="0"/>
        <pt x="200" y="-293" on="0"/>
        <pt x="200" y="-272" on="1"/>
        <pt x="200" y="-257" on="0"/>
        <pt x="182" y="-238" on="0"/>
        <pt x="155" y="-226" on="0"/>
        <pt x="125" y="-222" on="0"/>
        <pt x="114" y="-222" on="1"/>
        <pt x="94" y="-222" on="0"/>
        <pt x="54" y="-227" on="0"/>
        <pt x="34" y="-232" on="1"/>
        <pt x="48" y="56" on="1"/>
        <pt x="220" y="54" on="1"/>
        <pt x="218" y="-94" on="1"/>
        <pt x="262" y="-96" on="0"/>
        <pt x="338" y="-124" on="0"/>
        <pt x="393" y="-175" on="0"/>
        <pt x="424" y="-247" on="0"/>
      </contour>
    </TTGlyph>
    <TTGlyph name="cent" xMin="41" yMin="-146" xMax="807" yMax="1552">
      <contour>
        <pt x="389" y="-146" on="1"/>
        <pt x="399" y="250" on="1"/>
        <pt x="317" y="267" on="0"/>
        <pt x="185" y="345" on="0"/>
        <pt x="92" y="453" on="0"/>
        <pt x="41" y="586" on="0"/>
        <pt x="41" y="660" on="1"/>
        <pt x="41" y="743" on="0"/>
        <pt x="87" y="892" on="0"/>
        <pt x="177" y="1012" on="0"/>
        <pt x="309" y="1101" on="0"/>
        <pt x="395" y="1124" on="1"/>
        <pt x="377" y="1552" on="1"/>
        <pt x="505" y="1542" on="1"/>
        <pt x="491" y="1142" on="1"/>
        <pt x="533" y="1148" on="0"/>
        <pt x="581" y="1148" on="1"/>
        <pt x="632" y="1148" on="0"/>
        <pt x="739" y="1136" on="0"/>
        <pt x="789" y="1116" on="1"/>
        <pt x="761" y="850" on="1"/>
        <pt x="740" y="855" on="0"/>
        <pt x="698" y="858" on="0"/>
        <pt x="675" y="858" on="1"/>
        <pt x="622" y="858" on="0"/>
        <pt x="526" y="835" on="0"/>
        <pt x="451" y="788" on="0"/>
        <pt x="407" y="717" on="0"/>
        <pt x="407" y="668" on="1"/>
        <pt x="407" y="599" on="0"/>
        <pt x="500" y="530" on="0"/>
        <pt x="583" y="530" on="1"/>
        <pt x="639" y="530" on="0"/>
        <pt x="760" y="565" on="0"/>
        <pt x="807" y="588" on="1"/>
        <pt x="795" y="292" on="1"/>
        <pt x="766" y="280" on="0"/>
        <pt x="697" y="260" on="0"/>
        <pt x="625" y="246" on="0"/>
        <pt x="552" y="238" on="0"/>
        <pt x="519" y="238" on="1"/>
        <pt x="491" y="238" on="1"/>
        <pt x="507" y="-144" on="1"/>
      </contour>
    </TTGlyph>
    <TTGlyph name="circumflex" xMin="0" yMin="1324" xMax="710" yMax="1760">
      <contour>
        <pt x="498" y="1324" on="1"/>
        <pt x="342" y="1528" on="1"/>
        <pt x="220" y="1334" on="1"/>
        <pt x="0" y="1428" on="1"/>
        <pt x="19" y="1459" on="0"/>
        <pt x="75" y="1542" on="0"/>
        <pt x="137" y="1631" on="0"/>
        <pt x="201" y="1720" on="0"/>
        <pt x="230" y="1758" on="1"/>
        <pt x="436" y="1760" on="1"/>
        <pt x="710" y="1454" on="1"/>
      </contour>
    </TTGlyph>
    <TTGlyph name="colon" xMin="44" yMin="-4" xMax="464" yMax="1058">
      <contour>
        <pt x="464" y="206" on="1"/>
        <pt x="464" y="162" on="0"/>
        <pt x="430" y="86" on="0"/>
        <pt x="373" y="29" on="0"/>
        <pt x="297" y="-4" on="0"/>
        <pt x="254" y="-4" on="1"/>
        <pt x="210" y="-4" on="0"/>
        <pt x="134" y="29" on="0"/>
        <pt x="77" y="86" on="0"/>
        <pt x="44" y="162" on="0"/>
        <pt x="44" y="206" on="1"/>
        <pt x="44" y="249" on="0"/>
        <pt x="77" y="327" on="0"/>
        <pt x="134" y="384" on="0"/>
        <pt x="210" y="418" on="0"/>
        <pt x="254" y="418" on="1"/>
        <pt x="297" y="418" on="0"/>
        <pt x="373" y="384" on="0"/>
        <pt x="430" y="327" on="0"/>
        <pt x="464" y="249" on="0"/>
      </contour>
      <contour>
        <pt x="464" y="846" on="1"/>
        <pt x="464" y="802" on="0"/>
        <pt x="430" y="726" on="0"/>
        <pt x="373" y="669" on="0"/>
        <pt x="297" y="636" on="0"/>
        <pt x="254" y="636" on="1"/>
        <pt x="210" y="636" on="0"/>
        <pt x="134" y="669" on="0"/>
        <pt x="77" y="726" on="0"/>
        <pt x="44" y="802" on="0"/>
        <pt x="44" y="846" on="1"/>
        <pt x="44" y="889" on="0"/>
        <pt x="77" y="967" on="0"/>
        <pt x="134" y="1024" on="0"/>
        <pt x="210" y="1058" on="0"/>
        <pt x="254" y="1058" on="1"/>
        <pt x="297" y="1058" on="0"/>
        <pt x="373" y="1024" on="0"/>
        <pt x="430" y="967" on="0"/>
        <pt x="464" y="889" on="0"/>
      </contour>
    </TTGlyph>
    <TTGlyph name="comma" xMin="16" yMin="-182" xMax="437" yMax="438">
      <contour>
        <pt x="436" y="222" on="1"/>
        <pt x="435" y="175" on="0"/>
        <pt x="396" y="61" on="0"/>
        <pt x="324" y="-50" on="0"/>
        <pt x="223" y="-149" on="0"/>
        <pt x="160" y="-182" on="1"/>
        <pt x="160" y="-181" on="0"/>
        <pt x="158" y="-136" on="0"/>
        <pt x="155" y="-71" on="0"/>
        <pt x="151" y="3" on="0"/>
        <pt x="150" y="32" on="1"/>
        <pt x="88" y="55" on="0"/>
        <pt x="16" y="163" on="0"/>
        <pt x="16" y="228" on="1"/>
        <pt x="16" y="271" on="0"/>
        <pt x="49" y="347" on="0"/>
        <pt x="106" y="404" on="0"/>
        <pt x="182" y="438" on="0"/>
        <pt x="226" y="438" on="1"/>
        <pt x="269" y="438" on="0"/>
        <pt x="346" y="404" on="0"/>
        <pt x="403" y="347" on="0"/>
        <pt x="437" y="271" on="0"/>
        <pt x="436" y="228" on="1"/>
      </contour>
    </TTGlyph>
    <TTGlyph name="copyright" xMin="59" yMin="148" xMax="1115" yMax="1236">
      <contour>
        <pt x="1115" y="704" on="1"/>
        <pt x="1115" y="591" on="0"/>
        <pt x="1037" y="389" on="0"/>
        <pt x="897" y="237" on="0"/>
        <pt x="703" y="148" on="0"/>
        <pt x="587" y="148" on="1"/>
        <pt x="475" y="148" on="0"/>
        <pt x="282" y="232" on="0"/>
        <pt x="140" y="376" on="0"/>
        <pt x="59" y="571" on="0"/>
        <pt x="59" y="682" on="1"/>
        <pt x="59" y="754" on="0"/>
        <pt x="94" y="893" on="0"/>
        <pt x="160" y="1016" on="0"/>
        <pt x="253" y="1119" on="0"/>
        <pt x="368" y="1194" on="0"/>
        <pt x="503" y="1236" on="0"/>
        <pt x="577" y="1236" on="1"/>
        <pt x="698" y="1236" on="0"/>
        <pt x="897" y="1161" on="0"/>
        <pt x="1038" y="1022" on="0"/>
        <pt x="1115" y="825" on="0"/>
      </contour>
      <contour>
        <pt x="999" y="702" on="1"/>
        <pt x="999" y="796" on="0"/>
        <pt x="939" y="950" on="0"/>
        <pt x="829" y="1059" on="0"/>
        <pt x="674" y="1118" on="0"/>
        <pt x="579" y="1118" on="1"/>
        <pt x="492" y="1118" on="0"/>
        <pt x="344" y="1047" on="0"/>
        <pt x="236" y="927" on="0"/>
        <pt x="175" y="771" on="0"/>
        <pt x="175" y="686" on="1"/>
        <pt x="175" y="599" on="0"/>
        <pt x="238" y="447" on="0"/>
        <pt x="349" y="335" on="0"/>
        <pt x="500" y="270" on="0"/>
        <pt x="587" y="270" on="1"/>
        <pt x="678" y="270" on="0"/>
        <pt x="829" y="339" on="0"/>
        <pt x="938" y="457" on="0"/>
        <pt x="999" y="614" on="0"/>
      </contour>
      <contour>
        <pt x="761" y="812" on="1"/>
        <pt x="734" y="818" on="0"/>
        <pt x="705" y="818" on="1"/>
        <pt x="670" y="818" on="0"/>
        <pt x="605" y="800" on="0"/>
        <pt x="555" y="764" on="0"/>
        <pt x="525" y="707" on="0"/>
        <pt x="525" y="668" on="1"/>
        <pt x="525" y="612" on="0"/>
        <pt x="589" y="558" on="0"/>
        <pt x="643" y="558" on="1"/>
        <pt x="679" y="558" on="0"/>
        <pt x="759" y="586" on="0"/>
        <pt x="791" y="604" on="1"/>
        <pt x="783" y="370" on="1"/>
        <pt x="744" y="350" on="0"/>
        <pt x="645" y="326" on="0"/>
        <pt x="601" y="326" on="1"/>
        <pt x="530" y="326" on="0"/>
        <pt x="414" y="379" on="0"/>
        <pt x="331" y="470" on="0"/>
        <pt x="285" y="592" on="0"/>
        <pt x="285" y="660" on="1"/>
        <pt x="285" y="742" on="0"/>
        <pt x="332" y="884" on="0"/>
        <pt x="422" y="989" on="0"/>
        <pt x="555" y="1048" on="0"/>
        <pt x="641" y="1048" on="1"/>
        <pt x="676" y="1048" on="0"/>
        <pt x="747" y="1037" on="0"/>
        <pt x="779" y="1022" on="1"/>
      </contour>
    </TTGlyph>
    <TTGlyph name="currency" xMin="25" yMin="306" xMax="851" yMax="1114">
      <contour>
        <pt x="515" y="709" on="1"/>
        <pt x="515" y="731" on="0"/>
        <pt x="502" y="772" on="0"/>
        <pt x="480" y="803" on="0"/>
        <pt x="449" y="821" on="0"/>
        <pt x="431" y="821" on="1"/>
        <pt x="413" y="821" on="0"/>
        <pt x="381" y="803" on="0"/>
        <pt x="357" y="772" on="0"/>
        <pt x="343" y="731" on="0"/>
        <pt x="343" y="709" on="1"/>
        <pt x="343" y="685" on="0"/>
        <pt x="357" y="643" on="0"/>
        <pt x="381" y="613" on="0"/>
        <pt x="413" y="595" on="0"/>
        <pt x="431" y="595" on="1"/>
        <pt x="467" y="595" on="0"/>
        <pt x="515" y="661" on="0"/>
      </contour>
      <contour>
        <pt x="25" y="532" on="1"/>
        <pt x="126" y="634" on="1"/>
        <pt x="115" y="675" on="0"/>
        <pt x="115" y="715" on="1"/>
        <pt x="115" y="738" on="0"/>
        <pt x="122" y="781" on="0"/>
        <pt x="128" y="801" on="1"/>
        <pt x="35" y="898" on="1"/>
        <pt x="245" y="1114" on="1"/>
        <pt x="363" y="1002" on="1"/>
        <pt x="376" y="1004" on="0"/>
        <pt x="401" y="1007" on="0"/>
        <pt x="415" y="1007" on="1"/>
        <pt x="433" y="1007" on="0"/>
        <pt x="468" y="1003" on="0"/>
        <pt x="485" y="999" on="1"/>
        <pt x="595" y="1108" on="1"/>
        <pt x="837" y="912" on="1"/>
        <pt x="712" y="784" on="1"/>
        <pt x="721" y="751" on="0"/>
        <pt x="721" y="715" on="1"/>
        <pt x="721" y="695" on="0"/>
        <pt x="718" y="674" on="1"/>
        <pt x="851" y="550" on="1"/>
        <pt x="611" y="306" on="1"/>
        <pt x="493" y="427" on="1"/>
        <pt x="456" y="419" on="0"/>
        <pt x="421" y="419" on="1"/>
        <pt x="406" y="419" on="0"/>
        <pt x="376" y="422" on="0"/>
        <pt x="362" y="424" on="1"/>
        <pt x="247" y="306" on="1"/>
      </contour>
    </TTGlyph>
    <TTGlyph name="d" xMin="44" yMin="28" xMax="1184" yMax="1404">
      <contour>
        <pt x="1184" y="794" on="1"/>
        <pt x="1184" y="654" on="0"/>
        <pt x="1112" y="432" on="0"/>
        <pt x="983" y="261" on="0"/>
        <pt x="805" y="141" on="0"/>
        <pt x="593" y="64" on="0"/>
        <pt x="354" y="28" on="0"/>
        <pt x="228" y="28" on="1"/>
        <pt x="181" y="28" on="0"/>
        <pt x="91" y="33" on="0"/>
        <pt x="44" y="38" on="1"/>
        <pt x="72" y="1340" on="1"/>
        <pt x="182" y="1375" on="0"/>
        <pt x="415" y="1404" on="0"/>
        <pt x="530" y="1404" on="1"/>
        <pt x="673" y="1404" on="0"/>
        <pt x="913" y="1324" on="0"/>
        <pt x="1087" y="1169" on="0"/>
        <pt x="1184" y="942" on="0"/>
      </contour>
      <contour>
        <pt x="504" y="410" on="1"/>
        <pt x="564" y="419" on="0"/>
        <pt x="663" y="474" on="0"/>
        <pt x="735" y="555" on="0"/>
        <pt x="774" y="658" on="0"/>
        <pt x="774" y="716" on="1"/>
        <pt x="774" y="773" on="0"/>
        <pt x="750" y="872" on="0"/>
        <pt x="696" y="945" on="0"/>
        <pt x="608" y="988" on="0"/>
        <pt x="544" y="990" on="1"/>
      </contour>
    </TTGlyph>
    <TTGlyph name="dagger" xMin="46" yMin="-186" xMax="972" yMax="1512">
      <contour>
        <pt x="272" y="-186" on="1"/>
        <pt x="264" y="898" on="1"/>
        <pt x="48" y="898" on="1"/>
        <pt x="46" y="1244" on="1"/>
        <pt x="262" y="1244" on="1"/>
        <pt x="260" y="1512" on="1"/>
        <pt x="728" y="1502" on="1"/>
        <pt x="728" y="1244" on="1"/>
        <pt x="972" y="1244" on="1"/>
        <pt x="964" y="896" on="1"/>
        <pt x="728" y="896" on="1"/>
        <pt x="730" y="-184" on="1"/>
      </contour>
    </TTGlyph>
    <TTGlyph name="daggerdbl" xMin="63" yMin="-186" xMax="989" yMax="1512">
      <contour>
        <pt x="963" y="108" on="1"/>
        <pt x="717" y="108" on="1"/>
        <pt x="717" y="-184" on="1"/>
        <pt x="319" y="-186" on="1"/>
        <pt x="317" y="104" on="1"/>
        <pt x="77" y="104" on="1"/>
        <pt x="79" y="452" on="1"/>
        <pt x="315" y="454" on="1"/>
        <pt x="311" y="898" on="1"/>
        <pt x="65" y="898" on="1"/>
        <pt x="63" y="1244" on="1"/>
        <pt x="309" y="1244" on="1"/>
        <pt x="307" y="1512" on="1"/>
        <pt x="715" y="1502" on="1"/>
        <pt x="715" y="1244" on="1"/>
        <pt x="989" y="1244" on="1"/>
        <pt x="981" y="896" on="1"/>
        <pt x="715" y="896" on="1"/>
        <pt x="717" y="456" on="1"/>
        <pt x="977" y="458" on="1"/>
      </contour>
    </TTGlyph>
    <TTGlyph name="dcaron" xMin="44" yMin="28" xMax="1184" yMax="1900">
      <component glyphName="d" x="0" y="0" flags="0x4"/>
      <component glyphName="caron" x="218" y="22" flags="0x4"/>
    </TTGlyph>
    <TTGlyph name="dcroat" xMin="-29" yMin="8" xMax="1253" yMax="1424">
      <contour>
        <pt x="127" y="776" on="1"/>
        <pt x="141" y="1360" on="1"/>
        <pt x="251" y="1395" on="0"/>
        <pt x="484" y="1424" on="0"/>
        <pt x="599" y="1424" on="1"/>
        <pt x="742" y="1424" on="0"/>
        <pt x="982" y="1338" on="0"/>
        <pt x="1156" y="1176" on="0"/>
        <pt x="1253" y="942" on="0"/>
        <pt x="1253" y="794" on="1"/>
        <pt x="1253" y="654" on="0"/>
        <pt x="1181" y="429" on="0"/>
        <pt x="1052" y="254" on="0"/>
        <pt x="874" y="128" on="0"/>
        <pt x="662" y="47" on="0"/>
        <pt x="422" y="8" on="0"/>
        <pt x="297" y="8" on="1"/>
        <pt x="250" y="8" on="0"/>
        <pt x="160" y="13" on="0"/>
        <pt x="113" y="18" on="1"/>
        <pt x="125" y="604" on="1"/>
        <pt x="-25" y="598" on="1"/>
        <pt x="-29" y="780" on="1"/>
      </contour>
      <contour>
        <pt x="843" y="730" on="1"/>
        <pt x="844" y="784" on="0"/>
        <pt x="819" y="884" on="0"/>
        <pt x="762" y="961" on="0"/>
        <pt x="674" y="1008" on="0"/>
        <pt x="613" y="1010" on="1"/>
        <pt x="597" y="770" on="1"/>
        <pt x="697" y="768" on="1"/>
        <pt x="701" y="628" on="1"/>
        <pt x="591" y="622" on="1"/>
        <pt x="573" y="390" on="1"/>
        <pt x="633" y="399" on="0"/>
        <pt x="731" y="460" on="0"/>
        <pt x="802" y="549" on="0"/>
        <pt x="841" y="658" on="0"/>
        <pt x="843" y="716" on="1"/>
      </contour>
    </TTGlyph>
    <TTGlyph name="degree" xMin="14" yMin="838" xMax="620" yMax="1426">
      <contour>
        <pt x="620" y="1134" on="1"/>
        <pt x="620" y="1072" on="0"/>
        <pt x="572" y="964" on="0"/>
        <pt x="491" y="884" on="0"/>
        <pt x="381" y="838" on="0"/>
        <pt x="320" y="838" on="1"/>
        <pt x="256" y="838" on="0"/>
        <pt x="145" y="884" on="0"/>
        <pt x="62" y="964" on="0"/>
        <pt x="14" y="1072" on="0"/>
        <pt x="14" y="1134" on="1"/>
        <pt x="14" y="1195" on="0"/>
        <pt x="62" y="1301" on="0"/>
        <pt x="143" y="1380" on="0"/>
        <pt x="252" y="1426" on="0"/>
        <pt x="314" y="1426" on="1"/>
        <pt x="378" y="1426" on="0"/>
        <pt x="489" y="1380" on="0"/>
        <pt x="572" y="1301" on="0"/>
        <pt x="620" y="1195" on="0"/>
      </contour>
      <contour>
        <pt x="414" y="1128" on="1"/>
        <pt x="414" y="1150" on="0"/>
        <pt x="401" y="1191" on="0"/>
        <pt x="379" y="1222" on="0"/>
        <pt x="348" y="1240" on="0"/>
        <pt x="330" y="1240" on="1"/>
        <pt x="312" y="1240" on="0"/>
        <pt x="280" y="1222" on="0"/>
        <pt x="256" y="1191" on="0"/>
        <pt x="242" y="1150" on="0"/>
        <pt x="242" y="1128" on="1"/>
        <pt x="242" y="1104" on="0"/>
        <pt x="256" y="1062" on="0"/>
        <pt x="280" y="1032" on="0"/>
        <pt x="312" y="1014" on="0"/>
        <pt x="330" y="1014" on="1"/>
        <pt x="366" y="1014" on="0"/>
        <pt x="414" y="1080" on="0"/>
      </contour>
    </TTGlyph>
    <TTGlyph name="dieresis" xMin="0" yMin="1392" xMax="706" yMax="1720">
      <contour>
        <pt x="706" y="1574" on="1"/>
        <pt x="706" y="1543" on="0"/>
        <pt x="683" y="1490" on="0"/>
        <pt x="643" y="1451" on="0"/>
        <pt x="589" y="1428" on="0"/>
        <pt x="558" y="1428" on="1"/>
        <pt x="529" y="1428" on="0"/>
        <pt x="476" y="1451" on="0"/>
        <pt x="437" y="1490" on="0"/>
        <pt x="414" y="1543" on="0"/>
        <pt x="414" y="1574" on="1"/>
        <pt x="414" y="1604" on="0"/>
        <pt x="437" y="1657" on="0"/>
        <pt x="476" y="1697" on="0"/>
        <pt x="529" y="1720" on="0"/>
        <pt x="558" y="1720" on="1"/>
        <pt x="589" y="1720" on="0"/>
        <pt x="643" y="1697" on="0"/>
        <pt x="683" y="1657" on="0"/>
        <pt x="706" y="1604" on="0"/>
      </contour>
      <contour>
        <pt x="316" y="1552" on="1"/>
        <pt x="316" y="1519" on="0"/>
        <pt x="291" y="1461" on="0"/>
        <pt x="248" y="1417" on="0"/>
        <pt x="190" y="1392" on="0"/>
        <pt x="158" y="1392" on="1"/>
        <pt x="125" y="1392" on="0"/>
        <pt x="67" y="1417" on="0"/>
        <pt x="25" y="1461" on="0"/>
        <pt x="0" y="1519" on="0"/>
        <pt x="0" y="1552" on="1"/>
        <pt x="0" y="1583" on="0"/>
        <pt x="25" y="1639" on="0"/>
        <pt x="67" y="1682" on="0"/>
        <pt x="125" y="1708" on="0"/>
        <pt x="158" y="1708" on="1"/>
        <pt x="190" y="1708" on="0"/>
        <pt x="248" y="1682" on="0"/>
        <pt x="291" y="1639" on="0"/>
        <pt x="316" y="1583" on="0"/>
      </contour>
    </TTGlyph>
    <TTGlyph name="divide" xMin="46" yMin="62" xMax="876" yMax="1230">
      <contour>
        <pt x="50" y="492" on="1"/>
        <pt x="46" y="792" on="1"/>
        <pt x="872" y="822" on="1"/>
        <pt x="876" y="480" on="1"/>
      </contour>
      <contour>
        <pt x="634" y="246" on="1"/>
        <pt x="634" y="208" on="0"/>
        <pt x="605" y="141" on="0"/>
        <pt x="554" y="91" on="0"/>
        <pt x="487" y="62" on="0"/>
        <pt x="450" y="62" on="1"/>
        <pt x="412" y="62" on="0"/>
        <pt x="345" y="91" on="0"/>
        <pt x="295" y="141" on="0"/>
        <pt x="266" y="208" on="0"/>
        <pt x="266" y="246" on="1"/>
        <pt x="266" y="284" on="0"/>
        <pt x="295" y="352" on="0"/>
        <pt x="345" y="403" on="0"/>
        <pt x="412" y="432" on="0"/>
        <pt x="450" y="432" on="1"/>
        <pt x="487" y="432" on="0"/>
        <pt x="554" y="403" on="0"/>
        <pt x="605" y="352" on="0"/>
        <pt x="634" y="284" on="0"/>
      </contour>
      <contour>
        <pt x="638" y="1044" on="1"/>
        <pt x="638" y="1006" on="0"/>
        <pt x="609" y="939" on="0"/>
        <pt x="558" y="889" on="0"/>
        <pt x="491" y="860" on="0"/>
        <pt x="454" y="860" on="1"/>
        <pt x="416" y="860" on="0"/>
        <pt x="349" y="889" on="0"/>
        <pt x="299" y="939" on="0"/>
        <pt x="270" y="1006" on="0"/>
        <pt x="270" y="1044" on="1"/>
        <pt x="270" y="1082" on="0"/>
        <pt x="299" y="1150" on="0"/>
        <pt x="349" y="1201" on="0"/>
        <pt x="416" y="1230" on="0"/>
        <pt x="454" y="1230" on="1"/>
        <pt x="491" y="1230" on="0"/>
        <pt x="558" y="1201" on="0"/>
        <pt x="609" y="1150" on="0"/>
        <pt x="638" y="1082" on="0"/>
      </contour>
    </TTGlyph>
    <TTGlyph name="dollar" xMin="61" yMin="-146" xMax="853" yMax="1552">
      <contour>
        <pt x="293" y="-138" on="1"/>
        <pt x="303" y="256" on="1"/>
        <pt x="271" y="262" on="0"/>
        <pt x="205" y="279" on="0"/>
        <pt x="142" y="298" on="0"/>
        <pt x="84" y="318" on="0"/>
        <pt x="61" y="328" on="1"/>
        <pt x="95" y="574" on="1"/>
        <pt x="158" y="542" on="0"/>
        <pt x="314" y="510" on="0"/>
        <pt x="391" y="510" on="1"/>
        <pt x="405" y="510" on="0"/>
        <pt x="446" y="512" on="0"/>
        <pt x="484" y="521" on="0"/>
        <pt x="511" y="541" on="0"/>
        <pt x="511" y="558" on="1"/>
        <pt x="511" y="576" on="0"/>
        <pt x="472" y="595" on="0"/>
        <pt x="419" y="604" on="0"/>
        <pt x="365" y="606" on="0"/>
        <pt x="351" y="606" on="1"/>
        <pt x="286" y="606" on="0"/>
        <pt x="180" y="640" on="0"/>
        <pt x="103" y="703" on="0"/>
        <pt x="61" y="791" on="0"/>
        <pt x="61" y="846" on="1"/>
        <pt x="61" y="897" on="0"/>
        <pt x="96" y="985" on="0"/>
        <pt x="159" y="1057" on="0"/>
        <pt x="246" y="1112" on="0"/>
        <pt x="297" y="1130" on="1"/>
        <pt x="281" y="1552" on="1"/>
        <pt x="389" y="1542" on="1"/>
        <pt x="389" y="1154" on="1"/>
        <pt x="403" y="1157" on="0"/>
        <pt x="429" y="1160" on="0"/>
        <pt x="443" y="1162" on="1"/>
        <pt x="441" y="1552" on="1"/>
        <pt x="549" y="1550" on="1"/>
        <pt x="535" y="1162" on="1"/>
        <pt x="601" y="1160" on="0"/>
        <pt x="735" y="1139" on="0"/>
        <pt x="791" y="1116" on="1"/>
        <pt x="765" y="862" on="1"/>
        <pt x="712" y="876" on="0"/>
        <pt x="600" y="896" on="0"/>
        <pt x="549" y="896" on="1"/>
        <pt x="533" y="896" on="0"/>
        <pt x="480" y="894" on="0"/>
        <pt x="429" y="884" on="0"/>
        <pt x="392" y="864" on="0"/>
        <pt x="393" y="846" on="1"/>
        <pt x="394" y="831" on="0"/>
        <pt x="418" y="816" on="0"/>
        <pt x="455" y="809" on="0"/>
        <pt x="501" y="809" on="0"/>
        <pt x="544" y="811" on="0"/>
        <pt x="582" y="813" on="0"/>
        <pt x="593" y="812" on="1"/>
        <pt x="653" y="809" on="0"/>
        <pt x="749" y="773" on="0"/>
        <pt x="817" y="712" on="0"/>
        <pt x="853" y="628" on="0"/>
        <pt x="853" y="578" on="1"/>
        <pt x="853" y="508" on="0"/>
        <pt x="806" y="400" on="0"/>
        <pt x="722" y="321" on="0"/>
        <pt x="605" y="270" on="0"/>
        <pt x="535" y="258" on="1"/>
        <pt x="551" y="-136" on="1"/>
        <pt x="453" y="-146" on="1"/>
        <pt x="449" y="248" on="1"/>
        <pt x="435" y="246" on="0"/>
        <pt x="407" y="246" on="0"/>
        <pt x="393" y="246" on="1"/>
        <pt x="389" y="246" on="1"/>
        <pt x="391" y="-144" on="1"/>
      </contour>
    </TTGlyph>
    <TTGlyph name="dotaccent" xMin="0" yMin="1318" xMax="400" yMax="1708">
      <contour>
        <pt x="400" y="1512" on="1"/>
        <pt x="400" y="1471" on="0"/>
        <pt x="369" y="1401" on="0"/>
        <pt x="315" y="1348" on="0"/>
        <pt x="243" y="1318" on="0"/>
        <pt x="202" y="1318" on="1"/>
        <pt x="158" y="1318" on="0"/>
        <pt x="84" y="1348" on="0"/>
        <pt x="30" y="1401" on="0"/>
        <pt x="0" y="1471" on="0"/>
        <pt x="0" y="1512" on="1"/>
        <pt x="0" y="1552" on="0"/>
        <pt x="30" y="1624" on="0"/>
        <pt x="83" y="1677" on="0"/>
        <pt x="155" y="1708" on="0"/>
        <pt x="196" y="1708" on="1"/>
        <pt x="239" y="1708" on="0"/>
        <pt x="314" y="1677" on="0"/>
        <pt x="369" y="1624" on="0"/>
        <pt x="400" y="1552" on="0"/>
      </contour>
    </TTGlyph>
    <TTGlyph name="dotlessi" xMin="41" yMin="24" xMax="573" yMax="1408">
      <contour>
        <pt x="573" y="1408" on="1"/>
        <pt x="503" y="46" on="1"/>
        <pt x="81" y="24" on="1"/>
        <pt x="41" y="1380" on="1"/>
      </contour>
    </TTGlyph>
    <TTGlyph name="dotlessj" xMin="-14" yMin="-24" xMax="1006" yMax="1448">
      <contour>
        <pt x="1006" y="824" on="1"/>
        <pt x="1006" y="765" on="0"/>
        <pt x="1006" y="649" on="0"/>
        <pt x="1000" y="590" on="1"/>
        <pt x="989" y="465" on="0"/>
        <pt x="903" y="242" on="0"/>
        <pt x="756" y="74" on="0"/>
        <pt x="546" y="-24" on="0"/>
        <pt x="410" y="-24" on="1"/>
        <pt x="357" y="-24" on="0"/>
        <pt x="242" y="-6" on="0"/>
        <pt x="129" y="30" on="0"/>
        <pt x="26" y="83" on="0"/>
        <pt x="-14" y="118" on="1"/>
        <pt x="48" y="532" on="1"/>
        <pt x="107" y="475" on="0"/>
        <pt x="251" y="404" on="0"/>
        <pt x="336" y="404" on="1"/>
        <pt x="391" y="404" on="0"/>
        <pt x="467" y="436" on="0"/>
        <pt x="517" y="492" on="0"/>
        <pt x="546" y="567" on="0"/>
        <pt x="559" y="652" on="0"/>
        <pt x="562" y="742" on="0"/>
        <pt x="562" y="786" on="1"/>
        <pt x="562" y="945" on="0"/>
        <pt x="530" y="1260" on="0"/>
        <pt x="518" y="1418" on="1"/>
        <pt x="976" y="1448" on="1"/>
        <pt x="1006" y="1136" on="0"/>
      </contour>
    </TTGlyph>
    <TTGlyph name="e" xMin="17" yMin="-24" xMax="1167" yMax="1448">
      <contour>
        <pt x="1167" y="808" on="1"/>
        <pt x="1167" y="721" on="0"/>
        <pt x="1155" y="634" on="1"/>
        <pt x="984" y="623" on="0"/>
        <pt x="646" y="574" on="0"/>
        <pt x="477" y="550" on="1"/>
        <pt x="503" y="478" on="0"/>
        <pt x="614" y="392" on="0"/>
        <pt x="691" y="392" on="1"/>
        <pt x="731" y="392" on="0"/>
        <pt x="826" y="422" on="0"/>
        <pt x="920" y="467" on="0"/>
        <pt x="1006" y="519" on="0"/>
        <pt x="1037" y="540" on="1"/>
        <pt x="989" y="86" on="1"/>
        <pt x="950" y="56" on="0"/>
        <pt x="859" y="14" on="0"/>
        <pt x="761" y="-12" on="0"/>
        <pt x="661" y="-24" on="0"/>
        <pt x="613" y="-24" on="1"/>
        <pt x="514" y="-24" on="0"/>
        <pt x="350" y="30" on="0"/>
        <pt x="217" y="127" on="0"/>
        <pt x="117" y="259" on="0"/>
        <pt x="51" y="415" on="0"/>
        <pt x="17" y="589" on="0"/>
        <pt x="17" y="678" on="1"/>
        <pt x="17" y="771" on="0"/>
        <pt x="51" y="957" on="0"/>
        <pt x="120" y="1129" on="0"/>
        <pt x="225" y="1276" on="0"/>
        <pt x="365" y="1386" on="0"/>
        <pt x="542" y="1448" on="0"/>
        <pt x="649" y="1448" on="1"/>
        <pt x="738" y="1448" on="0"/>
        <pt x="885" y="1399" on="0"/>
        <pt x="1000" y="1312" on="0"/>
        <pt x="1085" y="1192" on="0"/>
        <pt x="1140" y="1049" on="0"/>
        <pt x="1167" y="890" on="0"/>
      </contour>
      <contour>
        <pt x="767" y="860" on="1"/>
        <pt x="767" y="888" on="0"/>
        <pt x="755" y="947" on="0"/>
        <pt x="728" y="995" on="0"/>
        <pt x="684" y="1026" on="0"/>
        <pt x="651" y="1026" on="1"/>
        <pt x="611" y="1026" on="0"/>
        <pt x="550" y="983" on="0"/>
        <pt x="506" y="918" on="0"/>
        <pt x="478" y="842" on="0"/>
        <pt x="471" y="810" on="1"/>
        <pt x="767" y="838" on="1"/>
      </contour>
    </TTGlyph>
    <TTGlyph name="eacute" xMin="17" yMin="-24" xMax="1167" yMax="2002">
      <component glyphName="e" x="0" y="0" flags="0x204"/>
      <component glyphName="acute" x="541" y="120" flags="0x4"/>
    </TTGlyph>
    <TTGlyph name="ebreve" xMin="17" yMin="-24" xMax="1167" yMax="1936">
      <component glyphName="e" x="0" y="0" flags="0x204"/>
      <component glyphName="breve" x="298" y="102" flags="0x4"/>
    </TTGlyph>
    <TTGlyph name="ecaron" xMin="17" yMin="-24" xMax="1167" yMax="1929">
      <component glyphName="e" x="0" y="0" flags="0x204"/>
      <component glyphName="caron" x="230" y="51" flags="0x4"/>
    </TTGlyph>
    <TTGlyph name="ecircumflex" xMin="17" yMin="-24" xMax="1167" yMax="1908">
      <component glyphName="e" x="0" y="0" flags="0x204"/>
      <component glyphName="circumflex" x="237" y="148" flags="0x4"/>
    </TTGlyph>
    <TTGlyph name="edieresis" xMin="17" yMin="-24" xMax="1167" yMax="1786">
      <component glyphName="e" x="0" y="0" flags="0x204"/>
      <component glyphName="dieresis" x="239" y="66" flags="0x4"/>
    </TTGlyph>
    <TTGlyph name="edotaccent" xMin="17" yMin="-24" xMax="1167" yMax="1894">
      <component glyphName="e" x="0" y="0" flags="0x204"/>
      <component glyphName="dotaccent" x="418" y="186" flags="0x4"/>
    </TTGlyph>
    <TTGlyph name="egrave" xMin="17" yMin="-24" xMax="1167" yMax="1988">
      <component glyphName="e" x="0" y="0" flags="0x204"/>
      <component glyphName="grave" x="27" y="94" flags="0x4"/>
    </TTGlyph>
    <TTGlyph name="eight" xMin="29" yMin="-2" xMax="1141" yMax="1472">
      <contour>
        <pt x="1141" y="442" on="1"/>
        <pt x="1141" y="361" on="0"/>
        <pt x="1097" y="233" on="0"/>
        <pt x="1020" y="134" on="0"/>
        <pt x="915" y="64" on="0"/>
        <pt x="790" y="19" on="0"/>
        <pt x="652" y="-2" on="0"/>
        <pt x="581" y="-2" on="1"/>
        <pt x="480" y="-2" on="0"/>
        <pt x="283" y="52" on="0"/>
        <pt x="126" y="163" on="0"/>
        <pt x="29" y="329" on="0"/>
        <pt x="29" y="442" on="1"/>
        <pt x="29" y="488" on="0"/>
        <pt x="51" y="581" on="0"/>
        <pt x="93" y="665" on="0"/>
        <pt x="157" y="733" on="0"/>
        <pt x="199" y="756" on="1"/>
        <pt x="133" y="815" on="0"/>
        <pt x="67" y="968" on="0"/>
        <pt x="67" y="1056" on="1"/>
        <pt x="67" y="1159" on="0"/>
        <pt x="158" y="1314" on="0"/>
        <pt x="305" y="1419" on="0"/>
        <pt x="489" y="1472" on="0"/>
        <pt x="581" y="1472" on="1"/>
        <pt x="642" y="1472" on="0"/>
        <pt x="765" y="1448" on="0"/>
        <pt x="879" y="1402" on="0"/>
        <pt x="978" y="1332" on="0"/>
        <pt x="1051" y="1239" on="0"/>
        <pt x="1093" y="1124" on="0"/>
        <pt x="1093" y="1056" on="1"/>
        <pt x="1093" y="968" on="0"/>
        <pt x="1027" y="815" on="0"/>
        <pt x="961" y="756" on="1"/>
        <pt x="1057" y="706" on="0"/>
        <pt x="1141" y="548" on="0"/>
      </contour>
      <contour>
        <pt x="747" y="960" on="1"/>
        <pt x="747" y="993" on="0"/>
        <pt x="718" y="1046" on="0"/>
        <pt x="670" y="1084" on="0"/>
        <pt x="611" y="1104" on="0"/>
        <pt x="581" y="1104" on="1"/>
        <pt x="550" y="1104" on="0"/>
        <pt x="490" y="1084" on="0"/>
        <pt x="442" y="1046" on="0"/>
        <pt x="413" y="993" on="0"/>
        <pt x="413" y="960" on="1"/>
        <pt x="413" y="927" on="0"/>
        <pt x="442" y="874" on="0"/>
        <pt x="490" y="838" on="0"/>
        <pt x="550" y="818" on="0"/>
        <pt x="581" y="818" on="1"/>
        <pt x="611" y="818" on="0"/>
        <pt x="670" y="838" on="0"/>
        <pt x="718" y="874" on="0"/>
        <pt x="747" y="927" on="0"/>
      </contour>
      <contour>
        <pt x="745" y="490" on="1"/>
        <pt x="745" y="523" on="0"/>
        <pt x="716" y="576" on="0"/>
        <pt x="670" y="612" on="0"/>
        <pt x="611" y="632" on="0"/>
        <pt x="581" y="632" on="1"/>
        <pt x="551" y="632" on="0"/>
        <pt x="492" y="612" on="0"/>
        <pt x="444" y="576" on="0"/>
        <pt x="415" y="523" on="0"/>
        <pt x="415" y="490" on="1"/>
        <pt x="415" y="458" on="0"/>
        <pt x="444" y="406" on="0"/>
        <pt x="492" y="370" on="0"/>
        <pt x="551" y="350" on="0"/>
        <pt x="581" y="350" on="1"/>
        <pt x="611" y="350" on="0"/>
        <pt x="670" y="370" on="0"/>
        <pt x="716" y="406" on="0"/>
        <pt x="745" y="458" on="0"/>
      </contour>
    </TTGlyph>
    <TTGlyph name="ellipsis" xMin="18" yMin="-4" xMax="1558" yMax="418">
      <contour>
        <pt x="438" y="206" on="1"/>
        <pt x="438" y="162" on="0"/>
        <pt x="404" y="86" on="0"/>
        <pt x="347" y="29" on="0"/>
        <pt x="271" y="-4" on="0"/>
        <pt x="228" y="-4" on="1"/>
        <pt x="184" y="-4" on="0"/>
        <pt x="108" y="29" on="0"/>
        <pt x="51" y="86" on="0"/>
        <pt x="18" y="162" on="0"/>
        <pt x="18" y="206" on="1"/>
        <pt x="18" y="249" on="0"/>
        <pt x="51" y="327" on="0"/>
        <pt x="108" y="384" on="0"/>
        <pt x="184" y="418" on="0"/>
        <pt x="228" y="418" on="1"/>
        <pt x="271" y="418" on="0"/>
        <pt x="347" y="384" on="0"/>
        <pt x="404" y="327" on="0"/>
        <pt x="438" y="249" on="0"/>
      </contour>
      <contour>
        <pt x="998" y="206" on="1"/>
        <pt x="998" y="162" on="0"/>
        <pt x="964" y="86" on="0"/>
        <pt x="907" y="29" on="0"/>
        <pt x="831" y="-4" on="0"/>
        <pt x="788" y="-4" on="1"/>
        <pt x="744" y="-4" on="0"/>
        <pt x="668" y="29" on="0"/>
        <pt x="611" y="86" on="0"/>
        <pt x="578" y="162" on="0"/>
        <pt x="578" y="206" on="1"/>
        <pt x="578" y="249" on="0"/>
        <pt x="611" y="327" on="0"/>
        <pt x="668" y="384" on="0"/>
        <pt x="744" y="418" on="0"/>
        <pt x="788" y="418" on="1"/>
        <pt x="831" y="418" on="0"/>
        <pt x="907" y="384" on="0"/>
        <pt x="964" y="327" on="0"/>
        <pt x="998" y="249" on="0"/>
      </contour>
      <contour>
        <pt x="1558" y="206" on="1"/>
        <pt x="1558" y="162" on="0"/>
        <pt x="1524" y="86" on="0"/>
        <pt x="1467" y="29" on="0"/>
        <pt x="1391" y="-4" on="0"/>
        <pt x="1348" y="-4" on="1"/>
        <pt x="1304" y="-4" on="0"/>
        <pt x="1228" y="29" on="0"/>
        <pt x="1171" y="86" on="0"/>
        <pt x="1138" y="162" on="0"/>
        <pt x="1138" y="206" on="1"/>
        <pt x="1138" y="249" on="0"/>
        <pt x="1171" y="327" on="0"/>
        <pt x="1228" y="384" on="0"/>
        <pt x="1304" y="418" on="0"/>
        <pt x="1348" y="418" on="1"/>
        <pt x="1391" y="418" on="0"/>
        <pt x="1467" y="384" on="0"/>
        <pt x="1524" y="327" on="0"/>
        <pt x="1558" y="249" on="0"/>
      </contour>
    </TTGlyph>
    <TTGlyph name="emacron" xMin="17" yMin="-24" xMax="1167" yMax="1754">
      <component glyphName="e" x="0" y="0" flags="0x204"/>
      <component glyphName="macron" x="309" y="4" flags="0x4"/>
    </TTGlyph>
    <TTGlyph name="emdash" xMin="67" yMin="510" xMax="1705" yMax="872">
      <contour>
        <pt x="71" y="512" on="1"/>
        <pt x="67" y="832" on="1"/>
        <pt x="1701" y="872" on="1"/>
        <pt x="1705" y="510" on="1"/>
      </contour>
    </TTGlyph>
    <TTGlyph name="endash" xMin="67" yMin="500" xMax="887" yMax="862">
      <contour>
        <pt x="71" y="512" on="1"/>
        <pt x="67" y="832" on="1"/>
        <pt x="883" y="862" on="1"/>
        <pt x="887" y="500" on="1"/>
      </contour>
    </TTGlyph>
    <TTGlyph name="eng" xMin="28" yMin="-667" xMax="1292" yMax="1460">
      <contour>
        <pt x="1292" y="506" on="1"/>
        <pt x="1287" y="385" on="0"/>
        <pt x="1281" y="213" on="0"/>
        <pt x="1277" y="95" on="0"/>
        <pt x="1274" y="23" on="0"/>
        <pt x="1272" y="-21" on="0"/>
        <pt x="1270" y="-44" on="0"/>
        <pt x="1269" y="-53" on="1"/>
        <pt x="1258" y="-178" on="0"/>
        <pt x="1172" y="-401" on="0"/>
        <pt x="1025" y="-569" on="0"/>
        <pt x="815" y="-667" on="0"/>
        <pt x="679" y="-667" on="1"/>
        <pt x="626" y="-667" on="0"/>
        <pt x="511" y="-649" on="0"/>
        <pt x="398" y="-613" on="0"/>
        <pt x="295" y="-560" on="0"/>
        <pt x="255" y="-525" on="1"/>
        <pt x="317" y="-111" on="1"/>
        <pt x="376" y="-168" on="0"/>
        <pt x="520" y="-239" on="0"/>
        <pt x="605" y="-239" on="1"/>
        <pt x="676" y="-239" on="0"/>
        <pt x="747" y="-186" on="0"/>
        <pt x="776" y="-100" on="0"/>
        <pt x="778" y="11" on="0"/>
        <pt x="780" y="68" on="1"/>
        <pt x="780" y="780" on="1"/>
        <pt x="780" y="793" on="0"/>
        <pt x="778" y="851" on="0"/>
        <pt x="772" y="924" on="0"/>
        <pt x="761" y="1001" on="0"/>
        <pt x="742" y="1065" on="0"/>
        <pt x="715" y="1106" on="0"/>
        <pt x="696" y="1106" on="1"/>
        <pt x="662" y="1106" on="0"/>
        <pt x="615" y="1066" on="0"/>
        <pt x="584" y="1003" on="0"/>
        <pt x="566" y="925" on="0"/>
        <pt x="557" y="847" on="0"/>
        <pt x="554" y="778" on="0"/>
        <pt x="554" y="756" on="1"/>
        <pt x="549" y="579" on="0"/>
        <pt x="543" y="230" on="0"/>
        <pt x="538" y="52" on="1"/>
        <pt x="28" y="30" on="1"/>
        <pt x="48" y="383" on="0"/>
        <pt x="85" y="1081" on="0"/>
        <pt x="96" y="1434" on="1"/>
        <pt x="568" y="1458" on="1"/>
        <pt x="564" y="1298" on="1"/>
        <pt x="592" y="1332" on="0"/>
        <pt x="657" y="1392" on="0"/>
        <pt x="731" y="1435" on="0"/>
        <pt x="814" y="1460" on="0"/>
        <pt x="860" y="1460" on="1"/>
        <pt x="945" y="1460" on="0"/>
        <pt x="1073" y="1404" on="0"/>
        <pt x="1165" y="1308" on="0"/>
        <pt x="1227" y="1177" on="0"/>
        <pt x="1265" y="1029" on="0"/>
        <pt x="1285" y="868" on="0"/>
        <pt x="1292" y="712" on="0"/>
        <pt x="1292" y="566" on="0"/>
      </contour>
    </TTGlyph>
    <TTGlyph name="eogonek" xMin="17" yMin="-390" xMax="1167" yMax="1448">
      <contour>
        <pt x="968" y="-286" on="1"/>
        <pt x="924" y="-328" on="0"/>
        <pt x="814" y="-390" on="0"/>
        <pt x="752" y="-390" on="1"/>
        <pt x="706" y="-390" on="0"/>
        <pt x="625" y="-359" on="0"/>
        <pt x="564" y="-304" on="0"/>
        <pt x="528" y="-227" on="0"/>
        <pt x="528" y="-180" on="1"/>
        <pt x="528" y="-136" on="0"/>
        <pt x="559" y="-58" on="0"/>
        <pt x="584" y="-23" on="1"/>
        <pt x="443" y="-17" on="0"/>
        <pt x="231" y="105" on="0"/>
        <pt x="89" y="300" on="0"/>
        <pt x="17" y="547" on="0"/>
        <pt x="17" y="678" on="1"/>
        <pt x="17" y="771" on="0"/>
        <pt x="51" y="957" on="0"/>
        <pt x="120" y="1129" on="0"/>
        <pt x="225" y="1276" on="0"/>
        <pt x="365" y="1386" on="0"/>
        <pt x="542" y="1448" on="0"/>
        <pt x="649" y="1448" on="1"/>
        <pt x="738" y="1448" on="0"/>
        <pt x="885" y="1399" on="0"/>
        <pt x="1000" y="1312" on="0"/>
        <pt x="1085" y="1192" on="0"/>
        <pt x="1140" y="1049" on="0"/>
        <pt x="1167" y="890" on="0"/>
        <pt x="1167" y="808" on="1"/>
        <pt x="1167" y="721" on="0"/>
        <pt x="1155" y="634" on="1"/>
        <pt x="984" y="623" on="0"/>
        <pt x="646" y="574" on="0"/>
        <pt x="477" y="550" on="1"/>
        <pt x="503" y="478" on="0"/>
        <pt x="614" y="392" on="0"/>
        <pt x="691" y="392" on="1"/>
        <pt x="731" y="392" on="0"/>
        <pt x="826" y="422" on="0"/>
        <pt x="920" y="467" on="0"/>
        <pt x="1006" y="519" on="0"/>
        <pt x="1037" y="540" on="1"/>
        <pt x="989" y="86" on="1"/>
        <pt x="921" y="34" on="0"/>
        <pt x="835" y="8" on="1"/>
        <pt x="819" y="-12" on="0"/>
        <pt x="787" y="-56" on="0"/>
        <pt x="762" y="-98" on="0"/>
        <pt x="746" y="-136" on="0"/>
        <pt x="746" y="-150" on="1"/>
        <pt x="746" y="-168" on="0"/>
        <pt x="772" y="-192" on="0"/>
        <pt x="790" y="-192" on="1"/>
        <pt x="810" y="-192" on="0"/>
        <pt x="858" y="-161" on="0"/>
        <pt x="870" y="-144" on="1"/>
      </contour>
      <contour>
        <pt x="767" y="860" on="1"/>
        <pt x="767" y="888" on="0"/>
        <pt x="755" y="947" on="0"/>
        <pt x="728" y="995" on="0"/>
        <pt x="684" y="1026" on="0"/>
        <pt x="651" y="1026" on="1"/>
        <pt x="611" y="1026" on="0"/>
        <pt x="550" y="983" on="0"/>
        <pt x="506" y="918" on="0"/>
        <pt x="478" y="842" on="0"/>
        <pt x="471" y="810" on="1"/>
        <pt x="767" y="838" on="1"/>
      </contour>
    </TTGlyph>
    <TTGlyph name="equal" xMin="73" yMin="250" xMax="723" yMax="1022">
      <contour>
        <pt x="77" y="292" on="1"/>
        <pt x="73" y="592" on="1"/>
        <pt x="719" y="592" on="1"/>
        <pt x="723" y="250" on="1"/>
      </contour>
      <contour>
        <pt x="77" y="692" on="1"/>
        <pt x="73" y="992" on="1"/>
        <pt x="719" y="1022" on="1"/>
        <pt x="723" y="680" on="1"/>
      </contour>
    </TTGlyph>
    <TTGlyph name="eth" xMin="-29" yMin="8" xMax="1253" yMax="1424">
      <contour>
        <pt x="127" y="776" on="1"/>
        <pt x="141" y="1360" on="1"/>
        <pt x="251" y="1395" on="0"/>
        <pt x="484" y="1424" on="0"/>
        <pt x="599" y="1424" on="1"/>
        <pt x="742" y="1424" on="0"/>
        <pt x="982" y="1338" on="0"/>
        <pt x="1156" y="1176" on="0"/>
        <pt x="1253" y="942" on="0"/>
        <pt x="1253" y="794" on="1"/>
        <pt x="1253" y="654" on="0"/>
        <pt x="1181" y="429" on="0"/>
        <pt x="1052" y="254" on="0"/>
        <pt x="874" y="128" on="0"/>
        <pt x="662" y="47" on="0"/>
        <pt x="422" y="8" on="0"/>
        <pt x="297" y="8" on="1"/>
        <pt x="250" y="8" on="0"/>
        <pt x="160" y="13" on="0"/>
        <pt x="113" y="18" on="1"/>
        <pt x="125" y="604" on="1"/>
        <pt x="-25" y="598" on="1"/>
        <pt x="-29" y="780" on="1"/>
      </contour>
      <contour>
        <pt x="843" y="730" on="1"/>
        <pt x="844" y="784" on="0"/>
        <pt x="819" y="884" on="0"/>
        <pt x="762" y="961" on="0"/>
        <pt x="674" y="1008" on="0"/>
        <pt x="613" y="1010" on="1"/>
        <pt x="597" y="770" on="1"/>
        <pt x="697" y="768" on="1"/>
        <pt x="701" y="628" on="1"/>
        <pt x="591" y="622" on="1"/>
        <pt x="573" y="390" on="1"/>
        <pt x="633" y="399" on="0"/>
        <pt x="731" y="460" on="0"/>
        <pt x="802" y="549" on="0"/>
        <pt x="841" y="658" on="0"/>
        <pt x="843" y="716" on="1"/>
      </contour>
    </TTGlyph>
    <TTGlyph name="exclam" xMin="51" yMin="-84" xMax="541" yMax="1486">
      <contour>
        <pt x="541" y="1486" on="1"/>
        <pt x="459" y="434" on="1"/>
        <pt x="89" y="434" on="1"/>
        <pt x="51" y="1486" on="1"/>
      </contour>
      <contour>
        <pt x="475" y="126" on="1"/>
        <pt x="475" y="82" on="0"/>
        <pt x="441" y="6" on="0"/>
        <pt x="384" y="-51" on="0"/>
        <pt x="308" y="-84" on="0"/>
        <pt x="265" y="-84" on="1"/>
        <pt x="221" y="-84" on="0"/>
        <pt x="145" y="-51" on="0"/>
        <pt x="88" y="6" on="0"/>
        <pt x="55" y="82" on="0"/>
        <pt x="55" y="126" on="1"/>
        <pt x="55" y="169" on="0"/>
        <pt x="88" y="247" on="0"/>
        <pt x="145" y="304" on="0"/>
        <pt x="221" y="338" on="0"/>
        <pt x="265" y="338" on="1"/>
        <pt x="308" y="338" on="0"/>
        <pt x="384" y="304" on="0"/>
        <pt x="441" y="247" on="0"/>
        <pt x="475" y="169" on="0"/>
      </contour>
    </TTGlyph>
    <TTGlyph name="exclamdown" xMin="30" yMin="-432" xMax="520" yMax="1138">
      <contour>
        <pt x="30" y="-432" on="1"/>
        <pt x="112" y="620" on="1"/>
        <pt x="482" y="620" on="1"/>
        <pt x="520" y="-432" on="1"/>
      </contour>
      <contour>
        <pt x="96" y="928" on="1"/>
        <pt x="96" y="971" on="0"/>
        <pt x="130" y="1048" on="0"/>
        <pt x="187" y="1105" on="0"/>
        <pt x="263" y="1138" on="0"/>
        <pt x="306" y="1138" on="1"/>
        <pt x="349" y="1138" on="0"/>
        <pt x="426" y="1105" on="0"/>
        <pt x="483" y="1048" on="0"/>
        <pt x="516" y="971" on="0"/>
        <pt x="516" y="928" on="1"/>
        <pt x="516" y="884" on="0"/>
        <pt x="483" y="807" on="0"/>
        <pt x="426" y="750" on="0"/>
        <pt x="349" y="716" on="0"/>
        <pt x="306" y="716" on="1"/>
        <pt x="263" y="716" on="0"/>
        <pt x="187" y="750" on="0"/>
        <pt x="130" y="807" on="0"/>
        <pt x="96" y="884" on="0"/>
      </contour>
    </TTGlyph>
    <TTGlyph name="f" xMin="43" yMin="20" xMax="997" yMax="1422">
      <contour>
        <pt x="997" y="1422" on="1"/>
        <pt x="991" y="1328" on="0"/>
        <pt x="981" y="1144" on="0"/>
        <pt x="973" y="1050" on="1"/>
        <pt x="549" y="1028" on="1"/>
        <pt x="549" y="902" on="1"/>
        <pt x="917" y="902" on="1"/>
        <pt x="897" y="592" on="1"/>
        <pt x="547" y="582" on="1"/>
        <pt x="549" y="30" on="1"/>
        <pt x="43" y="20" on="1"/>
        <pt x="75" y="1422" on="1"/>
      </contour>
    </TTGlyph>
    <TTGlyph name="fi" xMin="43" yMin="20" xMax="1529" yMax="1422">
      <component glyphName="f" x="0" y="0" flags="0x4"/>
      <component glyphName="i" x="956" y="0" flags="0x4"/>
    </TTGlyph>
    <TTGlyph name="five" xMin="26" yMin="-6" xMax="1066" yMax="1470">
      <contour>
        <pt x="1066" y="504" on="1"/>
        <pt x="1066" y="374" on="0"/>
        <pt x="973" y="182" on="0"/>
        <pt x="813" y="56" on="0"/>
        <pt x="597" y="-6" on="0"/>
        <pt x="474" y="-6" on="1"/>
        <pt x="415" y="-6" on="0"/>
        <pt x="301" y="11" on="0"/>
        <pt x="190" y="40" on="0"/>
        <pt x="81" y="78" on="0"/>
        <pt x="26" y="100" on="1"/>
        <pt x="64" y="498" on="1"/>
        <pt x="100" y="478" on="0"/>
        <pt x="182" y="444" on="0"/>
        <pt x="269" y="420" on="0"/>
        <pt x="358" y="406" on="0"/>
        <pt x="400" y="406" on="1"/>
        <pt x="425" y="406" on="0"/>
        <pt x="497" y="415" on="0"/>
        <pt x="563" y="440" on="0"/>
        <pt x="610" y="483" on="0"/>
        <pt x="610" y="518" on="1"/>
        <pt x="610" y="551" on="0"/>
        <pt x="573" y="599" on="0"/>
        <pt x="514" y="630" on="0"/>
        <pt x="440" y="648" on="0"/>
        <pt x="365" y="658" on="0"/>
        <pt x="298" y="660" on="0"/>
        <pt x="276" y="660" on="1"/>
        <pt x="231" y="660" on="0"/>
        <pt x="138" y="652" on="0"/>
        <pt x="94" y="640" on="1"/>
        <pt x="134" y="1448" on="1"/>
        <pt x="944" y="1470" on="1"/>
        <pt x="966" y="1052" on="1"/>
        <pt x="464" y="1080" on="1"/>
        <pt x="454" y="902" on="1"/>
        <pt x="499" y="913" on="0"/>
        <pt x="589" y="924" on="0"/>
        <pt x="634" y="924" on="1"/>
        <pt x="725" y="924" on="0"/>
        <pt x="882" y="865" on="0"/>
        <pt x="999" y="755" on="0"/>
        <pt x="1066" y="600" on="0"/>
      </contour>
    </TTGlyph>
    <TTGlyph name="fl" xMin="43" yMin="20" xMax="1881" yMax="1448">
      <component glyphName="f" x="0" y="0" flags="0x4"/>
      <component glyphName="l" x="953" y="0" flags="0x4"/>
    </TTGlyph>
    <TTGlyph name="four" xMin="0" yMin="6" xMax="1068" yMax="1484">
      <contour>
        <pt x="1068" y="480" on="1"/>
        <pt x="980" y="478" on="1"/>
        <pt x="962" y="46" on="1"/>
        <pt x="510" y="6" on="1"/>
        <pt x="534" y="468" on="1"/>
        <pt x="0" y="456" on="1"/>
        <pt x="148" y="1334" on="1"/>
        <pt x="526" y="1334" on="1"/>
        <pt x="416" y="722" on="1"/>
        <pt x="548" y="726" on="1"/>
        <pt x="586" y="1484" on="1"/>
        <pt x="1020" y="1484" on="1"/>
        <pt x="990" y="742" on="1"/>
        <pt x="1068" y="746" on="1"/>
      </contour>
    </TTGlyph>
    <TTGlyph name="fraction" xMin="-26" yMin="94" xMax="622" yMax="1308">
      <contour>
        <pt x="622" y="1244" on="1"/>
        <pt x="494" y="965" on="0"/>
        <pt x="276" y="388" on="0"/>
        <pt x="182" y="94" on="1"/>
        <pt x="-26" y="170" on="1"/>
        <pt x="32" y="315" on="0"/>
        <pt x="148" y="604" on="0"/>
        <pt x="271" y="890" on="0"/>
        <pt x="403" y="1171" on="0"/>
        <pt x="478" y="1308" on="1"/>
      </contour>
    </TTGlyph>
    <TTGlyph name="g" xMin="10" yMin="-10" xMax="1260" yMax="1460">
      <contour>
        <pt x="1260" y="224" on="1"/>
        <pt x="1213" y="165" on="0"/>
        <pt x="1075" y="77" on="0"/>
        <pt x="917" y="19" on="0"/>
        <pt x="751" y="-10" on="0"/>
        <pt x="676" y="-10" on="1"/>
        <pt x="531" y="-10" on="0"/>
        <pt x="287" y="88" on="0"/>
        <pt x="110" y="263" on="0"/>
        <pt x="10" y="505" on="0"/>
        <pt x="10" y="648" on="1"/>
        <pt x="10" y="757" on="0"/>
        <pt x="60" y="963" on="0"/>
        <pt x="153" y="1143" on="0"/>
        <pt x="287" y="1293" on="0"/>
        <pt x="457" y="1401" on="0"/>
        <pt x="660" y="1460" on="0"/>
        <pt x="774" y="1460" on="1"/>
        <pt x="817" y="1460" on="0"/>
        <pt x="915" y="1453" on="0"/>
        <pt x="1012" y="1436" on="0"/>
        <pt x="1104" y="1406" on="0"/>
        <pt x="1142" y="1384" on="1"/>
        <pt x="1114" y="1002" on="1"/>
        <pt x="1058" y="1023" on="0"/>
        <pt x="939" y="1038" on="0"/>
        <pt x="882" y="1038" on="1"/>
        <pt x="802" y="1038" on="0"/>
        <pt x="663" y="995" on="0"/>
        <pt x="560" y="911" on="0"/>
        <pt x="500" y="785" on="0"/>
        <pt x="500" y="702" on="1"/>
        <pt x="500" y="650" on="0"/>
        <pt x="528" y="553" on="0"/>
        <pt x="585" y="478" on="0"/>
        <pt x="670" y="432" on="0"/>
        <pt x="726" y="432" on="1"/>
        <pt x="764" y="432" on="0"/>
        <pt x="845" y="452" on="0"/>
        <pt x="874" y="476" on="1"/>
        <pt x="878" y="554" on="1"/>
        <pt x="638" y="558" on="1"/>
        <pt x="650" y="858" on="1"/>
        <pt x="799" y="863" on="0"/>
        <pt x="1097" y="870" on="0"/>
        <pt x="1248" y="876" on="1"/>
      </contour>
    </TTGlyph>
    <TTGlyph name="gbreve" xMin="10" yMin="-10" xMax="1260" yMax="1936">
      <component glyphName="g" x="0" y="0" flags="0x204"/>
      <component glyphName="breve" x="332" y="102" flags="0x4"/>
    </TTGlyph>
    <TTGlyph name="gcircumflex" xMin="10" yMin="-10" xMax="1260" yMax="1927">
      <component glyphName="g" x="0" y="0" flags="0x204"/>
      <component glyphName="circumflex" x="315" y="167" flags="0x4"/>
    </TTGlyph>
    <TTGlyph name="gcommaaccent" xMin="10" yMin="-523" xMax="1260" yMax="1460">
      <component glyphName="g" x="0" y="0" flags="0x204"/>
      <component glyphName="uni0326" x="515" y="0" flags="0x4"/>
    </TTGlyph>
    <TTGlyph name="gdotaccent" xMin="10" yMin="-10" xMax="1260" yMax="1885">
      <component glyphName="g" x="0" y="0" flags="0x204"/>
      <component glyphName="dotaccent" x="423" y="177" flags="0x4"/>
    </TTGlyph>
    <TTGlyph name="germandbls" xMin="28" yMin="-14" xMax="2124" yMax="1442">
      <contour>
        <pt x="1076" y="512" on="1"/>
        <pt x="1076" y="375" on="0"/>
        <pt x="981" y="176" on="0"/>
        <pt x="816" y="47" on="0"/>
        <pt x="595" y="-14" on="0"/>
        <pt x="468" y="-14" on="1"/>
        <pt x="419" y="-14" on="0"/>
        <pt x="302" y="12" on="0"/>
        <pt x="182" y="51" on="0"/>
        <pt x="71" y="96" on="0"/>
        <pt x="28" y="116" on="1"/>
        <pt x="72" y="508" on="1"/>
        <pt x="157" y="457" on="0"/>
        <pt x="364" y="404" on="0"/>
        <pt x="464" y="404" on="1"/>
        <pt x="483" y="404" on="0"/>
        <pt x="537" y="407" on="0"/>
        <pt x="586" y="422" on="0"/>
        <pt x="620" y="452" on="0"/>
        <pt x="620" y="480" on="1"/>
        <pt x="620" y="499" on="0"/>
        <pt x="596" y="526" on="0"/>
        <pt x="558" y="543" on="0"/>
        <pt x="510" y="552" on="0"/>
        <pt x="464" y="556" on="0"/>
        <pt x="424" y="556" on="0"/>
        <pt x="412" y="556" on="1"/>
        <pt x="326" y="556" on="0"/>
        <pt x="185" y="610" on="0"/>
        <pt x="84" y="709" on="0"/>
        <pt x="28" y="850" on="0"/>
        <pt x="28" y="936" on="1"/>
        <pt x="28" y="1054" on="0"/>
        <pt x="123" y="1241" on="0"/>
        <pt x="282" y="1372" on="0"/>
        <pt x="488" y="1442" on="0"/>
        <pt x="598" y="1442" on="1"/>
        <pt x="647" y="1442" on="0"/>
        <pt x="751" y="1435" on="0"/>
        <pt x="854" y="1417" on="0"/>
        <pt x="952" y="1389" on="0"/>
        <pt x="996" y="1368" on="1"/>
        <pt x="958" y="962" on="1"/>
        <pt x="890" y="985" on="0"/>
        <pt x="741" y="1016" on="0"/>
        <pt x="670" y="1016" on="1"/>
        <pt x="657" y="1016" on="0"/>
        <pt x="616" y="1015" on="0"/>
        <pt x="571" y="1010" on="0"/>
        <pt x="525" y="1000" on="0"/>
        <pt x="489" y="983" on="0"/>
        <pt x="467" y="955" on="0"/>
        <pt x="468" y="936" on="1"/>
        <pt x="469" y="914" on="0"/>
        <pt x="500" y="890" on="0"/>
        <pt x="549" y="879" on="0"/>
        <pt x="608" y="879" on="0"/>
        <pt x="666" y="882" on="0"/>
        <pt x="716" y="885" on="0"/>
        <pt x="732" y="884" on="1"/>
        <pt x="812" y="879" on="0"/>
        <pt x="940" y="821" on="0"/>
        <pt x="1029" y="725" on="0"/>
        <pt x="1076" y="592" on="0"/>
      </contour>
      <contour>
        <pt x="2124" y="512" on="1"/>
        <pt x="2124" y="375" on="0"/>
        <pt x="2029" y="176" on="0"/>
        <pt x="1864" y="47" on="0"/>
        <pt x="1643" y="-14" on="0"/>
        <pt x="1516" y="-14" on="1"/>
        <pt x="1467" y="-14" on="0"/>
        <pt x="1350" y="12" on="0"/>
        <pt x="1230" y="51" on="0"/>
        <pt x="1119" y="96" on="0"/>
        <pt x="1076" y="116" on="1"/>
        <pt x="1120" y="508" on="1"/>
        <pt x="1205" y="457" on="0"/>
        <pt x="1412" y="404" on="0"/>
        <pt x="1512" y="404" on="1"/>
        <pt x="1531" y="404" on="0"/>
        <pt x="1585" y="407" on="0"/>
        <pt x="1634" y="422" on="0"/>
        <pt x="1668" y="452" on="0"/>
        <pt x="1668" y="480" on="1"/>
        <pt x="1668" y="499" on="0"/>
        <pt x="1644" y="526" on="0"/>
        <pt x="1606" y="543" on="0"/>
        <pt x="1558" y="552" on="0"/>
        <pt x="1512" y="556" on="0"/>
        <pt x="1472" y="556" on="0"/>
        <pt x="1460" y="556" on="1"/>
        <pt x="1374" y="556" on="0"/>
        <pt x="1233" y="610" on="0"/>
        <pt x="1132" y="709" on="0"/>
        <pt x="1076" y="850" on="0"/>
        <pt x="1076" y="936" on="1"/>
        <pt x="1076" y="1054" on="0"/>
        <pt x="1171" y="1241" on="0"/>
        <pt x="1330" y="1372" on="0"/>
        <pt x="1536" y="1442" on="0"/>
        <pt x="1646" y="1442" on="1"/>
        <pt x="1695" y="1442" on="0"/>
        <pt x="1799" y="1435" on="0"/>
        <pt x="1902" y="1417" on="0"/>
        <pt x="2000" y="1389" on="0"/>
        <pt x="2044" y="1368" on="1"/>
        <pt x="2006" y="962" on="1"/>
        <pt x="1938" y="985" on="0"/>
        <pt x="1789" y="1016" on="0"/>
        <pt x="1718" y="1016" on="1"/>
        <pt x="1705" y="1016" on="0"/>
        <pt x="1664" y="1015" on="0"/>
        <pt x="1619" y="1010" on="0"/>
        <pt x="1573" y="1000" on="0"/>
        <pt x="1537" y="983" on="0"/>
        <pt x="1515" y="955" on="0"/>
        <pt x="1516" y="936" on="1"/>
        <pt x="1517" y="914" on="0"/>
        <pt x="1548" y="890" on="0"/>
        <pt x="1597" y="879" on="0"/>
        <pt x="1656" y="879" on="0"/>
        <pt x="1714" y="882" on="0"/>
        <pt x="1764" y="885" on="0"/>
        <pt x="1780" y="884" on="1"/>
        <pt x="1860" y="879" on="0"/>
        <pt x="1988" y="821" on="0"/>
        <pt x="2077" y="725" on="0"/>
        <pt x="2124" y="592" on="0"/>
      </contour>
    </TTGlyph>
    <TTGlyph name="grave" xMin="0" yMin="1366" xMax="580" yMax="1894">
      <contour>
        <pt x="446" y="1366" on="1"/>
        <pt x="336" y="1449" on="0"/>
        <pt x="116" y="1591" on="0"/>
        <pt x="0" y="1660" on="1"/>
        <pt x="198" y="1894" on="1"/>
        <pt x="278" y="1819" on="0"/>
        <pt x="351" y="1748" on="1"/>
        <pt x="382" y="1717" on="0"/>
        <pt x="447" y="1651" on="0"/>
        <pt x="508" y="1586" on="0"/>
        <pt x="561" y="1525" on="0"/>
        <pt x="580" y="1500" on="1"/>
      </contour>
    </TTGlyph>
    <TTGlyph name="greater" xMin="48" yMin="104" xMax="888" yMax="1294">
      <contour>
        <pt x="212" y="104" on="1"/>
        <pt x="68" y="448" on="1"/>
        <pt x="560" y="704" on="1"/>
        <pt x="48" y="954" on="1"/>
        <pt x="210" y="1294" on="1"/>
        <pt x="872" y="902" on="1"/>
        <pt x="888" y="532" on="1"/>
      </contour>
    </TTGlyph>
    <TTGlyph name="guillemotleft" xMin="24" yMin="232" xMax="1336" yMax="1224">
      <contour>
        <pt x="496" y="232" on="1"/>
        <pt x="38" y="540" on="1"/>
        <pt x="24" y="908" on="1"/>
        <pt x="458" y="1224" on="1"/>
        <pt x="618" y="922" on="1"/>
        <pt x="350" y="738" on="1"/>
        <pt x="656" y="560" on="1"/>
      </contour>
      <contour>
        <pt x="1176" y="232" on="1"/>
        <pt x="718" y="540" on="1"/>
        <pt x="704" y="908" on="1"/>
        <pt x="1138" y="1224" on="1"/>
        <pt x="1298" y="922" on="1"/>
        <pt x="1030" y="738" on="1"/>
        <pt x="1336" y="560" on="1"/>
      </contour>
    </TTGlyph>
    <TTGlyph name="guillemotright" xMin="24" yMin="232" xMax="1340" yMax="1224">
      <contour>
        <pt x="222" y="232" on="1"/>
        <pt x="58" y="540" on="1"/>
        <pt x="332" y="722" on="1"/>
        <pt x="24" y="898" on="1"/>
        <pt x="182" y="1224" on="1"/>
        <pt x="644" y="918" on="1"/>
        <pt x="656" y="550" on="1"/>
      </contour>
      <contour>
        <pt x="906" y="232" on="1"/>
        <pt x="742" y="540" on="1"/>
        <pt x="1016" y="722" on="1"/>
        <pt x="708" y="898" on="1"/>
        <pt x="866" y="1224" on="1"/>
        <pt x="1328" y="918" on="1"/>
        <pt x="1340" y="550" on="1"/>
      </contour>
    </TTGlyph>
    <TTGlyph name="guilsinglleft" xMin="24" yMin="232" xMax="656" yMax="1224">
      <contour>
        <pt x="496" y="232" on="1"/>
        <pt x="38" y="540" on="1"/>
        <pt x="24" y="908" on="1"/>
        <pt x="458" y="1224" on="1"/>
        <pt x="618" y="922" on="1"/>
        <pt x="350" y="738" on="1"/>
        <pt x="656" y="560" on="1"/>
      </contour>
    </TTGlyph>
    <TTGlyph name="guilsinglright" xMin="24" yMin="232" xMax="656" yMax="1224">
      <contour>
        <pt x="222" y="232" on="1"/>
        <pt x="58" y="540" on="1"/>
        <pt x="332" y="722" on="1"/>
        <pt x="24" y="898" on="1"/>
        <pt x="182" y="1224" on="1"/>
        <pt x="644" y="918" on="1"/>
        <pt x="656" y="550" on="1"/>
      </contour>
    </TTGlyph>
    <TTGlyph name="h" xMin="42" yMin="0" xMax="1238" yMax="1418">
      <contour>
        <pt x="1238" y="40" on="1"/>
        <pt x="738" y="16" on="1"/>
        <pt x="734" y="438" on="1"/>
        <pt x="504" y="438" on="1"/>
        <pt x="490" y="0" on="1"/>
        <pt x="42" y="0" on="1"/>
        <pt x="80" y="1406" on="1"/>
        <pt x="556" y="1384" on="1"/>
        <pt x="526" y="666" on="1"/>
        <pt x="748" y="666" on="1"/>
        <pt x="750" y="1418" on="1"/>
        <pt x="1206" y="1406" on="1"/>
      </contour>
    </TTGlyph>
    <TTGlyph name="hbar" xMin="42" yMin="0" xMax="1238" yMax="1418">
      <contour>
        <pt x="1238" y="40" on="1"/>
        <pt x="738" y="16" on="1"/>
        <pt x="734" y="438" on="1"/>
        <pt x="504" y="438" on="1"/>
        <pt x="490" y="0" on="1"/>
        <pt x="42" y="0" on="1"/>
        <pt x="80" y="1406" on="1"/>
        <pt x="556" y="1384" on="1"/>
        <pt x="542" y="1050" on="1"/>
        <pt x="749" y="1054" on="1"/>
        <pt x="750" y="1418" on="1"/>
        <pt x="1206" y="1406" on="1"/>
      </contour>
      <contour>
        <pt x="748" y="666" on="1"/>
        <pt x="748" y="802" on="1"/>
        <pt x="532" y="805" on="1"/>
        <pt x="526" y="666" on="1"/>
      </contour>
    </TTGlyph>
    <TTGlyph name="hcircumflex" xMin="42" yMin="0" xMax="1238" yMax="1876">
      <component glyphName="h" x="0" y="0" flags="0x204"/>
      <component glyphName="circumflex" x="286" y="116" flags="0x4"/>
    </TTGlyph>
    <TTGlyph name="hungarumlaut" xMin="0" yMin="1338" xMax="944" yMax="1952">
      <contour>
        <pt x="944" y="1664" on="1"/>
        <pt x="835" y="1586" on="0"/>
        <pt x="626" y="1426" on="0"/>
        <pt x="522" y="1338" on="1"/>
        <pt x="382" y="1460" on="1"/>
        <pt x="399" y="1487" on="0"/>
        <pt x="447" y="1551" on="0"/>
        <pt x="503" y="1621" on="0"/>
        <pt x="562" y="1692" on="0"/>
        <pt x="591" y="1725" on="1"/>
        <pt x="658" y="1802" on="0"/>
        <pt x="732" y="1884" on="1"/>
      </contour>
      <contour>
        <pt x="564" y="1732" on="1"/>
        <pt x="455" y="1654" on="0"/>
        <pt x="245" y="1493" on="0"/>
        <pt x="144" y="1404" on="1"/>
        <pt x="0" y="1528" on="1"/>
        <pt x="17" y="1555" on="0"/>
        <pt x="66" y="1620" on="0"/>
        <pt x="121" y="1690" on="0"/>
        <pt x="181" y="1761" on="0"/>
        <pt x="210" y="1794" on="1"/>
        <pt x="277" y="1871" on="0"/>
        <pt x="352" y="1952" on="1"/>
      </contour>
    </TTGlyph>
    <TTGlyph name="hyphen" xMin="65" yMin="540" xMax="715" yMax="882">
      <contour>
        <pt x="69" y="552" on="1"/>
        <pt x="65" y="852" on="1"/>
        <pt x="711" y="882" on="1"/>
        <pt x="715" y="540" on="1"/>
      </contour>
    </TTGlyph>
    <TTGlyph name="i" xMin="41" yMin="24" xMax="573" yMax="1408">
      <contour>
        <pt x="573" y="1408" on="1"/>
        <pt x="503" y="46" on="1"/>
        <pt x="81" y="24" on="1"/>
        <pt x="41" y="1380" on="1"/>
      </contour>
    </TTGlyph>
    <TTGlyph name="iacute" xMin="41" yMin="24" xMax="805" yMax="1952">
      <component glyphName="dotlessi" x="0" y="0" flags="0x4"/>
      <component glyphName="acute" x="219" y="70" flags="0x4"/>
    </TTGlyph>
    <TTGlyph name="ibreve" xMin="9" yMin="24" xMax="603" yMax="1880">
      <component glyphName="dotlessi" x="0" y="0" flags="0x204"/>
      <component glyphName="breve" x="10" y="46" flags="0x4"/>
    </TTGlyph>
    <TTGlyph name="icircumflex" xMin="-47" yMin="24" xMax="663" yMax="1878">
      <component glyphName="dotlessi" x="0" y="0" flags="0x4"/>
      <component glyphName="circumflex" x="-47" y="118" flags="0x4"/>
    </TTGlyph>
    <TTGlyph name="idieresis" xMin="-45" yMin="24" xMax="661" yMax="1776">
      <component glyphName="dotlessi" x="0" y="0" flags="0x4"/>
      <component glyphName="dieresis" x="-45" y="56" flags="0x4"/>
    </TTGlyph>
    <TTGlyph name="igrave" xMin="-229" yMin="24" xMax="573" yMax="1954">
      <component glyphName="dotlessi" x="0" y="0" flags="0x4"/>
      <component glyphName="grave" x="-229" y="60" flags="0x4"/>
    </TTGlyph>
    <TTGlyph name="ij" xMin="41" yMin="-24" xMax="1598" yMax="1448">
      <component glyphName="i" x="0" y="0" flags="0x4"/>
      <component glyphName="j" x="592" y="0" flags="0x4"/>
    </TTGlyph>
    <TTGlyph name="imacron" xMin="-24" yMin="24" xMax="630" yMax="1714">
      <component glyphName="dotlessi" x="0" y="0" flags="0x204"/>
      <component glyphName="macron" x="-24" y="-36" flags="0x4"/>
    </TTGlyph>
    <TTGlyph name="iogonek" xMin="41" yMin="-382" xMax="573" yMax="1408">
      <contour>
        <pt x="502" y="-278" on="1"/>
        <pt x="458" y="-320" on="0"/>
        <pt x="348" y="-382" on="0"/>
        <pt x="286" y="-382" on="1"/>
        <pt x="240" y="-382" on="0"/>
        <pt x="159" y="-351" on="0"/>
        <pt x="98" y="-296" on="0"/>
        <pt x="62" y="-219" on="0"/>
        <pt x="62" y="-172" on="1"/>
        <pt x="62" y="-114" on="0"/>
        <pt x="115" y="-14" on="0"/>
        <pt x="153" y="28" on="1"/>
        <pt x="81" y="24" on="1"/>
        <pt x="41" y="1380" on="1"/>
        <pt x="573" y="1408" on="1"/>
        <pt x="503" y="46" on="1"/>
        <pt x="388" y="40" on="1"/>
        <pt x="371" y="19" on="0"/>
        <pt x="333" y="-31" on="0"/>
        <pt x="301" y="-80" on="0"/>
        <pt x="280" y="-126" on="0"/>
        <pt x="280" y="-142" on="1"/>
        <pt x="280" y="-160" on="0"/>
        <pt x="306" y="-184" on="0"/>
        <pt x="324" y="-184" on="1"/>
        <pt x="344" y="-184" on="0"/>
        <pt x="392" y="-153" on="0"/>
        <pt x="404" y="-136" on="1"/>
      </contour>
    </TTGlyph>
    <TTGlyph name="itilde" xMin="-106" yMin="24" xMax="694" yMax="1918">
      <component glyphName="dotlessi" x="0" y="0" flags="0x204"/>
      <component glyphName="tilde" x="-106" y="126" flags="0x4"/>
    </TTGlyph>
    <TTGlyph name="j" xMin="-14" yMin="-24" xMax="1006" yMax="1448">
      <contour>
        <pt x="1006" y="824" on="1"/>
        <pt x="1006" y="765" on="0"/>
        <pt x="1006" y="649" on="0"/>
        <pt x="1000" y="590" on="1"/>
        <pt x="989" y="465" on="0"/>
        <pt x="903" y="242" on="0"/>
        <pt x="756" y="74" on="0"/>
        <pt x="546" y="-24" on="0"/>
        <pt x="410" y="-24" on="1"/>
        <pt x="357" y="-24" on="0"/>
        <pt x="242" y="-6" on="0"/>
        <pt x="129" y="30" on="0"/>
        <pt x="26" y="83" on="0"/>
        <pt x="-14" y="118" on="1"/>
        <pt x="48" y="532" on="1"/>
        <pt x="107" y="475" on="0"/>
        <pt x="251" y="404" on="0"/>
        <pt x="336" y="404" on="1"/>
        <pt x="391" y="404" on="0"/>
        <pt x="467" y="436" on="0"/>
        <pt x="517" y="492" on="0"/>
        <pt x="546" y="567" on="0"/>
        <pt x="559" y="652" on="0"/>
        <pt x="562" y="742" on="0"/>
        <pt x="562" y="786" on="1"/>
        <pt x="562" y="945" on="0"/>
        <pt x="530" y="1260" on="0"/>
        <pt x="518" y="1418" on="1"/>
        <pt x="976" y="1448" on="1"/>
        <pt x="1006" y="1136" on="0"/>
      </contour>
    </TTGlyph>
    <TTGlyph name="jcircumflex" xMin="-14" yMin="-24" xMax="1082" yMax="1914">
      <component glyphName="dotlessj" x="0" y="0" flags="0x204"/>
      <component glyphName="circumflex" x="372" y="154" flags="0x4"/>
    </TTGlyph>
    <TTGlyph name="k" xMin="44" yMin="-4" xMax="1280" yMax="1432">
      <contour>
        <pt x="1280" y="1292" on="1"/>
        <pt x="838" y="766" on="1"/>
        <pt x="1244" y="78" on="1"/>
        <pt x="780" y="-4" on="1"/>
        <pt x="476" y="408" on="1"/>
        <pt x="460" y="16" on="1"/>
        <pt x="44" y="0" on="1"/>
        <pt x="76" y="1432" on="1"/>
        <pt x="542" y="1406" on="1"/>
        <pt x="506" y="994" on="1"/>
        <pt x="796" y="1412" on="1"/>
      </contour>
    </TTGlyph>
    <TTGlyph name="kcommaaccent" xMin="44" yMin="-523" xMax="1280" yMax="1432">
      <component glyphName="k" x="0" y="0" flags="0x204"/>
      <component glyphName="uni0326" x="455" y="0" flags="0x4"/>
    </TTGlyph>
    <TTGlyph name="kgreenlandic" xMin="44" yMin="-4" xMax="1280" yMax="1432">
      <component glyphName="k" x="0" y="0" flags="0x204"/>
    </TTGlyph>
    <TTGlyph name="l" xMin="44" yMin="20" xMax="928" yMax="1448">
      <contour>
        <pt x="928" y="530" on="1"/>
        <pt x="886" y="86" on="1"/>
        <pt x="44" y="20" on="1"/>
        <pt x="76" y="1448" on="1"/>
        <pt x="596" y="1448" on="1"/>
        <pt x="522" y="530" on="1"/>
      </contour>
    </TTGlyph>
    <TTGlyph name="lacute" xMin="44" yMin="20" xMax="928" yMax="2017">
      <component glyphName="l" x="0" y="0" flags="0x204"/>
      <component glyphName="acute" x="333" y="135" flags="0x4"/>
    </TTGlyph>
    <TTGlyph name="lcaron" xMin="44" yMin="20" xMax="1012" yMax="1537">
      <component glyphName="l" x="0" y="0" flags="0x4"/>
      <component glyphName="quoteright" x="667" y="352" scalex="0.800964355469" scaley="0.801635742188" flags="0x4"/>
    </TTGlyph>
    <TTGlyph name="lcommaaccent" xMin="44" yMin="-463" xMax="928" yMax="1448">
      <component glyphName="l" x="0" y="0" flags="0x204"/>
      <component glyphName="uni0326" x="315" y="60" flags="0x4"/>
    </TTGlyph>
    <TTGlyph name="ldotaccent" xMin="44" yMin="20" xMax="1064" yMax="1448">
      <component glyphName="l" x="0" y="0" flags="0x4"/>
      <component glyphName="periodcentered" x="622" y="196" flags="0x4"/>
    </TTGlyph>
    <TTGlyph name="less" xMin="45" yMin="104" xMax="885" yMax="1294">
      <contour>
        <pt x="721" y="104" on="1"/>
        <pt x="59" y="500" on="1"/>
        <pt x="45" y="868" on="1"/>
        <pt x="719" y="1294" on="1"/>
        <pt x="861" y="954" on="1"/>
        <pt x="371" y="698" on="1"/>
        <pt x="885" y="448" on="1"/>
      </contour>
    </TTGlyph>
    <TTGlyph name="logicalnot" xMin="57" yMin="298" xMax="1019" yMax="986">
      <contour>
        <pt x="629" y="298" on="1"/>
        <pt x="621" y="604" on="1"/>
        <pt x="69" y="592" on="1"/>
        <pt x="57" y="970" on="1"/>
        <pt x="1005" y="986" on="1"/>
        <pt x="1019" y="322" on="1"/>
      </contour>
    </TTGlyph>
    <TTGlyph name="lslash" xMin="-28" yMin="20" xMax="934" yMax="1448">
      <contour>
        <pt x="934" y="530" on="1"/>
        <pt x="892" y="86" on="1"/>
        <pt x="50" y="20" on="1"/>
        <pt x="62" y="618" on="1"/>
        <pt x="-24" y="592" on="1"/>
        <pt x="-28" y="730" on="1"/>
        <pt x="66" y="764" on="1"/>
        <pt x="82" y="1448" on="1"/>
        <pt x="602" y="1448" on="1"/>
        <pt x="560" y="944" on="1"/>
        <pt x="678" y="986" on="1"/>
        <pt x="682" y="806" on="1"/>
        <pt x="546" y="764" on="1"/>
        <pt x="528" y="530" on="1"/>
      </contour>
    </TTGlyph>
    <TTGlyph name="m" xMin="17" yMin="30" xMax="1799" yMax="1450">
      <contour>
        <pt x="1799" y="678" on="1"/>
        <pt x="1799" y="535" on="0"/>
        <pt x="1781" y="251" on="0"/>
        <pt x="1769" y="108" on="1"/>
        <pt x="1255" y="84" on="1"/>
        <pt x="1278" y="258" on="0"/>
        <pt x="1315" y="607" on="0"/>
        <pt x="1315" y="782" on="1"/>
        <pt x="1315" y="793" on="0"/>
        <pt x="1313" y="848" on="0"/>
        <pt x="1308" y="918" on="0"/>
        <pt x="1299" y="993" on="0"/>
        <pt x="1284" y="1056" on="0"/>
        <pt x="1262" y="1096" on="0"/>
        <pt x="1247" y="1096" on="1"/>
        <pt x="1212" y="1096" on="0"/>
        <pt x="1172" y="1043" on="0"/>
        <pt x="1153" y="969" on="0"/>
        <pt x="1149" y="892" on="0"/>
        <pt x="1149" y="868" on="1"/>
        <pt x="1149" y="826" on="0"/>
        <pt x="1153" y="742" on="0"/>
        <pt x="1153" y="698" on="1"/>
        <pt x="1153" y="543" on="0"/>
        <pt x="1138" y="235" on="0"/>
        <pt x="1127" y="80" on="1"/>
        <pt x="653" y="62" on="1"/>
        <pt x="676" y="236" on="0"/>
        <pt x="711" y="583" on="0"/>
        <pt x="711" y="758" on="1"/>
        <pt x="711" y="769" on="0"/>
        <pt x="709" y="827" on="0"/>
        <pt x="704" y="899" on="0"/>
        <pt x="694" y="977" on="0"/>
        <pt x="679" y="1042" on="0"/>
        <pt x="657" y="1084" on="0"/>
        <pt x="641" y="1084" on="1"/>
        <pt x="616" y="1084" on="0"/>
        <pt x="582" y="1045" on="0"/>
        <pt x="561" y="983" on="0"/>
        <pt x="550" y="908" on="0"/>
        <pt x="545" y="836" on="0"/>
        <pt x="544" y="775" on="0"/>
        <pt x="543" y="760" on="1"/>
        <pt x="521" y="30" on="1"/>
        <pt x="17" y="30" on="1"/>
        <pt x="33" y="199" on="0"/>
        <pt x="66" y="539" on="0"/>
        <pt x="91" y="878" on="0"/>
        <pt x="107" y="1218" on="0"/>
        <pt x="107" y="1388" on="1"/>
        <pt x="583" y="1408" on="1"/>
        <pt x="581" y="1292" on="1"/>
        <pt x="603" y="1320" on="0"/>
        <pt x="659" y="1377" on="0"/>
        <pt x="722" y="1422" on="0"/>
        <pt x="793" y="1450" on="0"/>
        <pt x="831" y="1450" on="1"/>
        <pt x="880" y="1450" on="0"/>
        <pt x="958" y="1435" on="0"/>
        <pt x="1021" y="1399" on="0"/>
        <pt x="1069" y="1336" on="0"/>
        <pt x="1087" y="1288" on="1"/>
        <pt x="1119" y="1323" on="0"/>
        <pt x="1184" y="1383" on="0"/>
        <pt x="1256" y="1426" on="0"/>
        <pt x="1340" y="1450" on="0"/>
        <pt x="1391" y="1450" on="1"/>
        <pt x="1488" y="1450" on="0"/>
        <pt x="1624" y="1375" on="0"/>
        <pt x="1715" y="1251" on="0"/>
        <pt x="1766" y="1091" on="0"/>
        <pt x="1792" y="919" on="0"/>
        <pt x="1799" y="749" on="0"/>
      </contour>
    </TTGlyph>
    <TTGlyph name="macron" xMin="0" yMin="1492" xMax="654" yMax="1750">
      <contour>
        <pt x="650" y="1492" on="1"/>
        <pt x="18" y="1500" on="1"/>
        <pt x="0" y="1738" on="1"/>
        <pt x="654" y="1750" on="1"/>
      </contour>
    </TTGlyph>
    <TTGlyph name="minus" xMin="65" yMin="540" xMax="715" yMax="882">
      <contour>
        <pt x="69" y="552" on="1"/>
        <pt x="65" y="852" on="1"/>
        <pt x="711" y="882" on="1"/>
        <pt x="715" y="540" on="1"/>
      </contour>
    </TTGlyph>
    <TTGlyph name="mu" xMin="44" yMin="-358" xMax="1486" yMax="1398">
      <contour>
        <pt x="44" y="-348" on="1"/>
        <pt x="146" y="628" on="1"/>
        <pt x="154" y="717" on="0"/>
        <pt x="182" y="909" on="0"/>
        <pt x="221" y="1101" on="0"/>
        <pt x="273" y="1288" on="0"/>
        <pt x="306" y="1374" on="1"/>
        <pt x="427" y="1365" on="0"/>
        <pt x="672" y="1350" on="0"/>
        <pt x="794" y="1348" on="1"/>
        <pt x="762" y="1262" on="0"/>
        <pt x="698" y="1089" on="0"/>
        <pt x="641" y="915" on="0"/>
        <pt x="597" y="738" on="0"/>
        <pt x="586" y="648" on="1"/>
        <pt x="584" y="629" on="0"/>
        <pt x="578" y="553" on="0"/>
        <pt x="587" y="475" on="0"/>
        <pt x="616" y="417" on="0"/>
        <pt x="648" y="416" on="1"/>
        <pt x="686" y="415" on="0"/>
        <pt x="754" y="478" on="0"/>
        <pt x="812" y="585" on="0"/>
        <pt x="862" y="727" on="0"/>
        <pt x="903" y="882" on="0"/>
        <pt x="936" y="1040" on="0"/>
        <pt x="959" y="1179" on="0"/>
        <pt x="975" y="1291" on="0"/>
        <pt x="978" y="1322" on="1"/>
        <pt x="984" y="1358" on="0"/>
        <pt x="984" y="1398" on="1"/>
        <pt x="1042" y="1396" on="0"/>
        <pt x="1170" y="1391" on="0"/>
        <pt x="1300" y="1387" on="0"/>
        <pt x="1427" y="1386" on="0"/>
        <pt x="1486" y="1388" on="1"/>
        <pt x="1399" y="1043" on="0"/>
        <pt x="1253" y="347" on="0"/>
        <pt x="1184" y="2" on="1"/>
        <pt x="728" y="-16" on="1"/>
        <pt x="768" y="134" on="1"/>
        <pt x="745" y="111" on="0"/>
        <pt x="686" y="80" on="0"/>
        <pt x="623" y="61" on="0"/>
        <pt x="559" y="53" on="0"/>
        <pt x="530" y="54" on="1"/>
        <pt x="526" y="54" on="1"/>
        <pt x="480" y="-358" on="1"/>
      </contour>
    </TTGlyph>
    <TTGlyph name="multiply" xMin="44" yMin="236" xMax="870" yMax="1044">
      <contour>
        <pt x="44" y="462" on="1"/>
        <pt x="228" y="648" on="1"/>
        <pt x="54" y="828" on="1"/>
        <pt x="264" y="1044" on="1"/>
        <pt x="446" y="872" on="1"/>
        <pt x="614" y="1038" on="1"/>
        <pt x="856" y="842" on="1"/>
        <pt x="678" y="660" on="1"/>
        <pt x="870" y="480" on="1"/>
        <pt x="630" y="236" on="1"/>
        <pt x="448" y="424" on="1"/>
        <pt x="266" y="236" on="1"/>
      </contour>
    </TTGlyph>
    <TTGlyph name="n" xMin="28" yMin="30" xMax="1292" yMax="1460">
      <contour>
        <pt x="1292" y="506" on="1"/>
        <pt x="1292" y="393" on="0"/>
        <pt x="1287" y="172" on="0"/>
        <pt x="1282" y="60" on="1"/>
        <pt x="706" y="70" on="1"/>
        <pt x="736" y="247" on="0"/>
        <pt x="780" y="600" on="0"/>
        <pt x="780" y="780" on="1"/>
        <pt x="780" y="793" on="0"/>
        <pt x="778" y="851" on="0"/>
        <pt x="772" y="924" on="0"/>
        <pt x="761" y="1001" on="0"/>
        <pt x="742" y="1065" on="0"/>
        <pt x="715" y="1106" on="0"/>
        <pt x="696" y="1106" on="1"/>
        <pt x="662" y="1106" on="0"/>
        <pt x="615" y="1066" on="0"/>
        <pt x="584" y="1003" on="0"/>
        <pt x="566" y="925" on="0"/>
        <pt x="557" y="847" on="0"/>
        <pt x="554" y="778" on="0"/>
        <pt x="554" y="756" on="1"/>
        <pt x="549" y="579" on="0"/>
        <pt x="543" y="230" on="0"/>
        <pt x="538" y="52" on="1"/>
        <pt x="28" y="30" on="1"/>
        <pt x="48" y="383" on="0"/>
        <pt x="85" y="1081" on="0"/>
        <pt x="96" y="1434" on="1"/>
        <pt x="568" y="1458" on="1"/>
        <pt x="564" y="1298" on="1"/>
        <pt x="592" y="1332" on="0"/>
        <pt x="657" y="1392" on="0"/>
        <pt x="731" y="1435" on="0"/>
        <pt x="814" y="1460" on="0"/>
        <pt x="860" y="1460" on="1"/>
        <pt x="945" y="1460" on="0"/>
        <pt x="1073" y="1404" on="0"/>
        <pt x="1165" y="1308" on="0"/>
        <pt x="1227" y="1177" on="0"/>
        <pt x="1265" y="1029" on="0"/>
        <pt x="1285" y="868" on="0"/>
        <pt x="1292" y="712" on="0"/>
        <pt x="1292" y="566" on="0"/>
      </contour>
    </TTGlyph>
    <TTGlyph name="nacute" xMin="28" yMin="30" xMax="1292" yMax="1994">
      <component glyphName="n" x="0" y="0" flags="0x204"/>
      <component glyphName="acute" x="541" y="112" flags="0x4"/>
    </TTGlyph>
    <TTGlyph name="napostrophe" xMin="2" yMin="30" xMax="1613" yMax="1537">
      <component glyphName="n" x="321" y="0" flags="0x4"/>
      <component glyphName="quoteright" x="-6" y="352" scalex="0.800964355469" scaley="0.801635742188" flags="0x4"/>
    </TTGlyph>
    <TTGlyph name="ncaron" xMin="28" yMin="30" xMax="1292" yMax="1933">
      <component glyphName="n" x="0" y="0" flags="0x204"/>
      <component glyphName="caron" x="336" y="55" flags="0x4"/>
    </TTGlyph>
    <TTGlyph name="ncommaaccent" xMin="28" yMin="-443" xMax="1292" yMax="1460">
      <component glyphName="n" x="0" y="0" flags="0x204"/>
      <component glyphName="uni0326" x="455" y="80" flags="0x4"/>
    </TTGlyph>
</ttFont>
